<?xml version="1.0" standalone="no"?>
  <!DOCTYPE svg PUBLIC "-//W3C//DTD SVG 1.1//EN" "http://www.w3.org/Graphics/SVG/1.1/DTD/svg11.dtd" >
  <svg>
  <metadata>
  Created by font-carrier
  </metadata>
  <defs>
  <font id="Circe-Regular" horiz-adv-x="1384" vert-adv-y="1384" >
    <font-face
      
      font-family="Circe"
      
      font-weight="400"
      
      font-stretch="normal"
      
      units-per-em="1000"
      
      ascent="1020"
      
      descent="-454"
      
    />
      <missing-glyph />

      

      
      <glyph glyph-name="uni21" unicode="&#x21;" d="M197 215L112 215L112 700L197 700L197 215M99 54Q99 76 115 91.50Q131 107 157 107Q178 107 194 91Q210 75 210 54Q210 30 195 13.50Q180-3 157-3Q131-3 115 13.50Q99 30 99 54Z"  horiz-adv-x="310" vert-adv-y="1000"  />

      
      <glyph glyph-name="uni22" unicode="&#x22;" d="M330 477L250 477L250 700L330 700L330 477M165 477L85 477L85 700L165 700L165 477Z"  horiz-adv-x="415" vert-adv-y="1000"  />

      
      <glyph glyph-name="uni23" unicode="&#x23;" d="M379-10L317 12L384 195L200 195L124-10L61 12L129 195L40 195L40 265L155 265L218 435L40 435L40 505L244 505L320 710L383 687L315 505L499 505L575 710L638 688L570 505L664 505L664 435L544 435L481 265L664 265L664 195L455 195L379-10M473 435L289 435L226 265L410 265L473 435Z"  horiz-adv-x="704" vert-adv-y="1000"  />

      
      <glyph glyph-name="uni24" unicode="&#x24;" d="M430 179Q430 214 411 240Q392 266 362 282.50Q332 299 295.50 314Q259 329 222.50 346.50Q186 364 156 386Q126 408 107 444Q88 480 88 527Q88 596 135 645.50Q182 695 262 707L262 790L342 790L342 708Q443 696 497 637L451 573Q394 630 309 630Q247 630 212.50 602.50Q178 575 178 527Q178 492 197 466Q216 440 246 424Q276 408 312.50 393.50Q349 379 385.50 362Q422 345 452 323.50Q482 302 501 265Q520 228 520 180Q520 107 471 56Q422 5 342-6L342-100L262-100L262-8Q200-1 148.50 27Q97 55 76 95L125 153Q154 115 202 92.50Q250 70 298 70Q356 70 393 99.50Q430 129 430 179Z"  horiz-adv-x="592" vert-adv-y="1000"  />

      
      <glyph glyph-name="uni25" unicode="&#x25;" d="M97 414Q45 462 45 537Q45 612 96 659Q149 706 228 706Q307 706 359 659Q411 613 411 537Q411 462 359 414Q306 367 228 367Q150 367 97 414M120 537Q120 491 151.50 461.50Q183 432 228 432Q274 432 305 461.50Q336 491 336 537Q336 582 305 611.50Q274 641 228 641Q182 641 151 611.50Q120 582 120 537M518 41Q466 89 466 164Q466 239 517 286Q570 333 649 333Q728 333 780 286Q832 240 832 164Q832 89 780 41Q727-6 649-6Q571-6 518 41M541 164Q541 118 572.50 88.50Q604 59 649 59Q695 59 726 88.50Q757 118 757 164Q757 209 726 238.50Q695 268 649 268Q603 268 572 238.50Q541 209 541 164M206-10L159 23L673 710L719 676L206-10Z"  horiz-adv-x="877" vert-adv-y="1000"  />

      
      <glyph glyph-name="uni26" unicode="&#x26;" d="M684 0L584 0L511 92Q432-10 296-10Q198-10 133 46Q70 103 70 190Q70 265 111.50 321Q153 377 236 433Q193 448 168 482.50Q143 517 143 565Q143 628 188 669Q235 710 297 710Q359 710 406 669Q452 629 452 565Q452 516 421 478Q390 439 348 432L518 213Q576 314 576 450L655 450Q655 274 567 149L684 0M298 70Q403 70 462 156L287 386Q222 336 191 294.50Q160 253 160 206Q160 147 200 108Q241 70 298 70M218 565Q218 533 241 509.50Q264 486 297 486Q330 486 353.50 509Q377 532 377 565Q377 598 353.50 621.50Q330 645 297 645Q264 645 241 622Q218 599 218 565Z"  horiz-adv-x="744" vert-adv-y="1000"  />

      
      <glyph glyph-name="uni27" unicode="&#x27;" d="M165 477L85 477L85 700L165 700L165 477Z"  horiz-adv-x="250" vert-adv-y="1000"  />

      
      <glyph glyph-name="uni28" unicode="&#x28;" d="M293-162L242-206Q40-32 40 225Q40 473 243 656L293 612Q203 526 161.50 432.50Q120 339 120 225Q120 114 165 13Q210-88 293-162Z"  horiz-adv-x="293" vert-adv-y="1000"  />

      
      <glyph glyph-name="uni29" unicode="&#x29;" d="M51-206L0-162Q83-88 128 13Q173 114 173 225Q173 339 131.50 432.50Q90 526 0 612L50 656Q253 473 253 225Q253-32 51-206Z"  horiz-adv-x="293" vert-adv-y="1000"  />

      
      <glyph glyph-name="uni2a" unicode="&#x2a;" d="M240 709Q262 709 277.50 693.50Q293 678 293 657Q293 635 278 620.50Q263 606 240 606Q219 606 204 621Q189 636 189 657Q189 678 204.50 693.50Q220 709 240 709M187 375Q187 397 202.50 413Q218 429 239 429Q260 429 276 413Q292 397 292 375Q292 355 276 339Q260 323 239 323Q219 323 203 339Q187 355 187 375M305 584Q305 606 319.50 621.50Q334 637 355 637Q377 637 392.50 621.50Q408 606 408 584Q408 563 392.50 547.50Q377 532 355 532Q334 532 319.50 547.50Q305 563 305 584M355 503Q377 503 392.50 488Q408 473 408 451Q408 429 392.50 413.50Q377 398 355 398Q334 398 319.50 413.50Q305 429 305 451Q305 473 319.50 488Q334 503 355 503M122 503Q144 503 159 488Q174 473 174 451Q174 429 159 413.50Q144 398 122 398Q101 398 86 413.50Q71 429 71 451Q71 473 86 488Q101 503 122 503M71 584Q71 606 86 621.50Q101 637 122 637Q144 637 159 621.50Q174 606 174 584Q174 563 159 547.50Q144 532 122 532Q101 532 86 547.50Q71 563 71 584Z"  horiz-adv-x="479" vert-adv-y="1000"  />

      
      <glyph glyph-name="uni2b" unicode="&#x2b;" d="M257 325L69 325L69 395L257 395L257 586L332 586L332 395L523 395L523 325L332 325L332 132L257 132L257 325Z"  horiz-adv-x="592" vert-adv-y="1000"  />

      
      <glyph glyph-name="uni2c" unicode="&#x2c;" d="M54 46Q54 70 69 84.50Q84 99 111 99Q143 99 163 72.50Q183 46 183 2Q183-52 153.50-91.50Q124-131 73-146L51-108Q103-92 115-41Q122-7 114 9Q108 0 92 0Q77 0 65.50 13.50Q54 27 54 46Z"  horiz-adv-x="223" vert-adv-y="1000"  />

      
      <glyph glyph-name="uni2d" unicode="&#x2d;" d="M314 235L75 235L75 310L314 310L314 235Z"  horiz-adv-x="389" vert-adv-y="1000"  />

      
      <glyph glyph-name="uni2e" unicode="&#x2e;" d="M50 54Q50 75 66.50 91Q83 107 107 107Q128 107 144 91Q160 75 160 54Q160 30 145 13.50Q130-3 107-3Q83-3 66.50 13.50Q50 30 50 54Z"  horiz-adv-x="210" vert-adv-y="1000"  />

      
      <glyph glyph-name="uni2f" unicode="&#x2f;" d="M33-208L-30-185L303 710L365 687L33-208Z"  horiz-adv-x="335" vert-adv-y="1000"  />

      
      <glyph glyph-name="uni30" unicode="&#x30;" d="M509 350Q509 180 452.50 86Q396-8 284-8Q171-8 112 88Q55 185 55 350Q55 514 111 611Q168 708 282 708Q397 708 452 611Q509 515 509 350M284 67Q357 67 390.50 137Q424 207 424 350Q424 492 389.50 562.50Q355 633 282 633Q140 633 140 350Q140 67 284 67Z"  horiz-adv-x="564" vert-adv-y="1000"  />

      
      <glyph glyph-name="uni31" unicode="&#x31;" d="M77 509L35 574L203 704L259 704L259 0L179 0L179 589L77 509Z"  horiz-adv-x="379" vert-adv-y="1000"  />

      
      <glyph glyph-name="uni32" unicode="&#x32;" d="M472 0L45 0L45 65Q181 198 245 277Q358 419 358 515Q358 565 327.50 596.50Q297 628 244 628Q198 628 163.50 598.50Q129 569 119 516L51 544Q63 619 118.50 663.50Q174 708 251 708Q343 708 393 655Q443 602 443 531Q443 396 314 244Q256 176 221 142Q191 112 149 75L472 75L472 0Z"  horiz-adv-x="527" vert-adv-y="1000"  />

      
      <glyph glyph-name="uni33" unicode="&#x33;" d="M247-10Q173-10 117.50 21Q62 52 35 110L81 167Q105 121 149 95.50Q193 70 244 70Q307 70 344.50 105Q382 140 382 196Q382 252 342.50 285Q303 318 239 318L184 318L184 398L234 398Q283 398 318 432Q355 466 355 519Q355 571 324.50 600.50Q294 630 241 630Q146 630 97 543L52 598Q76 651 127.50 680.50Q179 710 247 710Q335 710 387.50 662Q440 614 440 533Q440 475 412 431Q384 387 331 365L331 362Q393 352 430 305Q467 258 467 193Q467 101 405 45Q344-10 247-10Z"  horiz-adv-x="532" vert-adv-y="1000"  />

      
      <glyph glyph-name="uni34" unicode="&#x34;" d="M423 0L343 0L343 175L20 175L20 232L310 700L402 700L125 255L343 255L343 450L423 450L423 255L520 255L520 175L423 175L423 0Z"  horiz-adv-x="550" vert-adv-y="1000"  />

      
      <glyph glyph-name="uni35" unicode="&#x35;" d="M99 348L143 700L459 700L459 620L213 620L187 431Q211 438 243 438Q340 438 402 378Q464 319 464 221Q464 116 398 53Q332-10 236-10Q174-10 119 18Q64 46 35 96L81 155Q105 116 148.50 93Q192 70 238 70Q298 70 338 112Q379 155 379 218Q379 282 332 324Q286 366 209 366Q146 366 99 348Z"  horiz-adv-x="516" vert-adv-y="1000"  />

      
      <glyph glyph-name="uni36" unicode="&#x36;" d="M50 248Q50 338 80.50 421Q111 504 162 562Q267 681 390 710L423 649Q324 624 244 542Q167 462 144 338Q194 431 309 431Q396 431 452 371Q509 311 509 216Q509 118 444 53Q380-10 293-10Q180-10 115 64Q50 140 50 248M135 248Q135 173 176 121Q217 70 292 70Q348 70 386 111Q424 154 424 210Q424 275 386.50 315.50Q349 356 282 356Q229 356 189.50 325Q150 294 135 248Z"  horiz-adv-x="554" vert-adv-y="1000"  />

      
      <glyph glyph-name="uni37" unicode="&#x37;" d="M353 620L30 620L30 700L450 700L450 648L192 0L104 0L353 620Z"  horiz-adv-x="485" vert-adv-y="1000"  />

      
      <glyph glyph-name="uni38" unicode="&#x38;" d="M285 400L311 400Q356 400 389 434Q423 468 423 515Q423 567 387 598.50Q351 630 296 630Q242 630 207 598Q172 566 172 515Q172 468 206 434Q240 400 285 400M310 320L288 320Q231 320 190 285Q150 251 150 196Q150 141 191.50 105.50Q233 70 297 70Q364 70 404.50 104.50Q445 139 445 196Q444 252 406 286Q368 320 310 320M65 181Q65 244 101 292.50Q137 341 197 358L197 361Q149 377 118 423.50Q87 470 87 527Q87 608 147 659Q208 710 297 710Q386 710 447 659Q508 608 508 527Q508 474 476.50 428.50Q445 383 393 362L393 359Q453 349 491.50 301.50Q530 254 530 187Q530 95 463 43Q395-10 298-10Q199-10 132 42Q65 94 65 181Z"  horiz-adv-x="595" vert-adv-y="1000"  />

      
      <glyph glyph-name="uni39" unicode="&#x39;" d="M501 447Q501 254 402 131Q305 10 151-10L124 53Q243 76 317 155Q391 234 407 356Q360 269 249 269Q157 269 99 330Q40 392 40 484Q40 583 108 646Q175 710 263 710Q376 710 438 636Q501 562 501 447M416 447Q416 524 377 577Q338 630 264 630Q207 630 166 588Q125 547 125 490Q125 428 164.50 386Q204 344 269 344Q323 344 362 373Q401 402 416 447Z"  horiz-adv-x="551" vert-adv-y="1000"  />

      
      <glyph glyph-name="uni3a" unicode="&#x3a;" d="M105 406Q105 427 121.50 443Q138 459 162 459Q183 459 199 443Q215 427 215 406Q215 382 200 365.50Q185 349 162 349Q138 349 121.50 365.50Q105 382 105 406M105 54Q105 75 121.50 91Q138 107 162 107Q183 107 199 91Q215 75 215 54Q215 30 200 13.50Q185-3 162-3Q138-3 121.50 13.50Q105 30 105 54Z"  horiz-adv-x="320" vert-adv-y="1000"  />

      
      <glyph glyph-name="uni3b" unicode="&#x3b;" d="M105 46Q105 70 120 84.50Q135 99 162 99Q194 99 214 72.50Q234 46 234 2Q234-52 204.50-91.50Q175-131 124-146L102-108Q154-92 166-41Q173-7 165 9Q159 0 143 0Q128 0 116.50 13.50Q105 27 105 46M105 406Q105 427 121.50 443Q138 459 162 459Q183 459 199 443Q215 427 215 406Q215 382 200 365.50Q185 349 162 349Q138 349 121.50 365.50Q105 382 105 406Z"  horiz-adv-x="324" vert-adv-y="1000"  />

      
      <glyph glyph-name="uni3c" unicode="&#x3c;" d="M497 166L497 79L57 345L57 379L497 643L497 556L168 362L497 166Z"  horiz-adv-x="592" vert-adv-y="1000"  />

      
      <glyph glyph-name="uni3d" unicode="&#x3d;" d="M523 415L69 415L69 485L523 485L523 415M523 235L69 235L69 305L523 305L523 235Z"  horiz-adv-x="592" vert-adv-y="1000"  />

      
      <glyph glyph-name="uni3e" unicode="&#x3e;" d="M534 379L534 345L95 79L95 166L424 362L95 556L95 643L534 379Z"  horiz-adv-x="592" vert-adv-y="1000"  />

      
      <glyph glyph-name="uni3f" unicode="&#x3f;" d="M350 520Q350 566 315.50 598Q281 630 228 630Q142 630 88 556L40 609Q68 655 120 682.50Q172 710 233 710Q326 710 381 660Q436 611 436 537Q436 490 420 454Q416 444 411 435Q406 426 399 417.50Q392 409 387.50 403.50Q383 398 373 389.50Q363 381 359.50 377.50Q356 374 344 364.50Q332 355 329 353Q323 348 312.50 339.50Q302 331 296.50 326Q291 321 282 313Q273 305 268 299Q263 293 257 284Q251 275 248.50 267Q246 259 243.50 249Q241 239 241.50 227.50Q242 216 244 203L172 202Q154 297 219 351Q229 359 252.50 376.50Q276 394 289 405.50Q302 417 318.50 435Q335 453 342.50 474Q350 495 350 520M152 54Q152 76 168 91.50Q184 107 210 107Q231 107 247 91Q263 75 263 54Q263 30 248 13.50Q233-3 210-3Q184-3 168 13.50Q152 30 152 54Z"  horiz-adv-x="466" vert-adv-y="1000"  />

      
      <glyph glyph-name="uni40" unicode="&#x40;" d="M711 0L628 0L628 47Q571-10 489-10Q387-10 326 54Q266 118 266 225Q266 324 338 392Q411 460 519 460Q627 460 708 409L708 75L729 75Q791 75 828 130Q866 186 866 270Q866 406 767 497Q670 588 513 588Q352 588 246 486Q140 386 140 225Q140 70 247-34Q356-138 513-138Q570-138 621-126L626-200Q570-213 513-213Q320-213 192-88Q65 36 65 225Q65 410 192 536Q319 663 513 663Q697 663 819 553Q941 443 941 271Q941 160 880 80Q818 0 711 0M502 65Q537 65 571.50 82Q606 99 628 124L628 356Q576 385 518 385Q444 385 397 337Q351 291 351 221Q351 149 392 107Q433 65 502 65Z"  horiz-adv-x="1006" vert-adv-y="1000"  />

      
      <glyph glyph-name="uni41" unicode="&#x41;" d="M101 0L15 0L316 704L389 704L690 0L599 0L509 212L190 212L101 0M476 292L350 591L224 292L476 292Z"  horiz-adv-x="705" vert-adv-y="1000"  />

      
      <glyph glyph-name="uni42" unicode="&#x42;" d="M105 1L105 699Q244 703 297 703Q411 703 466.50 657.50Q522 612 522 530Q522 469 490 428Q458 387 402 368L402 366Q470 355 508.50 312Q547 269 547 200Q547 100 479 48.50Q411-3 293-3Q178-3 105 1M303 319L190 319L190 81Q231 77 298 77Q377 77 419.50 109.50Q462 142 462 205Q462 260 420.50 289.50Q379 319 303 319M295 623Q265 623 190 620L190 394L302 394Q361 394 399 425.50Q437 457 437 511Q437 623 295 623Z"  horiz-adv-x="617" vert-adv-y="1000"  />

      
      <glyph glyph-name="uni43" unicode="&#x43;" d="M592 132L626 68Q591 32 531 11Q471-10 405-10Q248-10 148 88Q50 188 50 350Q50 506 144 607Q238 710 399 710Q532 710 612 642L573 578Q503 630 400 630Q286 630 213 552Q140 475 140 350Q140 225 215 147Q292 70 413 70Q515 70 592 132Z"  horiz-adv-x="656" vert-adv-y="1000"  />

      
      <glyph glyph-name="uni44" unicode="&#x44;" d="M116 0L105 0L105 700L117 700Q160 700 202 701Q288 703 296 703Q398 703 475 675.50Q552 648 598 599.50Q644 551 666.50 490.50Q689 430 689 359Q689 202 584 100Q480-2 288-2Q246-2 206-1Q167 0 116 0M294 623Q276 623 239.50 621.50Q203 620 190 620L190 80Q216 80 240.50 79.50Q265 79 277 78.50Q289 78 291 78Q436 78 518 155Q599 233 599 359Q599 477 520 550Q441 623 294 623Z"  horiz-adv-x="739" vert-adv-y="1000"  />

      
      <glyph glyph-name="uni45" unicode="&#x45;" d="M510 0L105 0L105 700L500 700L500 620L190 620L190 394L470 394L470 314L190 314L190 80L510 80L510 0Z"  horiz-adv-x="575" vert-adv-y="1000"  />

      
      <glyph glyph-name="uni46" unicode="&#x46;" d="M190 0L105 0L105 700L500 700L500 620L190 620L190 372L470 372L470 292L190 292L190 0Z"  horiz-adv-x="540" vert-adv-y="1000"  />

      
      <glyph glyph-name="uni47" unicode="&#x47;" d="M587 276L398 276L398 356L667 356L667 87Q622 42 548 16Q473-10 405-10Q242-10 146 88Q50 186 50 350Q50 503 145 607Q239 710 394 710Q528 710 614 642L577 574Q515 630 404 630Q287 630 213 553Q140 477 140 350Q140 222 213 146Q286 70 407 70Q455 70 508 87Q558 105 587 132L587 276Z"  horiz-adv-x="727" vert-adv-y="1000"  />

      
      <glyph glyph-name="uni48" unicode="&#x48;" d="M660 0L575 0L575 317L190 317L190 0L105 0L105 700L190 700L190 397L575 397L575 700L660 700L660 0Z"  horiz-adv-x="765" vert-adv-y="1000"  />

      
      <glyph glyph-name="uni49" unicode="&#x49;" d="M210 0L125 0L125 700L210 700L210 0Z"  horiz-adv-x="335" vert-adv-y="1000"  />

      
      <glyph glyph-name="uni4a" unicode="&#x4a;" d="M184 700L269 700L269 159Q269-10 116-10Q47-10 10 27L39 92Q67 70 105 70Q184 70 184 173L184 700Z"  horiz-adv-x="374" vert-adv-y="1000"  />

      
      <glyph glyph-name="uni4b" unicode="&#x4b;" d="M514 700L617 700L305 371L633 0L524 0L207 365L514 700M190 0L105 0L105 700L190 700L190 0Z"  horiz-adv-x="653" vert-adv-y="1000"  />

      
      <glyph glyph-name="uni4c" unicode="&#x4c;" d="M535 0L105 0L105 700L190 700L190 80L535 80L535 0Z"  horiz-adv-x="550" vert-adv-y="1000"  />

      
      <glyph glyph-name="uni4d" unicode="&#x4d;" d="M190 0L105 0L105 700L191 700L454 341L706 700L787 700L787 0L702 0L702 566L454 218L441 218L190 563L190 0Z"  horiz-adv-x="892" vert-adv-y="1000"  />

      
      <glyph glyph-name="uni4e" unicode="&#x4e;" d="M690 700L690 0L622 0L185 550L185 0L105 0L105 700L173 700L610 148L610 700L690 700Z"  horiz-adv-x="795" vert-adv-y="1000"  />

      
      <glyph glyph-name="uni4f" unicode="&#x4f;" d="M50 350Q50 502 151 606Q252 710 407 710Q561 710 662 609Q764 508 764 350Q764 196 662 92Q560-10 407-10Q254-10 151 91Q50 192 50 350M140 350Q140 232 217 150Q294 70 407 70Q525 70 599 150Q674 230 674 350Q674 470 597 550Q520 630 407 630Q292 630 216 551Q140 472 140 350Z"  horiz-adv-x="814" vert-adv-y="1000"  />

      
      <glyph glyph-name="uni50" unicode="&#x50;" d="M190 269L190 0L105 0L105 700Q147 700 194 701Q241 702 288 702Q426 702 486 640Q547 579 547 485Q547 394 481 329Q417 265 295 265Q231 265 190 269M296 622Q278 622 190 620L190 350Q253 345 292 345Q369 345 413 382.50Q457 420 457 486Q457 551 416.50 586.50Q376 622 296 622Z"  horiz-adv-x="597" vert-adv-y="1000"  />

      
      <glyph glyph-name="uni51" unicode="&#x51;" d="M50 350Q50 502 151 606Q252 710 407 710Q561 710 662 609Q764 508 764 350Q764 194 659 90L736 0L636 0L599 43Q513-10 407-10Q254-10 151 91Q50 192 50 350M140 350Q140 232 217 150Q294 70 407 70Q484 70 545 106L484 179L540 230L604 155Q674 234 674 350Q674 470 597 550Q520 630 407 630Q292 630 216 551Q140 472 140 350Z"  horiz-adv-x="814" vert-adv-y="1000"  />

      
      <glyph glyph-name="uni52" unicode="&#x52;" d="M190 280L190 0L105 0L105 700Q153 700 206 701Q259 702 293 702Q542 702 542 494Q542 416 497 364Q455 313 390 296L623 0L519 0L304 280L190 280M288 622Q278 622 190 620L190 360L293 360Q358 360 404 396Q452 434 452 493Q452 622 288 622Z"  horiz-adv-x="643" vert-adv-y="1000"  />

      
      <glyph glyph-name="uni53" unicode="&#x53;" d="M409 179Q409 214 390 240Q371 266 341 282.50Q311 299 274.50 314Q238 329 201.50 346.50Q165 364 135 386Q105 408 86 444Q67 480 67 527Q67 604 124 657Q182 710 278 710Q337 710 389 690Q441 670 471 637L425 573Q368 630 283 630Q225 630 191 602Q157 574 157 527Q157 492 176 466Q195 440 225 424Q255 408 291.50 393.50Q328 379 364.50 362Q401 345 431 323.50Q461 302 480 265Q499 228 499 180Q499 94 433 42Q369-10 271-10Q202-10 139 18Q76 46 50 95L99 153Q128 115 176 92.50Q224 70 272 70Q331 70 370 99.50Q409 129 409 179Z"  horiz-adv-x="549" vert-adv-y="1000"  />

      
      <glyph glyph-name="uni54" unicode="&#x54;" d="M255 620L10 620L10 700L585 700L585 620L340 620L340 0L255 0L255 620Z"  horiz-adv-x="595" vert-adv-y="1000"  />

      
      <glyph glyph-name="uni55" unicode="&#x55;" d="M571 700L656 700L656 292Q656 141 579 66Q502-9 385-9Q253-9 174 70Q95 149 95 299L95 700L180 700L180 315Q180 200 233.50 135.50Q287 71 385 71Q474 71 522.50 132Q571 193 571 309L571 700Z"  horiz-adv-x="751" vert-adv-y="1000"  />

      
      <glyph glyph-name="uni56" unicode="&#x56;" d="M565 700L651 700L363-4L300-4L5 700L96 700L334 124L565 700Z"  horiz-adv-x="656" vert-adv-y="1000"  />

      
      <glyph glyph-name="uni57" unicode="&#x57;" d="M877 700L960 700L758 0L680 0L488 563L300 0L222 0L10 700L106 700L269 143L450 700L532 700L718 143L877 700Z"  horiz-adv-x="970" vert-adv-y="1000"  />

      
      <glyph glyph-name="uni58" unicode="&#x58;" d="M534 700L635 700L387 356L644 0L543 0L331 291L120 0L20 0L277 356L31 700L131 700L334 420L534 700Z"  horiz-adv-x="664" vert-adv-y="1000"  />

      
      <glyph glyph-name="uni59" unicode="&#x59;" d="M501 700L594 700L343 300L343 0L258 0L258 300L10 700L108 700L304 380L501 700Z"  horiz-adv-x="604" vert-adv-y="1000"  />

      
      <glyph glyph-name="uni5a" unicode="&#x5a;" d="M468 620L60 620L60 700L585 700L585 643L155 80L595 80L595 0L40 0L40 57L468 620Z"  horiz-adv-x="635" vert-adv-y="1000"  />

      
      <glyph glyph-name="uni5b" unicode="&#x5b;" d="M310-200L60-200L60 650L310 650L310 575L140 575L140-125L310-125L310-200Z"  horiz-adv-x="320" vert-adv-y="1000"  />

      
      <glyph glyph-name="uni5c" unicode="&#x5c;" d="M-30 687L32 710L365-185L302-208L-30 687Z"  horiz-adv-x="335" vert-adv-y="1000"  />

      
      <glyph glyph-name="uni5d" unicode="&#x5d;" d="M10 650L260 650L260-200L10-200L10-125L180-125L180 575L10 575L10 650Z"  horiz-adv-x="320" vert-adv-y="1000"  />

      
      <glyph glyph-name="uni5e" unicode="&#x5e;" d="M127 450L40 450L220 708L274 708L452 450L365 450L246 626L127 450Z"  horiz-adv-x="492" vert-adv-y="1000"  />

      
      <glyph glyph-name="uni5f" unicode="&#x5f;" d="M312-200L0-200L0-120L312-120L312-200Z"  horiz-adv-x="312" vert-adv-y="1000"  />

      
      <glyph glyph-name="uni60" unicode="&#x60;" d="M230 565L181 531L60 673L123 721L230 565Z"  horiz-adv-x="290" vert-adv-y="1000"  />

      
      <glyph glyph-name="uni61" unicode="&#x61;" d="M96 355L75 419Q142 460 225 460Q316 460 357 415Q398 370 398 276L398 0L322 0L322 58Q269-7 178-7Q116-7 78 30.50Q40 68 40 132Q40 198 87 236.50Q134 275 210 275Q281 275 322 246Q322 322 301 355Q280 388 220 388Q159 388 96 355M206 65Q273 65 322 123L322 180Q280 210 221 210Q180 210 152.50 190.50Q125 171 125 136Q125 103 146.50 84Q168 65 206 65Z"  horiz-adv-x="460" vert-adv-y="1000"  />

      
      <glyph glyph-name="uni62" unicode="&#x62;" d="M72 42L72 700L152 700L152 407Q177 431 215.50 445.50Q254 460 292 460Q391 460 448 397Q506 335 506 232Q506 121 438 55Q370-10 256-10Q143-10 72 42M274 385Q239 385 205 368Q171 351 152 327L152 96Q198 65 260 65Q331 65 376 109Q421 153 421 226Q421 300 381 342.50Q341 385 274 385Z"  horiz-adv-x="549" vert-adv-y="1000"  />

      
      <glyph glyph-name="uni63" unicode="&#x63;" d="M418 123L456 65Q398-10 283-10Q175-10 108 54Q42 118 42 225Q42 324 107 392Q172 460 270 460Q388 460 447 401L410 338Q358 385 281 385Q218 385 172 339Q127 294 127 225Q127 152 173 109Q220 65 289 65Q367 65 418 123Z"  horiz-adv-x="488" vert-adv-y="1000"  />

      
      <glyph glyph-name="uni64" unicode="&#x64;" d="M482 0L402 0L402 57Q342-8 259-8Q160-8 101 55Q42 119 42 222Q42 327 111 393Q181 460 288 460Q356 460 402 428L402 700L482 700L482 0M274 67Q348 67 402 127L402 350Q346 385 291 385Q222 385 174 340Q127 296 127 224Q127 152 167.50 109.50Q208 67 274 67Z"  horiz-adv-x="554" vert-adv-y="1000"  />

      
      <glyph glyph-name="uni65" unicode="&#x65;" d="M427 112L452 49Q387-10 283-10Q173-10 108 54Q42 118 42 225Q42 326 104 393Q165 460 274 460Q364 460 423 402Q483 345 483 254Q483 225 478 200L132 200Q137 137 179.50 101Q222 65 289 65Q377 65 427 112M270 385Q211 385 172.50 352Q134 319 127 265L400 265Q397 321 362.50 353Q328 385 270 385Z"  horiz-adv-x="520" vert-adv-y="1000"  />

      
      <glyph glyph-name="uni66" unicode="&#x66;" d="M162 0L82 0L82 523Q82 615 123 662.50Q164 710 240 710Q319 710 360 670L332 609Q300 635 253 635Q162 635 162 514L162 450L312 450L312 375L162 375L162 0Z"  horiz-adv-x="330" vert-adv-y="1000"  />

      
      <glyph glyph-name="uni67" unicode="&#x67;" d="M10-65Q10-13 48 22Q86 57 154 72Q143 86 143 109Q143 132 155 147Q107 166 80.50 205Q54 244 54 295Q54 365 104 412Q155 460 238 460Q302 460 352 427L484 459L486 394L401 373Q422 338 422 295Q422 226 371 179Q321 133 238 133Q215 133 208 134Q203 122 203 109Q203 91 212 79Q214 79 224.50 79.50Q235 80 239 80Q344 80 406 42.50Q468 5 468-65Q468-133 406-170.50Q344-208 239-208Q133-208 71.50-171.50Q10-135 10-65M393-65Q393-28 352-6.50Q311 15 239 15Q167 15 126-6.50Q85-28 85-65Q85-102 126-122.50Q167-143 239-143Q311-143 352-123Q393-103 393-65M129 295Q129 253 159.50 225.50Q190 198 238 198Q286 198 316 225Q347 252 347 295Q347 338 317 366Q286 395 238 395Q190 395 159.50 366.50Q129 338 129 295Z"  horiz-adv-x="494" vert-adv-y="1000"  />

      
      <glyph glyph-name="uni68" unicode="&#x68;" d="M152 0L72 0L72 700L152 700L152 398Q212 458 299 458Q486 458 486 258L486 0L406 0L406 247Q406 383 280 383Q245 383 209.50 367Q174 351 152 326L152 0Z"  horiz-adv-x="549" vert-adv-y="1000"  />

      
      <glyph glyph-name="uni69" unicode="&#x69;" d="M174 0L94 0L94 450L174 450L174 0M84 619Q84 640 99 653.50Q114 667 136 667Q157 667 171 653.50Q185 640 185 619Q185 596 171 581.50Q157 567 136 567Q114 567 99 581.50Q84 596 84 619Z"  horiz-adv-x="268" vert-adv-y="1000"  />

      
      <glyph glyph-name="uni6a" unicode="&#x6a;" d="M98 450L178 450L178-33Q178-208 37-208Q-25-208-63-179L-40-115Q-12-133 19-133Q98-133 98-27L98 450M87 619Q87 640 102 653.50Q117 667 139 667Q160 667 174 653.50Q188 640 188 619Q188 596 174 581.50Q160 567 139 567Q117 567 102 581.50Q87 596 87 619Z"  horiz-adv-x="266" vert-adv-y="1000"  />

      
      <glyph glyph-name="uni6b" unicode="&#x6b;" d="M355 450L457 450L266 241L481 0L372 0L169 235L355 450M152 0L72 0L72 700L152 700L152 0Z"  horiz-adv-x="491" vert-adv-y="1000"  />

      
      <glyph glyph-name="uni6c" unicode="&#x6c;" d="M72 120L72 700L152 700L152 156Q152 67 205 67Q231 67 262 87L280 26Q237-8 174-8Q72-8 72 120Z"  horiz-adv-x="290" vert-adv-y="1000"  />

      
      <glyph glyph-name="uni6d" unicode="&#x6d;" d="M740 295L740 0L660 0L660 273Q660 383 563 383Q524 383 492.50 365.50Q461 348 445 318Q446 313 446 286L446 0L366 0L366 290Q366 333 340.50 358Q315 383 270 383Q195 383 152 322L152 0L72 0L72 450L152 450L152 393Q177 422 217.50 440Q258 458 301 458Q352 458 388 437Q424 416 437 380Q462 416 504 437Q546 458 595 458Q740 458 740 295Z"  horiz-adv-x="803" vert-adv-y="1000"  />

      
      <glyph glyph-name="uni6e" unicode="&#x6e;" d="M152 0L72 0L72 450L152 450L152 395Q177 423 217.50 440.50Q258 458 299 458Q486 458 486 260L486 0L406 0L406 245Q406 383 279 383Q203 383 152 325L152 0Z"  horiz-adv-x="549" vert-adv-y="1000"  />

      
      <glyph glyph-name="uni6f" unicode="&#x6f;" d="M108 56Q42 124 42 225Q42 327 108 393Q175 460 282 460Q389 460 455 393Q522 327 522 225Q522 123 455 56Q389-10 282-10Q176-10 108 56M171 340Q127 296 127 225Q127 154 170 110Q214 65 282 65Q350 65 393.50 109.50Q437 154 437 225Q437 294 393 340Q350 385 282 385Q214 385 171 340Z"  horiz-adv-x="565" vert-adv-y="1000"  />

      
      <glyph glyph-name="uni70" unicode="&#x70;" d="M152-200L72-200L72 450L152 450L152 397Q176 425 218 442.50Q260 460 305 460Q401 460 456 396Q513 333 513 232Q513 129 448 59Q384-10 279-10Q198-10 152 21L152-200M282 385Q202 385 152 323L152 100Q205 65 272 65Q343 65 385.50 110.50Q428 156 428 229Q428 300 389 342.50Q350 385 282 385Z"  horiz-adv-x="556" vert-adv-y="1000"  />

      
      <glyph glyph-name="uni71" unicode="&#x71;" d="M484-200L404-200L404 36Q346-10 273-10Q168-10 105 54Q42 118 42 225Q42 324 114 392Q187 460 295 460Q403 460 484 409L484-200M283 65Q318 65 351.50 80Q385 95 404 119L404 356Q352 385 294 385Q220 385 173 337Q127 291 127 221Q127 152 170 108.50Q213 65 283 65Z"  horiz-adv-x="557" vert-adv-y="1000"  />

      
      <glyph glyph-name="uni72" unicode="&#x72;" d="M152 0L72 0L72 450L152 450L152 397Q192 458 265 458Q312 458 335 441L307 366Q278 383 246 383Q185 383 152 319L152 0Z"  horiz-adv-x="340" vert-adv-y="1000"  />

      
      <glyph glyph-name="uni73" unicode="&#x73;" d="M300 122Q300 146 275 162Q250 178 214.50 188.50Q179 199 143 213Q107 227 82 257.50Q57 288 57 333Q57 390 99 425Q141 460 210 460Q309 460 365 407L327 346Q277 390 214 390Q182 390 162 374Q142 358 142 334Q142 308 167 291.50Q192 275 227.50 264.50Q263 254 299 240.50Q335 227 360 198Q385 169 385 126Q385 59 335 24Q286-10 211-10Q158-10 110 12Q61 35 45 60L90 117Q110 94 148 77Q188 60 220 60Q255 60 277.50 76.50Q300 93 300 122Z"  horiz-adv-x="430" vert-adv-y="1000"  />

      
      <glyph glyph-name="uni74" unicode="&#x74;" d="M62 171L62 575L142 575L142 450L307 450L307 375L142 375L142 179Q142 67 222 67Q261 67 293 92L318 30Q271-8 203-8Q130-8 96 36Q62 80 62 171Z"  horiz-adv-x="353" vert-adv-y="1000"  />

      
      <glyph glyph-name="uni75" unicode="&#x75;" d="M387 450L467 450L467 0L387 0L387 64Q324-10 228-10Q149-10 105.50 38.50Q62 87 62 182L62 450L142 450L142 200Q142 65 258 65Q294 65 329.50 83.50Q365 102 387 132L387 450Z"  horiz-adv-x="540" vert-adv-y="1000"  />

      
      <glyph glyph-name="uni76" unicode="&#x76;" d="M386 450L471 450L272-4L214-4L5 450L99 450L208 207Q227 165 246 107Q260 154 283 209L386 450Z"  horiz-adv-x="476" vert-adv-y="1000"  />

      
      <glyph glyph-name="uni77" unicode="&#x77;" d="M615 450L696 450L552-4L482-4L370 289Q362 310 353 344Q344 311 334 286L225-4L159-4L10 450L96 450L184 166Q186 159 189.50 146Q193 133 196.50 119.50Q200 106 201 103Q219 165 220 166L322 450L391 450L494 167L515 102Q522 136 533 171L615 450Z"  horiz-adv-x="706" vert-adv-y="1000"  />

      
      <glyph glyph-name="uni78" unicode="&#x78;" d="M379 450L472 450L311 233L482 0L384 0L252 182L118 0L25 0L195 229L35 450L133 450L255 280L379 450Z"  horiz-adv-x="507" vert-adv-y="1000"  />

      
      <glyph glyph-name="uni79" unicode="&#x79;" d="M390 450L481 450L301 0Q252-119 216-158Q178-200 129-200Q85-200 44-172L70-111Q102-126 120-126Q148-126 170.50-102Q193-78 216-24L226 0L10 450L106 450L238 164Q242 157 265 96Q274 129 286 165L390 450Z"  horiz-adv-x="491" vert-adv-y="1000"  />

      
      <glyph glyph-name="uni7a" unicode="&#x7a;" d="M326 375L60 375L60 450L440 450L440 394L158 75L435 75L435 0L45 0L45 56L326 375Z"  horiz-adv-x="485" vert-adv-y="1000"  />

      
      <glyph glyph-name="uni7b" unicode="&#x7b;" d="M110-65L110 92Q110 143 84.50 167Q59 191 20 190L20 260Q59 260 84.50 287Q110 314 110 370L110 509Q110 582 142 616Q174 650 248 650L315 650L315 575L267 575Q224 575 207 554Q190 533 190 482L190 340Q190 292 169.50 261.50Q149 231 115 226Q190 217 190 112L190-33Q190-81 210-103Q230-125 273-125L315-125L315-200L244-200Q176-200 143-167.50Q110-135 110-65Z"  horiz-adv-x="335" vert-adv-y="1000"  />

      
      <glyph glyph-name="uni7c" unicode="&#x7c;" d="M205 0L125 0L125 700L205 700L205 0Z"  horiz-adv-x="330" vert-adv-y="1000"  />

      
      <glyph glyph-name="uni7d" unicode="&#x7d;" d="M225 92L225-65Q225-135 191.50-167.50Q158-200 90-200L20-200L20-125L62-125Q105-125 125-103Q145-81 145-33L145 112Q145 217 220 226Q186 231 165.50 261.50Q145 292 145 340L145 482Q145 533 127.50 554Q110 575 68 575L20 575L20 650L87 650Q161 650 193 616Q225 582 225 509L225 370Q225 314 250.50 287Q276 260 315 260L315 190Q276 191 250.50 167Q225 143 225 92Z"  horiz-adv-x="335" vert-adv-y="1000"  />

      
      <glyph glyph-name="uni7e" unicode="&#x7e;" d="M86 307L50 358Q117 430 186 430Q228 430 304 394Q382 359 418 359Q464 359 509 404L541 349Q478 289 417 289Q377 289 301 324Q226 360 190 360Q142 360 86 307Z"  horiz-adv-x="592" vert-adv-y="1000"  />

      
      <glyph glyph-name="unia1" unicode="&#xa1;" d="M113 242L198 242L198-243L113-243L113 242M211 403Q211 381 195 365.50Q179 350 153 350Q132 350 116 366Q100 382 100 403Q100 427 115 443.50Q130 460 153 460Q179 460 195 443.50Q211 427 211 403Z"  horiz-adv-x="310" vert-adv-y="1000"  />

      
      <glyph glyph-name="unia2" unicode="&#xa2;" d="M465 123L503 65Q454 3 360-8L360-120L280-120L280-6Q192 8 140.50 70Q89 132 89 225Q89 314 142 379Q194 444 280 457L280 566L360 566L360 458Q444 449 494 401L457 338Q405 385 328 385Q265 385 219 339Q174 294 174 225Q174 152 220 109Q267 65 336 65Q414 65 465 123Z"  horiz-adv-x="592" vert-adv-y="1000"  />

      
      <glyph glyph-name="unia3" unicode="&#xa3;" d="M173 275L75 275L75 340L154 340Q145 360 137 376Q126 398 118 418Q100 463 100 514Q100 596 160 651Q220 708 316 708Q438 708 507 632L462 570Q401 628 318 628Q262 628 226 593.50Q190 559 190 509Q190 476 199 448Q206 430 224.50 391.50Q243 353 247 340L409 340L409 275L259 275L259 266Q259 195 205 127Q238 124 307 100Q376 76 413 76Q475 76 522 122L558 60Q495-4 411-4Q373-4 297 22Q221 48 183 48Q128 48 72-7L38 56Q76 96 122 116Q174 181 174 251Q174 270 173 275Z"  horiz-adv-x="592" vert-adv-y="1000"  />

      
      <glyph glyph-name="unia4" unicode="&#xa4;" d="M110 210Q69 269 69 345Q69 421 110 480L27 565L77 615L160 530Q218 572 296 572Q372 572 431 531L519 618L569 568L481 481Q523 420 523 345Q523 268 481 210L566 125L517 76L432 160Q373 118 296 118Q218 118 160 160L72 72L23 121L110 210M144 345Q144 280 185 233Q227 188 296 188Q366 188 407 232.50Q448 277 448 345Q448 414 406.50 458Q365 502 296 502Q227 502 185 457Q144 411 144 345Z"  horiz-adv-x="592" vert-adv-y="1000"  />

      
      <glyph glyph-name="unia5" unicode="&#xa5;" d="M252 299L68 299L68 364L214 364L19 700L117 700L298 380L480 700L573 700L375 364L522 364L522 299L337 299L337 194L522 194L522 129L337 129L337 0L252 0L252 129L68 129L68 194L252 194L252 299Z"  horiz-adv-x="592" vert-adv-y="1000"  />

      
      <glyph glyph-name="unia6" unicode="&#xa6;" d="M205 700L205 440L125 440L125 700L205 700M125 0L125 260L205 260L205 0L125 0Z"  horiz-adv-x="330" vert-adv-y="1000"  />

      
      <glyph glyph-name="unia7" unicode="&#xa7;" d="M65 249Q65 313 100 360Q135 407 197 424Q115 470 115 559Q115 621 159 660.50Q203 700 276 700Q360 700 411 635L363 581L342 603Q315 625 278 625Q243 625 219 601.50Q195 578 195 544Q195 476 282 432Q362 426 410.50 375.50Q459 325 459 249Q459 185 423 137.50Q387 90 325 74Q407 28 407-59Q407-121 363-160.50Q319-200 246-200Q160-200 110-135L158-81L179-102Q202-125 244-125Q279-125 303-101.50Q327-78 327-44Q327 23 238 67Q159 74 112 124.50Q65 175 65 249M178 168.50Q178 168.50 194.50 152.25Q211 136 262 136Q313 136 346 168.50Q379 201 379 249Q379 297 345.50 330Q312 363 262 363Q212 363 178.50 330Q145 297 145 249Q145 201 178 168.50Z"  horiz-adv-x="524" vert-adv-y="1000"  />

      
      <glyph glyph-name="unia8" unicode="&#xa8;" d="M60 610Q60 631 73 643.50Q86 656 107 656Q125 656 138 643Q151 630 151 610Q151 587 138.50 573.50Q126 560 107 560Q86 560 73 573.50Q60 587 60 610M263 610Q263 630 277 643Q291 656 311 656Q329 656 342 643Q355 630 355 610Q355 587 342.50 573.50Q330 560 311 560Q290 560 276.50 573.50Q263 587 263 610Z"  horiz-adv-x="415" vert-adv-y="1000"  />

      
      <glyph glyph-name="unia9" unicode="&#xa9;" d="M200-87Q75 40 75 221Q75 402 200 529Q324 655 509 655Q694 655 818 529Q943 402 943 221Q943 40 818-87Q694-213 509-213Q324-213 200-87M509-143Q665-143 768-37Q873 69 873 220Q873 372 768 478Q664 585 509 585Q353 585 249 478Q145 371 145 220Q145 69 249-37Q352-143 509-143M652 123L690 65Q632-10 517-10Q409-10 342 54Q276 118 276 225Q276 324 341 392Q406 460 504 460Q622 460 681 401L644 338Q592 385 515 385Q452 385 406 339Q361 294 361 225Q361 152 407 109Q454 65 523 65Q601 65 652 123Z"  horiz-adv-x="1018" vert-adv-y="1000"  />

      
      <glyph glyph-name="uniaa" unicode="&#xaa;" d="M114 573L84 620Q137 658 214 658Q278 658 316.50 624.50Q355 591 355 529L355 325L285 325L285 372Q243 321 161 321Q112 321 81 350.50Q50 380 50 424Q50 476 83 504Q116 532 176 532Q242 532 285 507L285 512Q285 598 201 598Q149 598 114 573M195 380Q242 380 285 416L285 462Q242 482 199 482Q166 482 145.50 468.50Q125 455 125 431Q125 408 144 394Q163 380 195 380Z"  horiz-adv-x="425" vert-adv-y="1000"  />

      
      <glyph glyph-name="uniab" unicode="&#xab;" d="M474 77L420 30L235 248L235 252L423 468L475 422L327 250L474 77M284 77L230 30L45 248L45 252L233 468L285 422L137 250L284 77Z"  horiz-adv-x="530" vert-adv-y="1000"  />

      
      <glyph glyph-name="uniac" unicode="&#xac;" d="M463 325L59 325L59 395L533 395L533 194L463 194L463 325Z"  horiz-adv-x="592" vert-adv-y="1000"  />

      
      <glyph glyph-name="uniad" unicode="&#xad;" d="M314 235L75 235L75 310L314 310L314 235Z"  horiz-adv-x="389" vert-adv-y="1000"  />

      
      <glyph glyph-name="uniae" unicode="&#xae;" d="M50 497Q50 604 126 679Q202 755 310 755Q416 755 492 679Q568 604 568 497Q568 388 492 312Q417 236 310 236Q201 236 125 312Q50 388 50 497M309 690Q309 690 269 690Q229 690 172 633Q115 576 115 496Q115 416 172 359Q229 302 309 302Q389 302 446 359Q503 416 503 496Q503 576 446 633Q389 690 309 690M266 461L266 360L211 360L211 640L309 640Q417 640 417 553Q417 524 400.50 502Q384 480 357 472L431 360L366 360L303 461L266 461M302 600L266 600L266 501L305 501Q329 501 345.50 515.50Q362 530 362 552Q362 574 346.50 587Q331 600 302 600Z"  horiz-adv-x="618" vert-adv-y="1000"  />

      
      <glyph glyph-name="uniaf" unicode="&#xaf;" d="M324 580L60 580L60 645L324 645L324 580Z"  horiz-adv-x="384" vert-adv-y="1000"  />

      
      <glyph glyph-name="unib0" unicode="&#xb0;" d="M50 569Q50 635 95 680Q140 725 204 725Q268 725 314 681Q360 638 360 572Q360 507 314 461Q269 415 204 415Q141 415 95 459Q50 504 50 569M290 570Q290 604 265 629.50Q240 655 205 655Q170 655 145 630Q120 605 120 570Q120 535 145 510Q170 485 205 485Q240 485 265 510Q290 535 290 570Z"  horiz-adv-x="410" vert-adv-y="1000"  />

      
      <glyph glyph-name="unib1" unicode="&#xb1;" d="M257 410L69 410L69 480L257 480L257 671L332 671L332 480L523 480L523 410L332 410L332 287L257 287L257 410M523 165L69 165L69 235L523 235L523 165Z"  horiz-adv-x="592" vert-adv-y="1000"  />

      
      <glyph glyph-name="unib2" unicode="&#xb2;" d="M319 350L35 350L35 401L60 417L89 436Q101 446 116 456Q138 472 145 477Q146 478 166.50 496Q187 514 194 521Q227 561 227 589Q227 614 211 629Q195 644 166 644Q141 644 121 627.50Q101 611 97 586L38 607Q45 651 82 677.50Q119 704 173 704Q234 704 267.50 674.50Q301 645 301 597Q301 531 229 476Q177 434 127 410L319 410L319 350Z"  horiz-adv-x="349" vert-adv-y="1000"  />

      
      <glyph glyph-name="unib3" unicode="&#xb3;" d="M169 344Q62 344 25 414L66 452Q78 429 104 415.50Q130 402 158 402Q193 402 214 416.50Q235 431 235 455Q235 476 216 489Q197 502 164 502L130 502L130 552L160 552Q186 552 204 566.50Q222 581 222 603Q222 624 205 636Q188 648 159 648Q102 648 70 603L36 641Q72 705 173 705Q230 705 263.50 681.50Q297 658 297 617Q297 552 223 533L223 532Q263 529 286.50 505.50Q310 482 310 449Q310 402 270 373Q230 344 169 344Z"  horiz-adv-x="350" vert-adv-y="1000"  />

      
      <glyph glyph-name="unib4" unicode="&#xb4;" d="M166 722L228 674L108 531L60 565L166 722Z"  horiz-adv-x="288" vert-adv-y="1000"  />

      
      <glyph glyph-name="unib5" unicode="&#xb5;" d="M392 450L472 450L472 0L392 0L392 64Q329-10 233-10Q185-10 147 10L147-200L67-200L67 450L147 450L147 200Q147 65 263 65Q299 65 334.50 83.50Q370 102 392 132L392 450Z"  horiz-adv-x="545" vert-adv-y="1000"  />

      
      <glyph glyph-name="uni03BC" unicode="&#x03BC;" d="M392 450L472 450L472 0L392 0L392 64Q329-10 233-10Q185-10 147 10L147-200L67-200L67 450L147 450L147 200Q147 65 263 65Q299 65 334.50 83.50Q370 102 392 132L392 450Z"  horiz-adv-x="545" vert-adv-y="1000"  />

      
      <glyph glyph-name="unib6" unicode="&#xb6;" d="M45 481Q45 582 104 641Q163 700 259 700L431 700L431 625L337 625L337-13Q337-208 172-208Q102-208 58-167L91-109Q122-133 166-133Q216-133 236.50-102Q257-71 257-10L257 263Q167 265 106 323Q45 381 45 481Z"  horiz-adv-x="461" vert-adv-y="1000"  />

      
      <glyph glyph-name="unib7" unicode="&#xb7;" d="M57 299Q57 320 73.50 336Q90 352 114 352Q135 352 151 336Q167 320 167 299Q167 275 152 258.50Q137 242 114 242Q90 242 73.50 258.50Q57 275 57 299Z"  horiz-adv-x="225" vert-adv-y="1000"  />

      
      <glyph glyph-name="unib8" unicode="&#xb8;" d="M60-171L84-132Q119-155 155-155Q180-155 195.50-145.50Q211-136 211-119Q211-80 153-80L147-80L147 0L190 0L190-43Q291-49 291-123Q291-160 257.50-182.50Q224-205 165-205Q110-205 60-171Z"  horiz-adv-x="351" vert-adv-y="1000"  />

      
      <glyph glyph-name="unib9" unicode="&#xb9;" d="M49 582L22 630L127 701L177 701L177 350L107 350L107 619L49 582Z"  horiz-adv-x="252" vert-adv-y="1000"  />

      
      <glyph glyph-name="uniba" unicode="&#xba;" d="M107 366Q55 414 55 489Q55 564 106 611Q159 658 238 658Q317 658 369 611Q421 565 421 489Q421 414 369 366Q316 319 238 319Q160 319 107 366M130 489Q130 443 161.50 413.50Q193 384 238 384Q284 384 315 413.50Q346 443 346 489Q346 534 315 563.50Q284 593 238 593Q192 593 161 563.50Q130 534 130 489Z"  horiz-adv-x="476" vert-adv-y="1000"  />

      
      <glyph glyph-name="unibb" unicode="&#xbb;" d="M485 252L485 248L300 30L246 77L393 250L245 422L297 468L485 252M295 252L295 248L110 30L56 77L203 250L55 422L107 468L295 252Z"  horiz-adv-x="530" vert-adv-y="1000"  />

      
      <glyph glyph-name="unibc" unicode="&#xbc;" d="M594 0L529 0L529 79L335 79L335 125L503 350L570 350L407 134L529 134L529 225L594 225L594 134L653 134L653 79L594 79L594 0M97-10L50 23L564 710L610 676L97-10M59 582L32 630L137 701L187 701L187 350L117 350L117 619L59 582Z"  horiz-adv-x="673" vert-adv-y="1000"  />

      
      <glyph glyph-name="unibd" unicode="&#xbd;" d="M649 0L365 0L365 51L390 67L419 86Q431 96 446 106Q468 122 475 127Q476 128 496.50 146Q517 164 524 171Q557 211 557 239Q557 264 541 279Q525 294 496 294Q471 294 451 277.50Q431 261 427 236L368 257Q375 301 412 327.50Q449 354 503 354Q564 354 597.50 324.50Q631 295 631 247Q631 181 559 126Q507 84 457 60L649 60L649 0M77-10L30 23L544 710L590 676L77-10M59 582L32 630L137 701L187 701L187 350L117 350L117 619L59 582Z"  horiz-adv-x="689" vert-adv-y="1000"  />

      
      <glyph glyph-name="unibe" unicode="&#xbe;" d="M174 344Q67 344 30 414L71 452Q83 429 109 415.50Q135 402 163 402Q198 402 219 416.50Q240 431 240 455Q240 476 221 489Q202 502 169 502L135 502L135 552L165 552Q191 552 209 566.50Q227 581 227 603Q227 624 210 636Q193 648 164 648Q106 648 75 603L41 641Q77 705 178 705Q235 705 268.50 681.50Q302 658 302 617Q302 552 228 533L228 532Q268 529 291.50 505.50Q315 482 315 449Q315 402 275 373Q235 344 174 344M644 0L579 0L579 79L385 79L385 125L553 350L620 350L457 134L579 134L579 225L644 225L644 134L703 134L703 79L644 79L644 0M157-10L110 23L624 710L670 676L157-10Z"  horiz-adv-x="723" vert-adv-y="1000"  />

      
      <glyph glyph-name="unibf" unicode="&#xbf;" d="M116-63Q116-109 150.50-141Q185-173 238-173Q324-173 378-99L426-152Q398-198 346-225.50Q294-253 233-253Q140-253 84-203Q30-154 30-80Q30-33 46 3Q50 13 55.50 22Q61 31 67.50 39.50Q74 48 79 54Q84 60 93 68Q102 76 106.50 80Q111 84 121.50 92.50Q132 101 136 104Q140 108 152.50 117.50Q165 127 169.50 131Q174 135 184 144Q194 153 198 158.50Q202 164 209 173.50Q216 183 218 190.50Q220 198 222.50 208.50Q225 219 224.50 230Q224 241 222 254L294 255Q312 160 247 106Q237 98 213.50 80.50Q190 63 177 51.50Q164 40 147.50 22Q131 4 123.50-17Q116-38 116-63M314 403Q314 381 298 365.50Q282 350 256 350Q235 350 219 366Q203 382 203 403Q203 427 218 443.50Q233 460 256 460Q282 460 298 443.50Q314 427 314 403Z"  horiz-adv-x="466" vert-adv-y="1000"  />

      
      <glyph glyph-name="unic0" unicode="&#xc0;" d="M101 0L15 0L316 704L389 704L690 0L599 0L509 212L190 212L101 0M476 292L350 591L224 292L476 292M418 783L395 735L193 819L223 887L418 783Z"  horiz-adv-x="705" vert-adv-y="1000"  />

      
      <glyph glyph-name="unic1" unicode="&#xc1;" d="M101 0L15 0L316 704L389 704L690 0L599 0L509 212L190 212L101 0M476 292L350 591L224 292L476 292M483 887L513 819L311 735L288 783L483 887Z"  horiz-adv-x="705" vert-adv-y="1000"  />

      
      <glyph glyph-name="unic2" unicode="&#xc2;" d="M101 0L15 0L316 704L389 704L690 0L599 0L509 212L190 212L101 0M476 292L350 591L224 292L476 292M206 733L177 778L348 882L352 882L526 779L493 733L350 809L206 733Z"  horiz-adv-x="705" vert-adv-y="1000"  />

      
      <glyph glyph-name="unic3" unicode="&#xc3;" d="M101 0L15 0L316 704L389 704L690 0L599 0L509 212L190 212L101 0M476 292L350 591L224 292L476 292M204 761L178 811Q222 858 278 858Q307 858 355 838Q403 818 428 818Q473 818 503 850L525 800Q486 748 423 748Q398 748 347 768Q298 788 270 788Q237 788 204 761Z"  horiz-adv-x="705" vert-adv-y="1000"  />

      
      <glyph glyph-name="unic4" unicode="&#xc4;" d="M101 0L15 0L316 704L389 704L690 0L599 0L509 212L190 212L101 0M476 292L350 591L224 292L476 292M182 813Q182 833 197.50 845.50Q213 858 237 858Q259 858 274 845.50Q289 833 289 813Q289 792 274 778.50Q259 765 237 765Q213 765 197.50 778Q182 791 182 813M414 813Q414 833 430 845.50Q446 858 470 858Q492 858 506.50 845.50Q521 833 521 813Q521 792 506.50 778.50Q492 765 470 765Q446 765 430 778.50Q414 792 414 813Z"  horiz-adv-x="705" vert-adv-y="1000"  />

      
      <glyph glyph-name="unic5" unicode="&#xc5;" d="M227 792Q227 839 260.50 863.50Q294 888 351 888Q409 888 443 863.50Q477 839 477 792Q477 716 392 696L690 0L599 0L509 212L190 212L101 0L15 0L312 696Q273 704 250 729.50Q227 755 227 792M476 292L350 591L224 292L476 292M287 792Q287 766 304.50 751.50Q322 737 352 737Q381 737 399 751.50Q417 766 417 792Q417 843 352 843Q287 843 287 792Z"  horiz-adv-x="705" vert-adv-y="1000"  />

      
      <glyph glyph-name="unic6" unicode="&#xc6;" d="M488 700L881 700L881 620L571 620L571 394L851 394L851 314L571 314L571 80L891 80L891 0L486 0L486 216L236 216L84 0L-15 0L488 700M486 296L486 571L292 296L486 296Z"  horiz-adv-x="956" vert-adv-y="1000"  />

      
      <glyph glyph-name="unic7" unicode="&#xc7;" d="M276-169L302-127Q342-155 376-155Q401-155 416.50-145.50Q432-136 432-119Q432-80 374-80L368-80L368-8Q224 2 137 100Q50 197 50 350Q50 506 144 607Q238 710 399 710Q532 710 612 642L573 578Q503 630 400 630Q286 630 213 552Q140 475 140 350Q140 225 215 147Q292 70 413 70Q515 70 592 132L626 68Q593 33 535 12.50Q477-8 411-10L411-43Q517-49 517-123Q517-160 484-182.50Q451-205 394-205Q330-205 276-169Z"  horiz-adv-x="656" vert-adv-y="1000"  />

      
      <glyph glyph-name="unic8" unicode="&#xc8;" d="M510 0L105 0L105 700L500 700L500 620L190 620L190 394L470 394L470 314L190 314L190 80L510 80L510 0M383 783L360 735L158 819L188 887L383 783Z"  horiz-adv-x="575" vert-adv-y="1000"  />

      
      <glyph glyph-name="unic9" unicode="&#xc9;" d="M510 0L105 0L105 700L500 700L500 620L190 620L190 394L470 394L470 314L190 314L190 80L510 80L510 0M423 887L453 819L251 735L228 783L423 887Z"  horiz-adv-x="575" vert-adv-y="1000"  />

      
      <glyph glyph-name="unica" unicode="&#xca;" d="M510 0L105 0L105 700L500 700L500 620L190 620L190 394L470 394L470 314L190 314L190 80L510 80L510 0M158 733L129 778L300 882L304 882L478 779L445 733L302 809L158 733Z"  horiz-adv-x="575" vert-adv-y="1000"  />

      
      <glyph glyph-name="unicb" unicode="&#xcb;" d="M136 813Q136 833 151.50 845.50Q167 858 191 858Q213 858 228 845.50Q243 833 243 813Q243 792 228 778.50Q213 765 191 765Q167 765 151.50 778Q136 791 136 813M368 813Q368 833 384 845.50Q400 858 424 858Q446 858 460.50 845.50Q475 833 475 813Q475 792 460.50 778.50Q446 765 424 765Q400 765 384 778.50Q368 792 368 813M510 0L105 0L105 700L500 700L500 620L190 620L190 394L470 394L470 314L190 314L190 80L510 80L510 0Z"  horiz-adv-x="575" vert-adv-y="1000"  />

      
      <glyph glyph-name="unicc" unicode="&#xcc;" d="M210 0L125 0L125 700L210 700L210 0M223 783L200 735L-2 819L28 887L223 783Z"  horiz-adv-x="335" vert-adv-y="1000"  />

      
      <glyph glyph-name="unicd" unicode="&#xcd;" d="M210 0L125 0L125 700L210 700L210 0M308 887L338 819L136 735L113 783L308 887Z"  horiz-adv-x="335" vert-adv-y="1000"  />

      
      <glyph glyph-name="unice" unicode="&#xce;" d="M22 733L-7 778L164 882L168 882L342 779L309 733L166 809L22 733M210 0L125 0L125 700L210 700L210 0Z"  horiz-adv-x="335" vert-adv-y="1000"  />

      
      <glyph glyph-name="unicf" unicode="&#xcf;" d="M-2 813Q-2 833 13.50 845.50Q29 858 53 858Q75 858 90 845.50Q105 833 105 813Q105 792 90 778.50Q75 765 53 765Q29 765 13.50 778Q-2 791-2 813M230 813Q230 833 246 845.50Q262 858 286 858Q308 858 322.50 845.50Q337 833 337 813Q337 792 322.50 778.50Q308 765 286 765Q262 765 246 778.50Q230 792 230 813M210 0L125 0L125 700L210 700L210 0Z"  horiz-adv-x="335" vert-adv-y="1000"  />

      
      <glyph glyph-name="unid0" unicode="&#xd0;" d="M120 316L10 316L10 391L120 391L120 700L132 700Q175 700 217 701Q303 703 311 703Q413 703 490 675.50Q567 648 613 599.50Q659 551 681.50 490.50Q704 430 704 359Q704 202 599 100Q495-2 303-2Q261-2 221-1Q182 0 131 0L120 0L120 316M309 623Q291 623 254.50 621.50Q218 620 205 620L205 391L393 391L393 316L205 316L205 80Q231 80 255.50 79.50Q280 79 292 78.50Q304 78 306 78Q451 78 533 155Q614 233 614 359Q614 477 535 550Q456 623 309 623Z"  horiz-adv-x="754" vert-adv-y="1000"  />

      
      <glyph glyph-name="unid1" unicode="&#xd1;" d="M690 700L690 0L622 0L185 550L185 0L105 0L105 700L173 700L610 148L610 700L690 700M256 761L230 811Q274 858 330 858Q359 858 407 838Q455 818 480 818Q525 818 555 850L577 800Q538 748 475 748Q450 748 399 768Q350 788 322 788Q289 788 256 761Z"  horiz-adv-x="795" vert-adv-y="1000"  />

      
      <glyph glyph-name="unid2" unicode="&#xd2;" d="M50 350Q50 502 151 606Q252 710 407 710Q561 710 662 609Q764 508 764 350Q764 196 662 92Q560-10 407-10Q254-10 151 91Q50 192 50 350M140 350Q140 232 217 150Q294 70 407 70Q525 70 599 150Q674 230 674 350Q674 470 597 550Q520 630 407 630Q292 630 216 551Q140 472 140 350M503 783L480 735L278 819L308 887L503 783Z"  horiz-adv-x="814" vert-adv-y="1000"  />

      
      <glyph glyph-name="unid3" unicode="&#xd3;" d="M50 350Q50 502 151 606Q252 710 407 710Q561 710 662 609Q764 508 764 350Q764 196 662 92Q560-10 407-10Q254-10 151 91Q50 192 50 350M140 350Q140 232 217 150Q294 70 407 70Q525 70 599 150Q674 230 674 350Q674 470 597 550Q520 630 407 630Q292 630 216 551Q140 472 140 350M533 887L563 819L361 735L338 783L533 887Z"  horiz-adv-x="814" vert-adv-y="1000"  />

      
      <glyph glyph-name="unid4" unicode="&#xd4;" d="M50 350Q50 502 151 606Q252 710 407 710Q561 710 662 609Q764 508 764 350Q764 196 662 92Q560-10 407-10Q254-10 151 91Q50 192 50 350M140 350Q140 232 217 150Q294 70 407 70Q525 70 599 150Q674 230 674 350Q674 470 597 550Q520 630 407 630Q292 630 216 551Q140 472 140 350M265 733L236 778L407 882L411 882L585 779L552 733L409 809L265 733Z"  horiz-adv-x="814" vert-adv-y="1000"  />

      
      <glyph glyph-name="unid5" unicode="&#xd5;" d="M50 350Q50 502 151 606Q252 710 407 710Q561 710 662 609Q764 508 764 350Q764 196 662 92Q560-10 407-10Q254-10 151 91Q50 192 50 350M140 350Q140 232 217 150Q294 70 407 70Q525 70 599 150Q674 230 674 350Q674 470 597 550Q520 630 407 630Q292 630 216 551Q140 472 140 350M258 761L232 811Q276 858 332 858Q361 858 409 838Q457 818 482 818Q527 818 557 850L579 800Q540 748 477 748Q452 748 401 768Q352 788 324 788Q291 788 258 761Z"  horiz-adv-x="814" vert-adv-y="1000"  />

      
      <glyph glyph-name="unid6" unicode="&#xd6;" d="M50 350Q50 502 151 606Q252 710 407 710Q561 710 662 609Q764 508 764 350Q764 196 662 92Q560-10 407-10Q254-10 151 91Q50 192 50 350M140 350Q140 232 217 150Q294 70 407 70Q525 70 599 150Q674 230 674 350Q674 470 597 550Q520 630 407 630Q292 630 216 551Q140 472 140 350M236 813Q236 833 251.50 845.50Q267 858 291 858Q313 858 328 845.50Q343 833 343 813Q343 792 328 778.50Q313 765 291 765Q267 765 251.50 778Q236 791 236 813M468 813Q468 833 484 845.50Q500 858 524 858Q546 858 560.50 845.50Q575 833 575 813Q575 792 560.50 778.50Q546 765 524 765Q500 765 484 778.50Q468 792 468 813Z"  horiz-adv-x="814" vert-adv-y="1000"  />

      
      <glyph glyph-name="unid7" unicode="&#xd7;" d="M246 360L111 495L161 545L296 409L431 545L480 495L345 360L482 224L432 174L296 310L159 174L110 224L246 360Z"  horiz-adv-x="592" vert-adv-y="1000"  />

      
      <glyph glyph-name="unid8" unicode="&#xd8;" d="M50 350Q50 502 151 606Q252 710 407 710Q541 710 638 630L682 673L728 626L685 584Q764 489 764 350Q764 196 662 92Q560-10 407-10Q264-10 167 77L122 33L75 81L121 126Q50 220 50 350M674 350Q674 447 621 521L229 138Q303 70 407 70Q525 70 599 150Q674 230 674 350M140 350Q140 259 186 189L576 570Q506 630 407 630Q292 630 216 551Q140 472 140 350Z"  horiz-adv-x="814" vert-adv-y="1000"  />

      
      <glyph glyph-name="unid9" unicode="&#xd9;" d="M571 700L656 700L656 292Q656 141 579 66Q502-9 385-9Q253-9 174 70Q95 149 95 299L95 700L180 700L180 315Q180 200 233.50 135.50Q287 71 385 71Q474 71 522.50 132Q571 193 571 309L571 700M458 783L435 735L233 819L263 887L458 783Z"  horiz-adv-x="751" vert-adv-y="1000"  />

      
      <glyph glyph-name="unida" unicode="&#xda;" d="M571 700L656 700L656 292Q656 141 579 66Q502-9 385-9Q253-9 174 70Q95 149 95 299L95 700L180 700L180 315Q180 200 233.50 135.50Q287 71 385 71Q474 71 522.50 132Q571 193 571 309L571 700M498 887L528 819L326 735L303 783L498 887Z"  horiz-adv-x="751" vert-adv-y="1000"  />

      
      <glyph glyph-name="unidb" unicode="&#xdb;" d="M571 700L656 700L656 292Q656 141 579 66Q502-9 385-9Q253-9 174 70Q95 149 95 299L95 700L180 700L180 315Q180 200 233.50 135.50Q287 71 385 71Q474 71 522.50 132Q571 193 571 309L571 700M229 733L200 778L371 882L375 882L549 779L516 733L373 809L229 733Z"  horiz-adv-x="751" vert-adv-y="1000"  />

      
      <glyph glyph-name="unidc" unicode="&#xdc;" d="M201 813Q201 833 216.50 845.50Q232 858 256 858Q278 858 293 845.50Q308 833 308 813Q308 792 293 778.50Q278 765 256 765Q232 765 216.50 778Q201 791 201 813M433 813Q433 833 449 845.50Q465 858 489 858Q511 858 525.50 845.50Q540 833 540 813Q540 792 525.50 778.50Q511 765 489 765Q465 765 449 778.50Q433 792 433 813M571 700L656 700L656 292Q656 141 579 66Q502-9 385-9Q253-9 174 70Q95 149 95 299L95 700L180 700L180 315Q180 200 233.50 135.50Q287 71 385 71Q474 71 522.50 132Q571 193 571 309L571 700Z"  horiz-adv-x="751" vert-adv-y="1000"  />

      
      <glyph glyph-name="unidd" unicode="&#xdd;" d="M501 700L594 700L343 300L343 0L258 0L258 300L10 700L108 700L304 380L501 700M428 887L458 819L256 735L233 783L428 887Z"  horiz-adv-x="604" vert-adv-y="1000"  />

      
      <glyph glyph-name="unide" unicode="&#xde;" d="M190 164L190 0L105 0L105 700L190 700L190 595Q215 595 240 596Q265 597 288 597Q426 597 486 535Q547 474 547 380Q547 288 481 224Q417 160 295 160Q231 160 190 164M289 517Q259 517 190 514L190 245Q253 240 292 240Q369 240 413 277.50Q457 315 457 381Q457 446 414.50 481.50Q372 517 289 517Z"  horiz-adv-x="597" vert-adv-y="1000"  />

      
      <glyph glyph-name="unidf" unicode="&#xdf;" d="M421 154Q421 183 402 207.50Q383 232 356.50 249.50Q330 267 303 285Q276 303 257 329.50Q238 356 238 388Q238 450 285 489Q332 528 332 569Q332 598 309 616.50Q286 635 252 635Q202 635 178.50 602Q155 569 155 498L155-2L75-2L75 508Q75 710 263 710Q330 710 373 673Q417 637 417 583Q417 556 407.50 534Q398 512 384 497.50Q370 483 356 469.50Q342 456 332.50 439Q323 422 323 403Q323 356 387 314Q414 298 429 287.50Q444 277 465.50 256.50Q487 236 496.50 210Q506 184 506 152Q506 83 462 36Q419-10 352-10Q259-10 209 55L236 116Q280 65 333 65Q370 65 395.50 89.50Q421 114 421 154Z"  horiz-adv-x="546" vert-adv-y="1000"  />

      
      <glyph glyph-name="unie0" unicode="&#xe0;" d="M96 355L75 419Q142 460 225 460Q316 460 357 415Q398 370 398 276L398 0L322 0L322 58Q269-7 178-7Q116-7 78 30.50Q40 68 40 132Q40 198 87 236.50Q134 275 210 275Q281 275 322 246Q322 322 301 355Q280 388 220 388Q159 388 96 355M206 65Q273 65 322 123L322 180Q280 210 221 210Q180 210 152.50 190.50Q125 171 125 136Q125 103 146.50 84Q168 65 206 65M300 565L251 531L130 673L193 721L300 565Z"  horiz-adv-x="460" vert-adv-y="1000"  />

      
      <glyph glyph-name="unie1" unicode="&#xe1;" d="M96 355L75 419Q142 460 225 460Q316 460 357 415Q398 370 398 276L398 0L322 0L322 58Q269-7 178-7Q116-7 78 30.50Q40 68 40 132Q40 198 87 236.50Q134 275 210 275Q281 275 322 246Q322 322 301 355Q280 388 220 388Q159 388 96 355M206 65Q273 65 322 123L322 180Q280 210 221 210Q180 210 152.50 190.50Q125 171 125 136Q125 103 146.50 84Q168 65 206 65M273 722L335 674L215 531L167 565L273 722Z"  horiz-adv-x="460" vert-adv-y="1000"  />

      
      <glyph glyph-name="unie2" unicode="&#xe2;" d="M96 355L75 419Q142 460 225 460Q316 460 357 415Q398 370 398 276L398 0L322 0L322 58Q269-7 178-7Q116-7 78 30.50Q40 68 40 132Q40 198 87 236.50Q134 275 210 275Q281 275 322 246Q322 322 301 355Q280 388 220 388Q159 388 96 355M206 65Q273 65 322 123L322 180Q280 210 221 210Q180 210 152.50 190.50Q125 171 125 136Q125 103 146.50 84Q168 65 206 65M228 707L232 707L371 574L333 526L229 617L125 527L87 574L228 707Z"  horiz-adv-x="460" vert-adv-y="1000"  />

      
      <glyph glyph-name="unie3" unicode="&#xe3;" d="M96 355L75 419Q142 460 225 460Q316 460 357 415Q398 370 398 276L398 0L322 0L322 58Q269-7 178-7Q116-7 78 30.50Q40 68 40 132Q40 198 87 236.50Q134 275 210 275Q281 275 322 246Q322 322 301 355Q280 388 220 388Q159 388 96 355M206 65Q273 65 322 123L322 180Q280 210 221 210Q180 210 152.50 190.50Q125 171 125 136Q125 103 146.50 84Q168 65 206 65M99 557L66 594Q119 654 176 654Q200 654 234 632Q268 610 289 610Q317 610 360 645L388 604Q332 545 282 545Q259 545 225 567Q191 589 168 589Q142 589 99 557Z"  horiz-adv-x="460" vert-adv-y="1000"  />

      
      <glyph glyph-name="unie4" unicode="&#xe4;" d="M96 355L75 419Q142 460 225 460Q316 460 357 415Q398 370 398 276L398 0L322 0L322 58Q269-7 178-7Q116-7 78 30.50Q40 68 40 132Q40 198 87 236.50Q134 275 210 275Q281 275 322 246Q322 322 301 355Q280 388 220 388Q159 388 96 355M206 65Q273 65 322 123L322 180Q280 210 221 210Q180 210 152.50 190.50Q125 171 125 136Q125 103 146.50 84Q168 65 206 65M83 610Q83 631 96 643.50Q109 656 130 656Q148 656 161 643Q174 630 174 610Q174 587 161.50 573.50Q149 560 130 560Q109 560 96 573.50Q83 587 83 610M286 610Q286 630 300 643Q314 656 334 656Q352 656 365 643Q378 630 378 610Q378 587 365.50 573.50Q353 560 334 560Q313 560 299.50 573.50Q286 587 286 610Z"  horiz-adv-x="460" vert-adv-y="1000"  />

      
      <glyph glyph-name="unie5" unicode="&#xe5;" d="M96 355L75 419Q142 460 225 460Q316 460 357 415Q398 370 398 276L398 0L322 0L322 58Q269-7 178-7Q116-7 78 30.50Q40 68 40 132Q40 198 87 236.50Q134 275 210 275Q281 275 322 246Q322 322 301 355Q280 388 220 388Q159 388 96 355M206 65Q273 65 322 123L322 180Q280 210 221 210Q180 210 152.50 190.50Q125 171 125 136Q125 103 146.50 84Q168 65 206 65M230 724Q279 724 312.50 691.50Q346 659 346 613Q346 567 312.50 535Q279 503 230 503Q182 503 149 535Q116 567 116 613Q116 659 149 691.50Q182 724 230 724M168 614Q168 586 186 567Q204 548 231 548Q258 548 276 567Q294 586 294 614Q294 641 276 660Q258 679 231 679Q204 679 186 660Q168 641 168 614Z"  horiz-adv-x="460" vert-adv-y="1000"  />

      
      <glyph glyph-name="unie6" unicode="&#xe6;" d="M225 460Q326 460 367 401Q432 460 529 460Q619 460 678 402Q738 345 738 254Q738 225 733 200L398 200L398 138Q441 65 544 65Q632 65 682 112L707 49Q642-10 538-10Q424-10 357 60Q284-7 194-7Q121-7 80.50 29.50Q40 66 40 132Q40 198 87 236.50Q134 275 210 275Q273 275 318 261Q321 325 298.50 355Q276 385 220 385Q159 385 96 352L75 419Q142 460 225 460M398 276L398 265L655 265Q652 321 617.50 353Q583 385 525 385Q438 385 396 316Q398 284 398 276M206 68Q272 68 318 123L318 196Q265 210 221 210Q180 210 152.50 190.50Q125 171 125 136Q125 106 147.50 87Q170 68 206 68Z"  horiz-adv-x="775" vert-adv-y="1000"  />

      
      <glyph glyph-name="unie7" unicode="&#xe7;" d="M159-171L183-132Q218-155 254-155Q279-155 294.50-145.50Q310-136 310-119Q310-80 252-80L246-80L246-8Q153 3 97.50 66Q42 129 42 225Q42 324 107 392Q172 460 270 460Q388 460 447 401L410 338Q358 385 281 385Q218 385 172 339Q127 294 127 225Q127 152 173 109Q220 65 289 65Q367 65 418 123L456 65Q400-7 289-10L289-43Q390-49 390-123Q390-160 356.50-182.50Q323-205 264-205Q209-205 159-171Z"  horiz-adv-x="488" vert-adv-y="1000"  />

      
      <glyph glyph-name="unie8" unicode="&#xe8;" d="M427 112L452 49Q387-10 283-10Q173-10 108 54Q42 118 42 225Q42 326 104 393Q165 460 274 460Q364 460 423 402Q483 345 483 254Q483 225 478 200L132 200Q137 137 179.50 101Q222 65 289 65Q377 65 427 112M270 385Q211 385 172.50 352Q134 319 127 265L400 265Q397 321 362.50 353Q328 385 270 385M335 565L286 531L165 673L228 721L335 565Z"  horiz-adv-x="520" vert-adv-y="1000"  />

      
      <glyph glyph-name="unie9" unicode="&#xe9;" d="M427 112L452 49Q387-10 283-10Q173-10 108 54Q42 118 42 225Q42 326 104 393Q165 460 274 460Q364 460 423 402Q483 345 483 254Q483 225 478 200L132 200Q137 137 179.50 101Q222 65 289 65Q377 65 427 112M270 385Q211 385 172.50 352Q134 319 127 265L400 265Q397 321 362.50 353Q328 385 270 385M328 722L390 674L270 531L222 565L328 722Z"  horiz-adv-x="520" vert-adv-y="1000"  />

      
      <glyph glyph-name="uniea" unicode="&#xea;" d="M268 707L272 707L411 574L373 526L269 617L165 527L127 574L268 707M427 112L452 49Q387-10 283-10Q173-10 108 54Q42 118 42 225Q42 326 104 393Q165 460 274 460Q364 460 423 402Q483 345 483 254Q483 225 478 200L132 200Q137 137 179.50 101Q222 65 289 65Q377 65 427 112M270 385Q211 385 172.50 352Q134 319 127 265L400 265Q397 321 362.50 353Q328 385 270 385Z"  horiz-adv-x="520" vert-adv-y="1000"  />

      
      <glyph glyph-name="unieb" unicode="&#xeb;" d="M427 112L452 49Q387-10 283-10Q173-10 108 54Q42 118 42 225Q42 326 104 393Q165 460 274 460Q364 460 423 402Q483 345 483 254Q483 225 478 200L132 200Q137 137 179.50 101Q222 65 289 65Q377 65 427 112M270 385Q211 385 172.50 352Q134 319 127 265L400 265Q397 321 362.50 353Q328 385 270 385M119 610Q119 631 132 643.50Q145 656 166 656Q184 656 197 643Q210 630 210 610Q210 587 197.50 573.50Q185 560 166 560Q145 560 132 573.50Q119 587 119 610M322 610Q322 630 336 643Q350 656 370 656Q388 656 401 643Q414 630 414 610Q414 587 401.50 573.50Q389 560 370 560Q349 560 335.50 573.50Q322 587 322 610Z"  horiz-adv-x="520" vert-adv-y="1000"  />

      
      <glyph glyph-name="uniec" unicode="&#xec;" d="M174 0L94 0L94 450L174 450L174 0M176 565L127 531L6 673L69 721L176 565Z"  horiz-adv-x="268" vert-adv-y="1000"  />

      
      <glyph glyph-name="unied" unicode="&#xed;" d="M174 0L94 0L94 450L174 450L174 0M184 722L246 674L126 531L78 565L184 722Z"  horiz-adv-x="268" vert-adv-y="1000"  />

      
      <glyph glyph-name="uniee" unicode="&#xee;" d="M133 707L137 707L276 574L238 526L134 617L30 527L-8 574L133 707M174 0L94 0L94 450L174 450L174 0Z"  horiz-adv-x="268" vert-adv-y="1000"  />

      
      <glyph glyph-name="unief" unicode="&#xef;" d="M-13 610Q-13 631 0 643.50Q13 656 34 656Q52 656 65 643Q78 630 78 610Q78 587 65.50 573.50Q53 560 34 560Q13 560 0 573.50Q-13 587-13 610M190 610Q190 630 204 643Q218 656 238 656Q256 656 269 643Q282 630 282 610Q282 587 269.50 573.50Q257 560 238 560Q217 560 203.50 573.50Q190 587 190 610M174 0L94 0L94 450L174 450L174 0Z"  horiz-adv-x="268" vert-adv-y="1000"  />

      
      <glyph glyph-name="unif0" unicode="&#xf0;" d="M324 566L196 512L173 583L269 623Q221 665 166 695L256 710Q301 686 340 653L445 698L468 627L396 597Q456 526 489 437Q522 348 522 260Q522 134 456 62Q392-10 282-10Q176-10 108 56Q42 124 42 225Q42 327 108 393Q175 460 282 460Q324 460 360.50 438.50Q397 417 417 381Q394 482 324 566M171 340Q127 296 127 225Q127 154 170 110Q214 65 282 65Q354 65 397.50 120Q441 175 437 265Q427 315 384 350Q341 385 282 385Q214 385 171 340Z"  horiz-adv-x="565" vert-adv-y="1000"  />

      
      <glyph glyph-name="unif1" unicode="&#xf1;" d="M152 0L72 0L72 450L152 450L152 395Q177 423 217.50 440.50Q258 458 299 458Q486 458 486 260L486 0L406 0L406 245Q406 383 279 383Q203 383 152 325L152 0M144 557L111 594Q164 654 221 654Q245 654 279 632Q313 610 334 610Q362 610 405 645L433 604Q377 545 327 545Q304 545 270 567Q236 589 213 589Q187 589 144 557Z"  horiz-adv-x="549" vert-adv-y="1000"  />

      
      <glyph glyph-name="unif2" unicode="&#xf2;" d="M108 56Q42 124 42 225Q42 327 108 393Q175 460 282 460Q389 460 455 393Q522 327 522 225Q522 123 455 56Q389-10 282-10Q176-10 108 56M171 340Q127 296 127 225Q127 154 170 110Q214 65 282 65Q350 65 393.50 109.50Q437 154 437 225Q437 294 393 340Q350 385 282 385Q214 385 171 340M339 565L290 531L169 673L232 721L339 565Z"  horiz-adv-x="565" vert-adv-y="1000"  />

      
      <glyph glyph-name="unif3" unicode="&#xf3;" d="M108 56Q42 124 42 225Q42 327 108 393Q175 460 282 460Q389 460 455 393Q522 327 522 225Q522 123 455 56Q389-10 282-10Q176-10 108 56M171 340Q127 296 127 225Q127 154 170 110Q214 65 282 65Q350 65 393.50 109.50Q437 154 437 225Q437 294 393 340Q350 385 282 385Q214 385 171 340M332 722L394 674L274 531L226 565L332 722Z"  horiz-adv-x="565" vert-adv-y="1000"  />

      
      <glyph glyph-name="unif4" unicode="&#xf4;" d="M281 707L285 707L424 574L386 526L282 617L178 527L140 574L281 707M108 56Q42 124 42 225Q42 327 108 393Q175 460 282 460Q389 460 455 393Q522 327 522 225Q522 123 455 56Q389-10 282-10Q176-10 108 56M171 340Q127 296 127 225Q127 154 170 110Q214 65 282 65Q350 65 393.50 109.50Q437 154 437 225Q437 294 393 340Q350 385 282 385Q214 385 171 340Z"  horiz-adv-x="565" vert-adv-y="1000"  />

      
      <glyph glyph-name="unif5" unicode="&#xf5;" d="M108 56Q42 124 42 225Q42 327 108 393Q175 460 282 460Q389 460 455 393Q522 327 522 225Q522 123 455 56Q389-10 282-10Q176-10 108 56M171 340Q127 296 127 225Q127 154 170 110Q214 65 282 65Q350 65 393.50 109.50Q437 154 437 225Q437 294 393 340Q350 385 282 385Q214 385 171 340M152 557L119 594Q172 654 229 654Q253 654 287 632Q321 610 342 610Q370 610 413 645L441 604Q385 545 335 545Q312 545 278 567Q244 589 221 589Q195 589 152 557Z"  horiz-adv-x="565" vert-adv-y="1000"  />

      
      <glyph glyph-name="unif6" unicode="&#xf6;" d="M108 56Q42 124 42 225Q42 327 108 393Q175 460 282 460Q389 460 455 393Q522 327 522 225Q522 123 455 56Q389-10 282-10Q176-10 108 56M171 340Q127 296 127 225Q127 154 170 110Q214 65 282 65Q350 65 393.50 109.50Q437 154 437 225Q437 294 393 340Q350 385 282 385Q214 385 171 340M139 610Q139 631 152 643.50Q165 656 186 656Q204 656 217 643Q230 630 230 610Q230 587 217.50 573.50Q205 560 186 560Q165 560 152 573.50Q139 587 139 610M342 610Q342 630 356 643Q370 656 390 656Q408 656 421 643Q434 630 434 610Q434 587 421.50 573.50Q409 560 390 560Q369 560 355.50 573.50Q342 587 342 610Z"  horiz-adv-x="565" vert-adv-y="1000"  />

      
      <glyph glyph-name="unif7" unicode="&#xf7;" d="M246 564Q246 584 260 598Q274 612 296 612Q316 612 330.50 597.50Q345 583 345 564Q345 543 331 528Q317 513 296 513Q273 513 259.50 527.50Q246 542 246 564M246 157Q246 176 260 190Q274 204 296 204Q316 204 330.50 190Q345 176 345 157Q345 136 331 121Q317 106 296 106Q273 106 259.50 120.50Q246 135 246 157M523 325L69 325L69 395L523 395L523 325Z"  horiz-adv-x="592" vert-adv-y="1000"  />

      
      <glyph glyph-name="unif8" unicode="&#xf8;" d="M42 225Q42 327 108 393Q175 460 282 460Q373 460 435 411L481 455L525 406L480 363Q522 304 522 225Q522 123 455 56Q389-10 282-10Q197-10 136 33L86-14L41 37L87 81Q42 142 42 225M127 225Q127 175 148 139L376 355Q335 385 282 385Q214 385 171 340Q127 296 127 225M437 225Q437 266 419 304L195 90Q232 65 282 65Q350 65 393.50 109.50Q437 154 437 225Z"  horiz-adv-x="565" vert-adv-y="1000"  />

      
      <glyph glyph-name="unif9" unicode="&#xf9;" d="M387 450L467 450L467 0L387 0L387 64Q324-10 228-10Q149-10 105.50 38.50Q62 87 62 182L62 450L142 450L142 200Q142 65 258 65Q294 65 329.50 83.50Q365 102 387 132L387 450M324 565L275 531L154 673L217 721L324 565Z"  horiz-adv-x="540" vert-adv-y="1000"  />

      
      <glyph glyph-name="unifa" unicode="&#xfa;" d="M387 450L467 450L467 0L387 0L387 64Q324-10 228-10Q149-10 105.50 38.50Q62 87 62 182L62 450L142 450L142 200Q142 65 258 65Q294 65 329.50 83.50Q365 102 387 132L387 450M322 722L384 674L264 531L216 565L322 722Z"  horiz-adv-x="540" vert-adv-y="1000"  />

      
      <glyph glyph-name="unifb" unicode="&#xfb;" d="M265 707L269 707L408 574L370 526L266 617L162 527L124 574L265 707M387 450L467 450L467 0L387 0L387 64Q324-10 228-10Q149-10 105.50 38.50Q62 87 62 182L62 450L142 450L142 200Q142 65 258 65Q294 65 329.50 83.50Q365 102 387 132L387 450Z"  horiz-adv-x="540" vert-adv-y="1000"  />

      
      <glyph glyph-name="unifc" unicode="&#xfc;" d="M387 450L467 450L467 0L387 0L387 64Q324-10 228-10Q149-10 105.50 38.50Q62 87 62 182L62 450L142 450L142 200Q142 65 258 65Q294 65 329.50 83.50Q365 102 387 132L387 450M121 610Q121 631 134 643.50Q147 656 168 656Q186 656 199 643Q212 630 212 610Q212 587 199.50 573.50Q187 560 168 560Q147 560 134 573.50Q121 587 121 610M324 610Q324 630 338 643Q352 656 372 656Q390 656 403 643Q416 630 416 610Q416 587 403.50 573.50Q391 560 372 560Q351 560 337.50 573.50Q324 587 324 610Z"  horiz-adv-x="540" vert-adv-y="1000"  />

      
      <glyph glyph-name="unifd" unicode="&#xfd;" d="M390 450L481 450L301 0Q252-119 216-158Q178-200 129-200Q85-200 44-172L70-111Q102-126 120-126Q148-126 170.50-102Q193-78 216-24L226 0L10 450L106 450L238 164Q242 157 265 96Q274 129 286 165L390 450M293 722L355 674L235 531L187 565L293 722Z"  horiz-adv-x="491" vert-adv-y="1000"  />

      
      <glyph glyph-name="unife" unicode="&#xfe;" d="M152-200L72-200L72 700L152 700L152 402Q211 460 305 460Q401 460 456 396Q513 333 513 232Q513 129 448 59Q384-10 279-10Q198-10 152 21L152-200M282 385Q202 385 152 323L152 100Q205 65 272 65Q343 65 385.50 110.50Q428 156 428 229Q428 300 389 342.50Q350 385 282 385Z"  horiz-adv-x="556" vert-adv-y="1000"  />

      
      <glyph glyph-name="uniff" unicode="&#xff;" d="M390 450L481 450L301 0Q252-119 216-158Q178-200 129-200Q85-200 44-172L70-111Q102-126 120-126Q148-126 170.50-102Q193-78 216-24L226 0L10 450L106 450L238 164Q242 157 265 96Q274 129 286 165L390 450M103 610Q103 631 116 643.50Q129 656 150 656Q168 656 181 643Q194 630 194 610Q194 587 181.50 573.50Q169 560 150 560Q129 560 116 573.50Q103 587 103 610M306 610Q306 630 320 643Q334 656 354 656Q372 656 385 643Q398 630 398 610Q398 587 385.50 573.50Q373 560 354 560Q333 560 319.50 573.50Q306 587 306 610Z"  horiz-adv-x="491" vert-adv-y="1000"  />

      
      <glyph glyph-name="uni0100" unicode="&#x0100;" d="M101 0L15 0L316 704L389 704L690 0L599 0L509 212L190 212L101 0M476 292L350 591L224 292L476 292M504 770L200 770L200 835L504 835L504 770Z"  horiz-adv-x="705" vert-adv-y="1000"  />

      
      <glyph glyph-name="uni0101" unicode="&#x0101;" d="M96 355L75 419Q142 460 225 460Q316 460 357 415Q398 370 398 276L398 0L322 0L322 58Q269-7 178-7Q116-7 78 30.50Q40 68 40 132Q40 198 87 236.50Q134 275 210 275Q281 275 322 246Q322 322 301 355Q280 388 220 388Q159 388 96 355M206 65Q273 65 322 123L322 180Q280 210 221 210Q180 210 152.50 190.50Q125 171 125 136Q125 103 146.50 84Q168 65 206 65M365 580L101 580L101 645L365 645L365 580Z"  horiz-adv-x="460" vert-adv-y="1000"  />

      
      <glyph glyph-name="uni0102" unicode="&#x0102;" d="M101 0L15 0L316 704L389 704L690 0L599 0L509 212L190 212L101 0M476 292L350 591L224 292L476 292M177 838L213 880Q272 815 356 815Q440 815 496 880L527 838Q501 798 454.50 771.50Q408 745 356 745Q296 745 247 774Q200 803 177 838Z"  horiz-adv-x="705" vert-adv-y="1000"  />

      
      <glyph glyph-name="uni0103" unicode="&#x0103;" d="M96 355L75 419Q142 460 225 460Q316 460 357 415Q398 370 398 276L398 0L322 0L322 58Q269-7 178-7Q116-7 78 30.50Q40 68 40 132Q40 198 87 236.50Q134 275 210 275Q281 275 322 246Q322 322 301 355Q280 388 220 388Q159 388 96 355M206 65Q273 65 322 123L322 180Q280 210 221 210Q180 210 152.50 190.50Q125 171 125 136Q125 103 146.50 84Q168 65 206 65M79 640L116 681Q167 620 230 620Q296 620 345 680L374 641Q312 555 227 555Q134 555 79 640Z"  horiz-adv-x="460" vert-adv-y="1000"  />

      
      <glyph glyph-name="uni0104" unicode="&#x0104;" d="M661-126L685-175Q656-200 599-200Q545-200 511-177Q477-154 477-108Q477-67 509.50-37Q542-7 596 6L509 212L190 212L101 0L15 0L316 704L389 704L690 0L671 0Q624-2 590.50-26Q557-50 557-82Q557-108 575-121.50Q593-135 617-135Q642-135 661-126M476 292L350 591L224 292L476 292Z"  horiz-adv-x="705" vert-adv-y="1000"  />

      
      <glyph glyph-name="uni0105" unicode="&#x0105;" d="M383-126L407-175Q378-200 321-200Q267-200 233-177Q199-154 199-108Q199-66 232.50-36Q266-6 322 7L322 58Q269-7 178-7Q116-7 78 30.50Q40 68 40 132Q40 198 87 236.50Q134 275 210 275Q281 275 322 246Q322 322 301 355Q280 388 220 388Q159 388 96 355L75 419Q142 460 225 460Q316 460 357 415Q398 370 398 276L398 0Q351 0 315-24Q279-49 279-82Q279-108 297-121.50Q315-135 339-135Q364-135 383-126M206 65Q273 65 322 123L322 180Q280 210 221 210Q180 210 152.50 190.50Q125 171 125 136Q125 103 146.50 84Q168 65 206 65Z"  horiz-adv-x="460" vert-adv-y="1000"  />

      
      <glyph glyph-name="uni0106" unicode="&#x0106;" d="M592 132L626 68Q591 32 531 11Q471-10 405-10Q248-10 148 88Q50 188 50 350Q50 506 144 607Q238 710 399 710Q532 710 612 642L573 578Q503 630 400 630Q286 630 213 552Q140 475 140 350Q140 225 215 147Q292 70 413 70Q515 70 592 132M508 887L538 819L336 735L313 783L508 887Z"  horiz-adv-x="656" vert-adv-y="1000"  />

      
      <glyph glyph-name="uni0107" unicode="&#x0107;" d="M418 123L456 65Q398-10 283-10Q175-10 108 54Q42 118 42 225Q42 324 107 392Q172 460 270 460Q388 460 447 401L410 338Q358 385 281 385Q218 385 172 339Q127 294 127 225Q127 152 173 109Q220 65 289 65Q367 65 418 123M320 722L382 674L262 531L214 565L320 722Z"  horiz-adv-x="488" vert-adv-y="1000"  />

      
      <glyph glyph-name="uni0108" unicode="&#x0108;" d="M592 132L626 68Q591 32 531 11Q471-10 405-10Q248-10 148 88Q50 188 50 350Q50 506 144 607Q238 710 399 710Q532 710 612 642L573 578Q503 630 400 630Q286 630 213 552Q140 475 140 350Q140 225 215 147Q292 70 413 70Q515 70 592 132M245 733L216 778L387 882L391 882L565 779L532 733L389 809L245 733Z"  horiz-adv-x="656" vert-adv-y="1000"  />

      
      <glyph glyph-name="uni0109" unicode="&#x0109;" d="M275 707L279 707L418 574L380 526L276 617L172 527L134 574L275 707M418 123L456 65Q398-10 283-10Q175-10 108 54Q42 118 42 225Q42 324 107 392Q172 460 270 460Q388 460 447 401L410 338Q358 385 281 385Q218 385 172 339Q127 294 127 225Q127 152 173 109Q220 65 289 65Q367 65 418 123Z"  horiz-adv-x="488" vert-adv-y="1000"  />

      
      <glyph glyph-name="uni010A" unicode="&#x010A;" d="M592 132L626 68Q591 32 531 11Q471-10 405-10Q248-10 148 88Q50 188 50 350Q50 506 144 607Q238 710 399 710Q532 710 612 642L573 578Q503 630 400 630Q286 630 213 552Q140 475 140 350Q140 225 215 147Q292 70 413 70Q515 70 592 132M325 817Q325 840 341.50 854Q358 868 382 868Q404 868 420 854Q436 840 436 817Q436 793 420 778Q404 763 382 763Q357 763 341 778Q325 793 325 817Z"  horiz-adv-x="656" vert-adv-y="1000"  />

      
      <glyph glyph-name="uni010B" unicode="&#x010B;" d="M418 123L456 65Q398-10 283-10Q175-10 108 54Q42 118 42 225Q42 324 107 392Q172 460 270 460Q388 460 447 401L410 338Q358 385 281 385Q218 385 172 339Q127 294 127 225Q127 152 173 109Q220 65 289 65Q367 65 418 123M226 619Q226 640 241 653.50Q256 667 278 667Q299 667 313 653.50Q327 640 327 619Q327 596 313 581.50Q299 567 278 567Q256 567 241 581.50Q226 596 226 619Z"  horiz-adv-x="488" vert-adv-y="1000"  />

      
      <glyph glyph-name="uni010C" unicode="&#x010C;" d="M394 738L390 738L215 841L248 887L392 806L535 887L565 842L394 738M592 132L626 68Q591 32 531 11Q471-10 405-10Q248-10 148 88Q50 188 50 350Q50 506 144 607Q238 710 399 710Q532 710 612 642L573 578Q503 630 400 630Q286 630 213 552Q140 475 140 350Q140 225 215 147Q292 70 413 70Q515 70 592 132Z"  horiz-adv-x="656" vert-adv-y="1000"  />

      
      <glyph glyph-name="uni010D" unicode="&#x010D;" d="M277 529L273 529L133 662L172 710L276 607L380 709L417 662L277 529M418 123L456 65Q398-10 283-10Q175-10 108 54Q42 118 42 225Q42 324 107 392Q172 460 270 460Q388 460 447 401L410 338Q358 385 281 385Q218 385 172 339Q127 294 127 225Q127 152 173 109Q220 65 289 65Q367 65 418 123Z"  horiz-adv-x="488" vert-adv-y="1000"  />

      
      <glyph glyph-name="uni010E" unicode="&#x010E;" d="M339 738L335 738L160 841L193 887L337 806L480 887L510 842L339 738M116 0L105 0L105 700L117 700Q160 700 202 701Q288 703 296 703Q398 703 475 675.50Q552 648 598 599.50Q644 551 666.50 490.50Q689 430 689 359Q689 202 584 100Q480-2 288-2Q246-2 206-1Q167 0 116 0M294 623Q276 623 239.50 621.50Q203 620 190 620L190 80Q216 80 240.50 79.50Q265 79 277 78.50Q289 78 291 78Q436 78 518 155Q599 233 599 359Q599 477 520 550Q441 623 294 623Z"  horiz-adv-x="739" vert-adv-y="1000"  />

      
      <glyph glyph-name="uni010F" unicode="&#x010F;" d="M482 0L402 0L402 57Q342-8 259-8Q160-8 101 55Q42 119 42 222Q42 327 111 393Q181 460 288 460Q356 460 402 428L402 700L482 700L482 0M274 67Q348 67 402 127L402 350Q346 385 291 385Q222 385 174 340Q127 296 127 224Q127 152 167.50 109.50Q208 67 274 67M571 700L649 700Q657 682 657 662Q657 608 633 568.50Q609 529 571 509L535 544Q582 585 582 653Q582 680 571 700Z"  horiz-adv-x="554" vert-adv-y="1000"  />

      
      <glyph glyph-name="uni0110" unicode="&#x0110;" d="M120 316L10 316L10 391L120 391L120 700L132 700Q175 700 217 701Q303 703 311 703Q413 703 490 675.50Q567 648 613 599.50Q659 551 681.50 490.50Q704 430 704 359Q704 202 599 100Q495-2 303-2Q261-2 221-1Q182 0 131 0L120 0L120 316M309 623Q291 623 254.50 621.50Q218 620 205 620L205 391L393 391L393 316L205 316L205 80Q231 80 255.50 79.50Q280 79 292 78.50Q304 78 306 78Q451 78 533 155Q614 233 614 359Q614 477 535 550Q456 623 309 623Z"  horiz-adv-x="754" vert-adv-y="1000"  />

      
      <glyph glyph-name="uni0111" unicode="&#x0111;" d="M402 534L245 534L245 599L402 599L402 700L482 700L482 599L574 599L574 534L482 534L482 0L402 0L402 57Q342-8 259-8Q160-8 101 55Q42 119 42 222Q42 327 111 393Q181 460 288 460Q356 460 402 428L402 534M274 67Q348 67 402 127L402 350Q346 385 291 385Q222 385 174 340Q127 296 127 224Q127 152 167.50 109.50Q208 67 274 67Z"  horiz-adv-x="554" vert-adv-y="1000"  />

      
      <glyph glyph-name="uni0112" unicode="&#x0112;" d="M510 0L105 0L105 700L500 700L500 620L190 620L190 394L470 394L470 314L190 314L190 80L510 80L510 0M454 770L150 770L150 835L454 835L454 770Z"  horiz-adv-x="575" vert-adv-y="1000"  />

      
      <glyph glyph-name="uni0113" unicode="&#x0113;" d="M427 112L452 49Q387-10 283-10Q173-10 108 54Q42 118 42 225Q42 326 104 393Q165 460 274 460Q364 460 423 402Q483 345 483 254Q483 225 478 200L132 200Q137 137 179.50 101Q222 65 289 65Q377 65 427 112M270 385Q211 385 172.50 352Q134 319 127 265L400 265Q397 321 362.50 353Q328 385 270 385M396 580L132 580L132 645L396 645L396 580Z"  horiz-adv-x="520" vert-adv-y="1000"  />

      
      <glyph glyph-name="uni0116" unicode="&#x0116;" d="M510 0L105 0L105 700L500 700L500 620L190 620L190 394L470 394L470 314L190 314L190 80L510 80L510 0M250 817Q250 840 266.50 854Q283 868 307 868Q329 868 345 854Q361 840 361 817Q361 793 345 778Q329 763 307 763Q282 763 266 778Q250 793 250 817Z"  horiz-adv-x="575" vert-adv-y="1000"  />

      
      <glyph glyph-name="uni0117" unicode="&#x0117;" d="M427 112L452 49Q387-10 283-10Q173-10 108 54Q42 118 42 225Q42 326 104 393Q165 460 274 460Q364 460 423 402Q483 345 483 254Q483 225 478 200L132 200Q137 137 179.50 101Q222 65 289 65Q377 65 427 112M270 385Q211 385 172.50 352Q134 319 127 265L400 265Q397 321 362.50 353Q328 385 270 385M215 619Q215 640 230 653.50Q245 667 267 667Q288 667 302 653.50Q316 640 316 619Q316 596 302 581.50Q288 567 267 567Q245 567 230 581.50Q215 596 215 619Z"  horiz-adv-x="520" vert-adv-y="1000"  />

      
      <glyph glyph-name="uni0118" unicode="&#x0118;" d="M409 0L105 0L105 700L500 700L500 620L190 620L190 394L470 394L470 314L190 314L190 80L510 80L510 0L505 0Q458-2 424.50-26Q391-50 391-82Q391-108 409-121.50Q427-135 451-135Q476-135 495-126L519-175Q490-200 433-200Q379-200 345-177Q311-154 311-108Q311-35 409 0Z"  horiz-adv-x="575" vert-adv-y="1000"  />

      
      <glyph glyph-name="uni0119" unicode="&#x0119;" d="M427 112L452 49Q419 19 378 6Q311-37 311-82Q311-108 329.50-121.50Q348-135 372-135Q396-135 416-126L440-175Q411-200 354-200Q300-200 265.50-177Q231-154 231-108Q231-52 303-9Q301-9 293-9.50Q285-10 283-10Q173-10 108 54Q42 118 42 225Q42 326 104 393Q165 460 274 460Q364 460 423 402Q483 345 483 254Q483 225 478 200L132 200Q137 137 179.50 101Q222 65 289 65Q377 65 427 112M270 385Q211 385 172.50 352Q134 319 127 265L400 265Q397 321 362.50 353Q328 385 270 385Z"  horiz-adv-x="520" vert-adv-y="1000"  />

      
      <glyph glyph-name="uni011A" unicode="&#x011A;" d="M314 738L310 738L135 841L168 887L312 806L455 887L485 842L314 738M510 0L105 0L105 700L500 700L500 620L190 620L190 394L470 394L470 314L190 314L190 80L510 80L510 0Z"  horiz-adv-x="575" vert-adv-y="1000"  />

      
      <glyph glyph-name="uni011B" unicode="&#x011B;" d="M275 529L271 529L131 662L170 710L274 607L378 709L415 662L275 529M427 112L452 49Q387-10 283-10Q173-10 108 54Q42 118 42 225Q42 326 104 393Q165 460 274 460Q364 460 423 402Q483 345 483 254Q483 225 478 200L132 200Q137 137 179.50 101Q222 65 289 65Q377 65 427 112M270 385Q211 385 172.50 352Q134 319 127 265L400 265Q397 321 362.50 353Q328 385 270 385Z"  horiz-adv-x="520" vert-adv-y="1000"  />

      
      <glyph glyph-name="uni011C" unicode="&#x011C;" d="M587 276L398 276L398 356L667 356L667 87Q622 42 548 16Q473-10 405-10Q242-10 146 88Q50 186 50 350Q50 503 145 607Q239 710 394 710Q528 710 614 642L577 574Q515 630 404 630Q287 630 213 553Q140 477 140 350Q140 222 213 146Q286 70 407 70Q455 70 508 87Q558 105 587 132L587 276M245 733L216 778L387 882L391 882L565 779L532 733L389 809L245 733Z"  horiz-adv-x="727" vert-adv-y="1000"  />

      
      <glyph glyph-name="uni011D" unicode="&#x011D;" d="M10-65Q10-13 48 22Q86 57 154 72Q143 86 143 109Q143 132 155 147Q107 166 80.50 205Q54 244 54 295Q54 365 104 412Q155 460 238 460Q302 460 352 427L484 459L486 394L401 373Q422 338 422 295Q422 226 371 179Q321 133 238 133Q215 133 208 134Q203 122 203 109Q203 91 212 79Q214 79 224.50 79.50Q235 80 239 80Q344 80 406 42.50Q468 5 468-65Q468-133 406-170.50Q344-208 239-208Q133-208 71.50-171.50Q10-135 10-65M393-65Q393-28 352-6.50Q311 15 239 15Q167 15 126-6.50Q85-28 85-65Q85-102 126-122.50Q167-143 239-143Q311-143 352-123Q393-103 393-65M129 295Q129 253 159.50 225.50Q190 198 238 198Q286 198 316 225Q347 252 347 295Q347 338 317 366Q286 395 238 395Q190 395 159.50 366.50Q129 338 129 295M241 707L245 707L384 574L346 526L242 617L138 527L100 574L241 707Z"  horiz-adv-x="494" vert-adv-y="1000"  />

      
      <glyph glyph-name="uni011E" unicode="&#x011E;" d="M587 276L398 276L398 356L667 356L667 87Q622 42 548 16Q473-10 405-10Q242-10 146 88Q50 186 50 350Q50 503 145 607Q239 710 394 710Q528 710 614 642L577 574Q515 630 404 630Q287 630 213 553Q140 477 140 350Q140 222 213 146Q286 70 407 70Q455 70 508 87Q558 105 587 132L587 276M226 838L262 880Q321 815 405 815Q489 815 545 880L576 838Q550 798 503.50 771.50Q457 745 405 745Q345 745 296 774Q249 803 226 838Z"  horiz-adv-x="727" vert-adv-y="1000"  />

      
      <glyph glyph-name="uni011F" unicode="&#x011F;" d="M10-65Q10-13 48 22Q86 57 154 72Q143 86 143 109Q143 132 155 147Q107 166 80.50 205Q54 244 54 295Q54 365 104 412Q155 460 238 460Q302 460 352 427L484 459L486 394L401 373Q422 338 422 295Q422 226 371 179Q321 133 238 133Q215 133 208 134Q203 122 203 109Q203 91 212 79Q214 79 224.50 79.50Q235 80 239 80Q344 80 406 42.50Q468 5 468-65Q468-133 406-170.50Q344-208 239-208Q133-208 71.50-171.50Q10-135 10-65M393-65Q393-28 352-6.50Q311 15 239 15Q167 15 126-6.50Q85-28 85-65Q85-102 126-122.50Q167-143 239-143Q311-143 352-123Q393-103 393-65M129 295Q129 253 159.50 225.50Q190 198 238 198Q286 198 316 225Q347 252 347 295Q347 338 317 366Q286 395 238 395Q190 395 159.50 366.50Q129 338 129 295M92 640L129 681Q180 620 243 620Q308 620 358 680L387 641Q325 555 240 555Q147 555 92 640Z"  horiz-adv-x="494" vert-adv-y="1000"  />

      
      <glyph glyph-name="uni0120" unicode="&#x0120;" d="M587 276L398 276L398 356L667 356L667 87Q622 42 548 16Q473-10 405-10Q242-10 146 88Q50 186 50 350Q50 503 145 607Q239 710 394 710Q528 710 614 642L577 574Q515 630 404 630Q287 630 213 553Q140 477 140 350Q140 222 213 146Q286 70 407 70Q455 70 508 87Q558 105 587 132L587 276M325 817Q325 840 341.50 854Q358 868 382 868Q404 868 420 854Q436 840 436 817Q436 793 420 778Q404 763 382 763Q357 763 341 778Q325 793 325 817Z"  horiz-adv-x="727" vert-adv-y="1000"  />

      
      <glyph glyph-name="uni0121" unicode="&#x0121;" d="M10-65Q10-13 48 22Q86 57 154 72Q143 86 143 109Q143 132 155 147Q107 166 80.50 205Q54 244 54 295Q54 365 104 412Q155 460 238 460Q302 460 352 427L484 459L486 394L401 373Q422 338 422 295Q422 226 371 179Q321 133 238 133Q215 133 208 134Q203 122 203 109Q203 91 212 79Q214 79 224.50 79.50Q235 80 239 80Q344 80 406 42.50Q468 5 468-65Q468-133 406-170.50Q344-208 239-208Q133-208 71.50-171.50Q10-135 10-65M393-65Q393-28 352-6.50Q311 15 239 15Q167 15 126-6.50Q85-28 85-65Q85-102 126-122.50Q167-143 239-143Q311-143 352-123Q393-103 393-65M129 295Q129 253 159.50 225.50Q190 198 238 198Q286 198 316 225Q347 252 347 295Q347 338 317 366Q286 395 238 395Q190 395 159.50 366.50Q129 338 129 295M189 619Q189 640 204 653.50Q219 667 241 667Q262 667 276 653.50Q290 640 290 619Q290 596 276 581.50Q262 567 241 567Q219 567 204 581.50Q189 596 189 619Z"  horiz-adv-x="494" vert-adv-y="1000"  />

      
      <glyph glyph-name="uni0122" unicode="&#x0122;" d="M587 276L398 276L398 356L667 356L667 87Q622 42 548 16Q473-10 405-10Q242-10 146 88Q50 186 50 350Q50 503 145 607Q239 710 394 710Q528 710 614 642L577 574Q515 630 404 630Q287 630 213 553Q140 477 140 350Q140 222 213 146Q286 70 407 70Q455 70 508 87Q558 105 587 132L587 276M351-65L426-46Q455-54 455-95Q455-137 426-165.50Q397-194 352-204L329-168Q375-150 375-106Q375-76 351-65Z"  horiz-adv-x="727" vert-adv-y="1000"  />

      
      <glyph glyph-name="uni0123" unicode="&#x0123;" d="M10-65Q10-13 48 22Q86 57 154 72Q143 86 143 109Q143 132 155 147Q107 166 80.50 205Q54 244 54 295Q54 365 104 412Q155 460 238 460Q302 460 352 427L484 459L486 394L401 373Q422 338 422 295Q422 226 371 179Q321 133 238 133Q215 133 208 134Q203 122 203 109Q203 91 212 79Q214 79 224.50 79.50Q235 80 239 80Q344 80 406 42.50Q468 5 468-65Q468-133 406-170.50Q344-208 239-208Q133-208 71.50-171.50Q10-135 10-65M393-65Q393-28 352-6.50Q311 15 239 15Q167 15 126-6.50Q85-28 85-65Q85-102 126-122.50Q167-143 239-143Q311-143 352-123Q393-103 393-65M129 295Q129 253 159.50 225.50Q190 198 238 198Q286 198 316 225Q347 252 347 295Q347 338 317 366Q286 395 238 395Q190 395 159.50 366.50Q129 338 129 295M285 562L210 543Q181 551 181 592Q181 634 210 662.50Q239 691 284 701L307 665Q261 647 261 603Q261 572 285 562Z"  horiz-adv-x="494" vert-adv-y="1000"  />

      
      <glyph glyph-name="uni0124" unicode="&#x0124;" d="M660 0L575 0L575 317L190 317L190 0L105 0L105 700L190 700L190 397L575 397L575 700L660 700L660 0M238 733L209 778L380 882L384 882L558 779L525 733L382 809L238 733Z"  horiz-adv-x="765" vert-adv-y="1000"  />

      
      <glyph glyph-name="uni0125" unicode="&#x0125;" d="M152 0L72 0L72 700L152 700L152 398Q212 458 299 458Q486 458 486 258L486 0L406 0L406 247Q406 383 280 383Q245 383 209.50 367Q174 351 152 326L152 0M12 733L-17 778L154 882L158 882L332 779L299 733L156 809L12 733Z"  horiz-adv-x="549" vert-adv-y="1000"  />

      
      <glyph glyph-name="uni0126" unicode="&#x0126;" d="M110 514L25 514L25 589L110 589L110 700L195 700L195 589L580 589L580 700L665 700L665 589L750 589L750 514L665 514L665 0L580 0L580 317L195 317L195 0L110 0L110 514M195 514L195 397L580 397L580 514L195 514Z"  horiz-adv-x="775" vert-adv-y="1000"  />

      
      <glyph glyph-name="uni0127" unicode="&#x0127;" d="M97 520L-20 520L-20 595L97 595L97 700L177 700L177 595L339 595L339 520L177 520L177 398Q237 458 324 458Q511 458 511 258L511 0L431 0L431 247Q431 383 305 383Q270 383 234.50 367Q199 351 177 326L177 0L97 0L97 520Z"  horiz-adv-x="574" vert-adv-y="1000"  />

      
      <glyph glyph-name="uni012A" unicode="&#x012A;" d="M322 770L18 770L18 835L322 835L322 770M210 0L125 0L125 700L210 700L210 0Z"  horiz-adv-x="335" vert-adv-y="1000"  />

      
      <glyph glyph-name="uni012B" unicode="&#x012B;" d="M174 0L94 0L94 450L174 450L174 0M266 580L2 580L2 645L266 645L266 580Z"  horiz-adv-x="268" vert-adv-y="1000"  />

      
      <glyph glyph-name="uni012E" unicode="&#x012E;" d="M195-126L219-175Q190-200 133-200Q79-200 45-177Q11-154 11-108Q11-68 41.50-39Q72-10 125 5L125 700L210 700L210 0L205 0Q158-2 124.50-26Q91-50 91-82Q91-108 109-121.50Q127-135 151-135Q176-135 195-126Z"  horiz-adv-x="335" vert-adv-y="1000"  />

      
      <glyph glyph-name="uni012F" unicode="&#x012F;" d="M158-126L182-175Q153-200 96-200Q42-200 8-177Q-26-154-26-108Q-26-66 6.50-36.50Q39-7 94 6L94 450L174 450L174 0L168 0Q121-2 87.50-26Q54-50 54-82Q54-108 72-121.50Q90-135 114-135Q139-135 158-126M81 619Q81 640 96 653.50Q111 667 133 667Q154 667 168 653.50Q182 640 182 619Q182 596 168 581.50Q154 567 133 567Q111 567 96 581.50Q81 596 81 619Z"  horiz-adv-x="268" vert-adv-y="1000"  />

      
      <glyph glyph-name="uni0130" unicode="&#x0130;" d="M112 817Q112 840 128.50 854Q145 868 169 868Q191 868 207 854Q223 840 223 817Q223 793 207 778Q191 763 169 763Q144 763 128 778Q112 793 112 817M210 0L125 0L125 700L210 700L210 0Z"  horiz-adv-x="335" vert-adv-y="1000"  />

      
      <glyph glyph-name="uni0131" unicode="&#x0131;" d="M174 0L94 0L94 450L174 450L174 0Z"  horiz-adv-x="268" vert-adv-y="1000"  />

      
      <glyph glyph-name="uni0134" unicode="&#x0134;" d="M184 700L269 700L269 159Q269-10 116-10Q47-10 10 27L39 92Q67 70 105 70Q184 70 184 173L184 700M76 733L47 778L218 882L222 882L396 779L363 733L220 809L76 733Z"  horiz-adv-x="374" vert-adv-y="1000"  />

      
      <glyph glyph-name="uni0135" unicode="&#x0135;" d="M137 707L141 707L280 574L242 526L138 617L34 527L-4 574L137 707M98 450L178 450L178-33Q178-208 37-208Q-25-208-63-179L-40-115Q-12-133 19-133Q98-133 98-27L98 450Z"  horiz-adv-x="266" vert-adv-y="1000"  />

      
      <glyph glyph-name="uni0136" unicode="&#x0136;" d="M514 700L617 700L305 371L633 0L524 0L207 365L514 700M190 0L105 0L105 700L190 700L190 0M271-65L346-46Q375-54 375-95Q375-137 346-165.50Q317-194 272-204L249-168Q295-150 295-106Q295-76 271-65Z"  horiz-adv-x="653" vert-adv-y="1000"  />

      
      <glyph glyph-name="uni0137" unicode="&#x0137;" d="M355 450L457 450L266 241L481 0L372 0L169 235L355 450M152 0L72 0L72 700L152 700L152 0M185-65L260-46Q289-54 289-95Q289-137 260-165.50Q231-194 186-204L163-168Q209-150 209-106Q209-76 185-65Z"  horiz-adv-x="491" vert-adv-y="1000"  />

      
      <glyph glyph-name="uni0139" unicode="&#x0139;" d="M535 0L105 0L105 700L190 700L190 80L535 80L535 0M408 887L438 819L236 735L213 783L408 887Z"  horiz-adv-x="550" vert-adv-y="1000"  />

      
      <glyph glyph-name="uni013A" unicode="&#x013A;" d="M72 120L72 700L152 700L152 156Q152 67 205 67Q231 67 262 87L280 26Q237-8 174-8Q72-8 72 120M265 887L295 819L93 735L70 783L265 887Z"  horiz-adv-x="290" vert-adv-y="1000"  />

      
      <glyph glyph-name="uni013B" unicode="&#x013B;" d="M261-65L336-46Q365-54 365-95Q365-137 336-165.50Q307-194 262-204L239-168Q285-150 285-106Q285-76 261-65M535 0L105 0L105 700L190 700L190 80L535 80L535 0Z"  horiz-adv-x="550" vert-adv-y="1000"  />

      
      <glyph glyph-name="uni013C" unicode="&#x013C;" d="M72 120L72 700L152 700L152 156Q152 67 205 67Q231 67 262 87L280 26Q237-8 174-8Q72-8 72 120M118-65L193-46Q222-54 222-95Q222-137 193-165.50Q164-194 119-204L96-168Q142-150 142-106Q142-76 118-65Z"  horiz-adv-x="290" vert-adv-y="1000"  />

      
      <glyph glyph-name="uni013D" unicode="&#x013D;" d="M356 700L434 700Q442 682 442 662Q442 608 418 568.50Q394 529 356 509L320 544Q367 585 367 653Q367 680 356 700M535 0L105 0L105 700L190 700L190 80L535 80L535 0Z"  horiz-adv-x="550" vert-adv-y="1000"  />

      
      <glyph glyph-name="uni013E" unicode="&#x013E;" d="M72 120L72 700L152 700L152 156Q152 67 205 67Q231 67 262 87L280 26Q237-8 174-8Q72-8 72 120M246 700L324 700Q332 682 332 662Q332 608 308 568.50Q284 529 246 509L210 544Q257 585 257 653Q257 680 246 700Z"  horiz-adv-x="290" vert-adv-y="1000"  />

      
      <glyph glyph-name="uni013F" unicode="&#x013F;" d="M368 374Q368 395 384.50 411Q401 427 425 427Q446 427 462 411Q478 395 478 374Q478 350 463 333.50Q448 317 425 317Q401 317 384.50 333.50Q368 350 368 374M535 0L105 0L105 700L190 700L190 80L535 80L535 0Z"  horiz-adv-x="550" vert-adv-y="1000"  />

      
      <glyph glyph-name="uni0140" unicode="&#x0140;" d="M72 120L72 700L152 700L152 156Q152 67 205 67Q231 67 262 87L280 26Q237-8 174-8Q72-8 72 120M226 326Q226 347 241 360.50Q256 374 278 374Q299 374 313 360.50Q327 347 327 326Q327 303 313 288.50Q299 274 278 274Q256 274 241 288.50Q226 303 226 326Z"  horiz-adv-x="324" vert-adv-y="1000"  />

      
      <glyph glyph-name="uni0141" unicode="&#x0141;" d="M115 263L25 219L25 302L115 345L115 700L200 700L200 386L376 472L376 390L200 304L200 80L545 80L545 0L115 0L115 263Z"  horiz-adv-x="560" vert-adv-y="1000"  />

      
      <glyph glyph-name="uni0142" unicode="&#x0142;" d="M92 259L15 222L15 305L92 342L92 700L172 700L172 380L277 431L277 349L172 298L172 156Q172 67 225 67Q251 67 282 87L300 26Q257-8 194-8Q92-8 92 120L92 259Z"  horiz-adv-x="320" vert-adv-y="1000"  />

      
      <glyph glyph-name="uni0143" unicode="&#x0143;" d="M690 700L690 0L622 0L185 550L185 0L105 0L105 700L173 700L610 148L610 700L690 700M533 887L563 819L361 735L338 783L533 887Z"  horiz-adv-x="795" vert-adv-y="1000"  />

      
      <glyph glyph-name="uni0144" unicode="&#x0144;" d="M152 0L72 0L72 450L152 450L152 395Q177 423 217.50 440.50Q258 458 299 458Q486 458 486 260L486 0L406 0L406 245Q406 383 279 383Q203 383 152 325L152 0M329 722L391 674L271 531L223 565L329 722Z"  horiz-adv-x="549" vert-adv-y="1000"  />

      
      <glyph glyph-name="uni0145" unicode="&#x0145;" d="M690 700L690 0L622 0L185 550L185 0L105 0L105 700L173 700L610 148L610 700L690 700M346-65L421-46Q450-54 450-95Q450-137 421-165.50Q392-194 347-204L324-168Q370-150 370-106Q370-76 346-65Z"  horiz-adv-x="795" vert-adv-y="1000"  />

      
      <glyph glyph-name="uni0146" unicode="&#x0146;" d="M152 0L72 0L72 450L152 450L152 395Q177 423 217.50 440.50Q258 458 299 458Q486 458 486 260L486 0L406 0L406 245Q406 383 279 383Q203 383 152 325L152 0M224-65L299-46Q328-54 328-95Q328-137 299-165.50Q270-194 225-204L202-168Q248-150 248-106Q248-76 224-65Z"  horiz-adv-x="549" vert-adv-y="1000"  />

      
      <glyph glyph-name="uni0147" unicode="&#x0147;" d="M401 738L397 738L222 841L255 887L399 806L542 887L572 842L401 738M690 700L690 0L622 0L185 550L185 0L105 0L105 700L173 700L610 148L610 700L690 700Z"  horiz-adv-x="795" vert-adv-y="1000"  />

      
      <glyph glyph-name="uni0148" unicode="&#x0148;" d="M275 529L271 529L131 662L170 710L274 607L378 709L415 662L275 529M152 0L72 0L72 450L152 450L152 395Q177 423 217.50 440.50Q258 458 299 458Q486 458 486 260L486 0L406 0L406 245Q406 383 279 383Q203 383 152 325L152 0Z"  horiz-adv-x="549" vert-adv-y="1000"  />

      
      <glyph glyph-name="uni014C" unicode="&#x014C;" d="M50 350Q50 502 151 606Q252 710 407 710Q561 710 662 609Q764 508 764 350Q764 196 662 92Q560-10 407-10Q254-10 151 91Q50 192 50 350M140 350Q140 232 217 150Q294 70 407 70Q525 70 599 150Q674 230 674 350Q674 470 597 550Q520 630 407 630Q292 630 216 551Q140 472 140 350M564 770L260 770L260 835L564 835L564 770Z"  horiz-adv-x="814" vert-adv-y="1000"  />

      
      <glyph glyph-name="uni014D" unicode="&#x014D;" d="M108 56Q42 124 42 225Q42 327 108 393Q175 460 282 460Q389 460 455 393Q522 327 522 225Q522 123 455 56Q389-10 282-10Q176-10 108 56M171 340Q127 296 127 225Q127 154 170 110Q214 65 282 65Q350 65 393.50 109.50Q437 154 437 225Q437 294 393 340Q350 385 282 385Q214 385 171 340M419 580L155 580L155 645L419 645L419 580Z"  horiz-adv-x="565" vert-adv-y="1000"  />

      
      <glyph glyph-name="uni0150" unicode="&#x0150;" d="M50 350Q50 502 151 606Q252 710 407 710Q561 710 662 609Q764 508 764 350Q764 196 662 92Q560-10 407-10Q254-10 151 91Q50 192 50 350M140 350Q140 232 217 150Q294 70 407 70Q525 70 599 150Q674 230 674 350Q674 470 597 550Q520 630 407 630Q292 630 216 551Q140 472 140 350M607 887L662 836L483 735L450 770L607 887M400 887L467 851L306 735L272 767L400 887Z"  horiz-adv-x="814" vert-adv-y="1000"  />

      
      <glyph glyph-name="uni0151" unicode="&#x0151;" d="M108 56Q42 124 42 225Q42 327 108 393Q175 460 282 460Q389 460 455 393Q522 327 522 225Q522 123 455 56Q389-10 282-10Q176-10 108 56M171 340Q127 296 127 225Q127 154 170 110Q214 65 282 65Q350 65 393.50 109.50Q437 154 437 225Q437 294 393 340Q350 385 282 385Q214 385 171 340M426 716L485 671L360 531L312 565L426 716M260 723L318 680L205 531L157 565L260 723Z"  horiz-adv-x="565" vert-adv-y="1000"  />

      
      <glyph glyph-name="uni0152" unicode="&#x0152;" d="M977 0L572 0L572 28Q501-10 405-10Q248-10 148 88Q50 188 50 350Q50 506 144 607Q238 710 399 710Q499 710 572 670L572 700L967 700L967 620L657 620L657 394L937 394L937 314L657 314L657 80L977 80L977 0M413 70Q504 70 572 116L572 578Q502 630 400 630Q286 630 213 552Q140 475 140 350Q140 225 215 147Q292 70 413 70Z"  horiz-adv-x="1042" vert-adv-y="1000"  />

      
      <glyph glyph-name="uni0153" unicode="&#x0153;" d="M744 112L769 49Q705-10 601-10Q503-10 440 41Q377-10 282-10Q176-10 108 56Q42 124 42 225Q42 327 108 393Q175 460 282 460Q376 460 438 408Q500 460 592 460Q682 460 740 402Q800 345 800 254Q800 225 795 200L450 200Q454 138 497 101.50Q540 65 607 65Q694 65 744 112M282 65Q348 65 389 102Q360 155 360 225Q360 292 389 348Q346 385 282 385Q214 385 171 340Q127 296 127 225Q127 154 170 110Q214 65 282 65M587 385Q528 385 490 352Q452 319 445 265L718 265Q714 321 679.50 353Q645 385 587 385Z"  horiz-adv-x="837" vert-adv-y="1000"  />

      
      <glyph glyph-name="uni0154" unicode="&#x0154;" d="M190 280L190 0L105 0L105 700Q153 700 206 701Q259 702 293 702Q542 702 542 494Q542 416 497 364Q455 313 390 296L623 0L519 0L304 280L190 280M288 622Q278 622 190 620L190 360L293 360Q358 360 404 396Q452 434 452 493Q452 622 288 622M403 887L433 819L231 735L208 783L403 887Z"  horiz-adv-x="643" vert-adv-y="1000"  />

      
      <glyph glyph-name="uni0155" unicode="&#x0155;" d="M152 0L72 0L72 450L152 450L152 397Q192 458 265 458Q312 458 335 441L307 366Q278 383 246 383Q185 383 152 319L152 0M243 722L305 674L185 531L137 565L243 722Z"  horiz-adv-x="340" vert-adv-y="1000"  />

      
      <glyph glyph-name="uni0156" unicode="&#x0156;" d="M190 280L190 0L105 0L105 700Q153 700 206 701Q259 702 293 702Q542 702 542 494Q542 416 497 364Q455 313 390 296L623 0L519 0L304 280L190 280M288 622Q278 622 190 620L190 360L293 360Q358 360 404 396Q452 434 452 493Q452 622 288 622M266-65L341-46Q370-54 370-95Q370-137 341-165.50Q312-194 267-204L244-168Q290-150 290-106Q290-76 266-65Z"  horiz-adv-x="643" vert-adv-y="1000"  />

      
      <glyph glyph-name="uni0157" unicode="&#x0157;" d="M152 0L72 0L72 450L152 450L152 397Q192 458 265 458Q312 458 335 441L307 366Q278 383 246 383Q185 383 152 319L152 0M109-65L184-46Q213-54 213-95Q213-137 184-165.50Q155-194 110-204L87-168Q133-150 133-106Q133-76 109-65Z"  horiz-adv-x="340" vert-adv-y="1000"  />

      
      <glyph glyph-name="uni0158" unicode="&#x0158;" d="M190 280L190 0L105 0L105 700Q153 700 206 701Q259 702 293 702Q542 702 542 494Q542 416 497 364Q455 313 390 296L623 0L519 0L304 280L190 280M288 622Q278 622 190 620L190 360L293 360Q358 360 404 396Q452 434 452 493Q452 622 288 622M294 738L290 738L115 841L148 887L292 806L435 887L465 842L294 738Z"  horiz-adv-x="643" vert-adv-y="1000"  />

      
      <glyph glyph-name="uni0159" unicode="&#x0159;" d="M195 529L191 529L51 662L90 710L194 607L298 709L335 662L195 529M152 0L72 0L72 450L152 450L152 397Q192 458 265 458Q312 458 335 441L307 366Q278 383 246 383Q185 383 152 319L152 0Z"  horiz-adv-x="340" vert-adv-y="1000"  />

      
      <glyph glyph-name="uni015A" unicode="&#x015A;" d="M409 179Q409 214 390 240Q371 266 341 282.50Q311 299 274.50 314Q238 329 201.50 346.50Q165 364 135 386Q105 408 86 444Q67 480 67 527Q67 604 124 657Q182 710 278 710Q337 710 389 690Q441 670 471 637L425 573Q368 630 283 630Q225 630 191 602Q157 574 157 527Q157 492 176 466Q195 440 225 424Q255 408 291.50 393.50Q328 379 364.50 362Q401 345 431 323.50Q461 302 480 265Q499 228 499 180Q499 94 433 42Q369-10 271-10Q202-10 139 18Q76 46 50 95L99 153Q128 115 176 92.50Q224 70 272 70Q331 70 370 99.50Q409 129 409 179M411 887L441 819L239 735L216 783L411 887Z"  horiz-adv-x="549" vert-adv-y="1000"  />

      
      <glyph glyph-name="uni015B" unicode="&#x015B;" d="M300 122Q300 146 275 162Q250 178 214.50 188.50Q179 199 143 213Q107 227 82 257.50Q57 288 57 333Q57 390 99 425Q141 460 210 460Q309 460 365 407L327 346Q277 390 214 390Q182 390 162 374Q142 358 142 334Q142 308 167 291.50Q192 275 227.50 264.50Q263 254 299 240.50Q335 227 360 198Q385 169 385 126Q385 59 335 24Q286-10 211-10Q158-10 110 12Q61 35 45 60L90 117Q110 94 148 77Q188 60 220 60Q255 60 277.50 76.50Q300 93 300 122M264 722L326 674L206 531L158 565L264 722Z"  horiz-adv-x="430" vert-adv-y="1000"  />

      
      <glyph glyph-name="uni015C" unicode="&#x015C;" d="M409 179Q409 214 390 240Q371 266 341 282.50Q311 299 274.50 314Q238 329 201.50 346.50Q165 364 135 386Q105 408 86 444Q67 480 67 527Q67 604 124 657Q182 710 278 710Q337 710 389 690Q441 670 471 637L425 573Q368 630 283 630Q225 630 191 602Q157 574 157 527Q157 492 176 466Q195 440 225 424Q255 408 291.50 393.50Q328 379 364.50 362Q401 345 431 323.50Q461 302 480 265Q499 228 499 180Q499 94 433 42Q369-10 271-10Q202-10 139 18Q76 46 50 95L99 153Q128 115 176 92.50Q224 70 272 70Q331 70 370 99.50Q409 129 409 179M128 733L99 778L270 882L274 882L448 779L415 733L272 809L128 733Z"  horiz-adv-x="549" vert-adv-y="1000"  />

      
      <glyph glyph-name="uni015D" unicode="&#x015D;" d="M300 122Q300 146 275 162Q250 178 214.50 188.50Q179 199 143 213Q107 227 82 257.50Q57 288 57 333Q57 390 99 425Q141 460 210 460Q309 460 365 407L327 346Q277 390 214 390Q182 390 162 374Q142 358 142 334Q142 308 167 291.50Q192 275 227.50 264.50Q263 254 299 240.50Q335 227 360 198Q385 169 385 126Q385 59 335 24Q286-10 211-10Q158-10 110 12Q61 35 45 60L90 117Q110 94 148 77Q188 60 220 60Q255 60 277.50 76.50Q300 93 300 122M215 707L219 707L358 574L320 526L216 617L112 527L74 574L215 707Z"  horiz-adv-x="430" vert-adv-y="1000"  />

      
      </font>
</defs>
</svg>
