<?xml version="1.0" standalone="no"?>
  <!DOCTYPE svg PUBLIC "-//W3C//DTD SVG 1.1//EN" "http://www.w3.org/Graphics/SVG/1.1/DTD/svg11.dtd" >
  <svg>
  <metadata>
  Created by font-carrier
  </metadata>
  <defs>
  <font id="Circe-ExtraLight" horiz-adv-x="1317" vert-adv-y="1317" >
    <font-face
      
      font-family="Circe ExtraLight"
      
      font-weight="400"
      
      font-stretch="normal"
      
      units-per-em="1000"
      
      ascent="1020"
      
      descent="-454"
      
    />
      <missing-glyph />

      

      
      <glyph glyph-name="uni21" unicode="&#x21;" d="M170 174L140 174L140 700L170 700L170 174M131 24Q131 32 138.50 39Q146 46 156 46Q165 46 172 39Q179 32 179 24Q179 14 172 6.50Q165-1 156-1Q146-1 138.50 6.50Q131 14 131 24Z"  horiz-adv-x="310" vert-adv-y="1000"  />

      
      <glyph glyph-name="uni22" unicode="&#x22;" d="M278 505L250 505L250 700L278 700L278 505M139 505L111 505L111 700L139 700L139 505Z"  horiz-adv-x="389" vert-adv-y="1000"  />

      
      <glyph glyph-name="uni23" unicode="&#x23;" d="M347-9L323 0L403 217L171 217L88-9L64 0L145 217L40 217L40 243L154 243L234 457L40 457L40 483L243 483L328 709L350 700L270 483L502 483L586 709L609 701L528 483L635 483L635 457L519 457L440 243L635 243L635 217L430 217L347-9M492 457L260 457L181 243L413 243L492 457Z"  horiz-adv-x="674" vert-adv-y="1000"  />

      
      <glyph glyph-name="uni24" unicode="&#x24;" d="M477 170Q477 214 456 247Q435 280 401.50 299Q368 318 328 333.50Q288 349 247.50 365Q207 381 173.50 401.50Q140 422 119 457Q98 492 98 540Q98 612 148.50 658.50Q199 705 286 709L286 790L314 790L314 708Q424 703 483 638L466 617Q404 680 298 680Q220 680 174 641.50Q128 603 128 540Q128 489 156 455Q169 438 190 424Q211 410 223.50 404Q236 398 272 384Q308 370 317 366Q384 340 409 328Q453 308 480 267Q507 226 507 171Q507 95 452 46Q398-2 314-8L314-100L286-100L286-9Q225-8 164 20Q105 47 80 90L99 110Q129 70 182 44Q236 20 288 20Q366 20 421 59Q477 100 477 170Z"  horiz-adv-x="586" vert-adv-y="1000"  />

      
      <glyph glyph-name="uni25" unicode="&#x25;" d="M56 546Q56 615 102 658Q149 702 218 702Q286 702 333 658Q380 614 380 546Q380 476 334 433Q287 389 218 389Q149 389 102 433Q56 476 56 546M218 413Q275 413 313 450Q353 487 353 546Q353 604 313 641Q273 678 218 678Q163 678 123 641Q83 604 83 546Q83 487 123 450Q163 413 218 413M446 156Q446 225 492 268Q539 312 608 312Q676 312 723 268Q770 224 770 156Q770 86 724 43Q677-1 608-1Q539-1 492 43Q446 86 446 156M608 23Q665 23 703 60Q743 97 743 156Q743 214 703 251Q663 288 608 288Q553 288 513 251Q473 214 473 156Q473 97 513 60Q553 23 608 23M162-9L144 5L671 709L688 696L162-9Z"  horiz-adv-x="827" vert-adv-y="1000"  />

      
      <glyph glyph-name="uni26" unicode="&#x26;" d="M656 0L620 0L526 119Q439-9 297-9Q207-9 145 47Q85 104 85 190Q85 324 266 445Q218 453 187 489Q156 525 156 575Q156 633 196 670Q237 709 293 709Q348 709 389 670Q429 631 429 575Q429 522 393 484Q356 445 306 444L527 164Q600 288 600 450L628 450Q628 271 545 140L656 0M297 20Q428 20 508 142L283 428Q201 370 158.50 314.50Q116 259 116 195Q116 118 169 68Q223 20 297 20M293 465Q338 465 370 497.50Q402 530 402 575Q402 620 370 652Q338 684 293 684Q247 684 215 652Q183 620 183 575Q183 531 215 497Q247 465 293 465Z"  horiz-adv-x="731" vert-adv-y="1000"  />

      
      <glyph glyph-name="uni27" unicode="&#x27;" d="M139 505L111 505L111 700L139 700L139 505Z"  horiz-adv-x="250" vert-adv-y="1000"  />

      
      <glyph glyph-name="uni28" unicode="&#x28;" d="M261-190L242-206Q40-32 40 225Q40 473 243 656L261 640Q68 462 68 225Q68-24 261-190Z"  horiz-adv-x="261" vert-adv-y="1000"  />

      
      <glyph glyph-name="uni29" unicode="&#x29;" d="M19-206L0-190Q193-24 193 225Q193 462 0 640L18 656Q221 473 221 225Q221-32 19-206Z"  horiz-adv-x="261" vert-adv-y="1000"  />

      
      <glyph glyph-name="uni2a" unicode="&#x2a;" d="M203 684Q203 694 210 701Q217 708 227 708Q236 708 243.50 701Q251 694 251 684Q251 675 243.50 668Q236 661 227 661Q217 661 210 668Q203 675 203 684M202 446Q202 456 209 463Q216 470 226 470Q235 470 242.50 463Q250 456 250 446Q250 437 242.50 430Q235 423 226 423Q216 423 209 430Q202 437 202 446M331 643Q354 643 354 619.50Q354 596 331 596Q317 596 311.50 608Q306 620 311.50 631.50Q317 643 331 643M308 512Q308 521 315 528Q322 535 331 535Q341 535 348 528Q355 521 355 512Q355 502 348.50 495Q342 488 331 488Q322 488 315 495Q308 502 308 512M94 512Q94 521 101 528Q108 535 118 535Q127 535 134 528Q141 521 141 512Q141 502 134 495Q127 488 118 488Q108 488 101 495Q94 502 94 512M118 643Q132 643 137.50 631.50Q143 620 137.50 608Q132 596 118 596Q95 596 95 619.50Q95 643 118 643Z"  horiz-adv-x="449" vert-adv-y="1000"  />

      
      <glyph glyph-name="uni2b" unicode="&#x2b;" d="M279 347L73 347L73 373L279 373L279 579L305 579L305 373L513 373L513 347L305 347L305 139L279 139L279 347Z"  horiz-adv-x="586" vert-adv-y="1000"  />

      
      <glyph glyph-name="uni2c" unicode="&#x2c;" d="M65 21Q65 31 72.50 37.50Q80 44 92 44Q112 44 126.50 23Q141 2 141-31Q141-74 116.50-105.50Q92-137 54-147L47-132Q74-123 94-99Q114-75 116-44Q118 0 98 10Q97 0 84 0Q77 0 71 6.50Q65 13 65 21Z"  horiz-adv-x="181" vert-adv-y="1000"  />

      
      <glyph glyph-name="uni2d" unicode="&#x2d;" d="M314 257L93 257L93 284L314 284L314 257Z"  horiz-adv-x="407" vert-adv-y="1000"  />

      
      <glyph glyph-name="uni2e" unicode="&#x2e;" d="M57 24Q57 32 64.50 39Q72 46 82 46Q91 46 98 39Q105 32 105 24Q105 14 98 6.50Q91-1 82-1Q72-1 64.50 6.50Q57 14 57 24Z"  horiz-adv-x="162" vert-adv-y="1000"  />

      
      <glyph glyph-name="uni2f" unicode="&#x2f;" d="M-6-208L-30-199L308 709L331 700L-6-208Z"  horiz-adv-x="301" vert-adv-y="1000"  />

      
      <glyph glyph-name="uni30" unicode="&#x30;" d="M73 350Q73 513 126 611Q178 708 289 708Q364 708 413 660Q505 572 505 350Q505 243 484 165Q463 85 413.50 38.50Q364-8 291-8Q181-8 127 89Q73 186 73 350M103 350Q103 193 150 106Q197 19 291 19Q476 19 476 350Q476 681 289 681Q103 681 103 350Z"  horiz-adv-x="579" vert-adv-y="1000"  />

      
      <glyph glyph-name="uni31" unicode="&#x31;" d="M70 562L53 584L205 707L224 707L224 0L195 0L195 664L70 562Z"  horiz-adv-x="366" vert-adv-y="1000"  />

      
      <glyph glyph-name="uni32" unicode="&#x32;" d="M465 0L56 0L56 24Q106 72 137 105Q169 139 225 202Q280 266 315 316Q349 365 375 426Q402 488 402 535Q402 594 362 637Q323 680 251 680Q195 680 148 645Q102 610 91 540L66 548Q75 624 130 666Q185 708 251 708Q338 708 385 657Q432 605 432 541Q432 485 401 417Q369 347 331 293Q298 245 237 175Q185 116 153 84L93 27L465 27L465 0Z"  horiz-adv-x="531" vert-adv-y="1000"  />

      
      <glyph glyph-name="uni33" unicode="&#x33;" d="M251-9Q183-9 130.50 22Q78 53 53 114L72 132Q96 76 144.50 48Q193 20 254 20Q333 20 381 68Q429 116 429 189Q429 256 382 300Q335 344 269 344L205 344L205 372L262 372Q315 372 359 419Q402 465 402 532Q402 603 361.50 641.50Q321 680 251 680Q134 680 90 576L72 591Q91 646 139 677.50Q187 709 252 709Q336 709 383.50 662.50Q431 616 431 533Q431 477 400.50 430Q370 383 318 363L318 360Q382 351 420 301Q458 251 458 189Q458 100 400 45Q342-9 251-9Z"  horiz-adv-x="534" vert-adv-y="1000"  />

      
      <glyph glyph-name="uni34" unicode="&#x34;" d="M382 0L354 0L354 193L27 193L27 210L347 700L380 700L67 222L354 222L354 450L382 450L382 222L490 222L490 193L382 193L382 0Z"  horiz-adv-x="528" vert-adv-y="1000"  />

      
      <glyph glyph-name="uni35" unicode="&#x35;" d="M126 378L167 700L460 700L460 672L191 672L157 410Q198 422 236 422Q335 422 396 364Q458 307 458 213Q458 113 397 52Q336-9 251-9Q188-9 135.50 20.50Q83 50 53 106L72 125Q99 75 147.50 47.50Q196 20 251 20Q327 20 378 74Q429 130 429 212Q429 290 373 343Q317 396 228 396Q178 396 126 378Z"  horiz-adv-x="520" vert-adv-y="1000"  />

      
      <glyph glyph-name="uni36" unicode="&#x36;" d="M57 248Q57 338 86.50 421Q116 504 165 563Q266 682 391 709L404 687Q290 662 198 558Q107 457 89 294Q112 353 163.50 390Q215 427 285 427Q378 427 434 367Q490 306 490 211Q490 119 429 55Q369-9 289-9Q179-9 117 65Q57 138 57 248M87 249Q87 154 139 87Q191 20 288 20Q359 20 410 75Q461 130 461 209Q461 292 413 346Q365 400 278 400Q202 400 150 353Q100 306 87 249Z"  horiz-adv-x="547" vert-adv-y="1000"  />

      
      <glyph glyph-name="uni37" unicode="&#x37;" d="M391 672L37 672L37 700L428 700L428 685L154 0L122 0L391 672Z"  horiz-adv-x="466" vert-adv-y="1000"  />

      
      <glyph glyph-name="uni38" unicode="&#x38;" d="M276 374L312 374Q365 374 411 418Q456 463 456 526Q456 598 407 638Q358 680 292 680Q227 680 179 638Q131 596 131 526Q131 463 176 418Q223 374 276 374M310 346L281 346Q210 346 157 299Q106 252 106 185Q106 113 161 67Q217 20 293 20Q372 20 427 65Q482 111 482 185Q482 258 432 302Q382 346 310 346M76 181Q76 244 117 294Q158 345 227 358L227 361Q174 375 138 424Q102 474 102 527Q102 609 157 658Q213 709 293 709Q374 709 430 658Q486 608 486 527Q486 473 451.50 426.50Q417 380 360 362L360 359Q427 352 469 302Q511 252 511 183Q511 96 446 43Q382-9 294-9Q205-9 141 43Q76 96 76 181Z"  horiz-adv-x="588" vert-adv-y="1000"  />

      
      <glyph glyph-name="uni39" unicode="&#x39;" d="M489 451Q489 262 394 137Q300 13 152-9L141 14Q274 36 360 139Q447 244 457 404Q435 348 383.50 314Q332 280 262 280Q169 280 112 342Q55 404 55 493Q55 585 119 646Q183 709 265 709Q376 709 432 635Q489 561 489 451M459 450Q459 546 410 613Q362 680 267 680Q194 680 139 625Q84 571 84 495Q84 417 133 362Q182 307 268 307Q346 307 395 350Q446 393 459 450Z"  horiz-adv-x="546" vert-adv-y="1000"  />

      
      <glyph glyph-name="uni3a" unicode="&#x3a;" d="M138 436Q138 444 145.50 451Q153 458 163 458Q172 458 179 451Q186 444 186 436Q186 426 179 418.50Q172 411 163 411Q153 411 145.50 418.50Q138 426 138 436M138 24Q138 32 145.50 39Q153 46 163 46Q172 46 179 39Q186 32 186 24Q186 14 179 6.50Q172-1 163-1Q153-1 145.50 6.50Q138 14 138 24Z"  horiz-adv-x="324" vert-adv-y="1000"  />

      
      <glyph glyph-name="uni3b" unicode="&#x3b;" d="M137 21Q137 31 144.50 37.50Q152 44 164 44Q184 44 198.50 23Q213 2 213-31Q213-74 188.50-105.50Q164-137 126-147L119-132Q146-123 166-99Q186-75 188-44Q190 0 170 10Q169 0 156 0Q149 0 143 6.50Q137 13 137 21M138 436Q138 444 145.50 451Q153 458 163 458Q172 458 179 451Q186 444 186 436Q186 426 179 418.50Q172 411 163 411Q153 411 145.50 418.50Q138 426 138 436Z"  horiz-adv-x="326" vert-adv-y="1000"  />

      
      <glyph glyph-name="uni3c" unicode="&#x3c;" d="M473 129L473 97L70 356L70 368L473 624L473 593L110 362L473 129Z"  horiz-adv-x="586" vert-adv-y="1000"  />

      
      <glyph glyph-name="uni3d" unicode="&#x3d;" d="M513 430L73 430L73 456L513 456L513 430M513 264L73 264L73 290L513 290L513 264Z"  horiz-adv-x="586" vert-adv-y="1000"  />

      
      <glyph glyph-name="uni3e" unicode="&#x3e;" d="M516 368L516 356L113 97L113 129L476 362L113 593L113 624L516 368Z"  horiz-adv-x="586" vert-adv-y="1000"  />

      
      <glyph glyph-name="uni3f" unicode="&#x3f;" d="M388 535Q388 598 342 639Q296 680 224 680Q122 680 58 592L40 609Q68 654 119 681.50Q170 709 227 709Q317 709 366 660Q417 612 417 540Q417 489 395.50 450.50Q374 412 343 389Q312 366 281.50 344Q251 322 229.50 291.50Q208 261 208 221Q208 199 212 182L186 180Q181 203 181 226Q181 302 254 353Q258 356 279 371Q300 386 306.50 391.50Q313 397 330 411.50Q347 426 354 437Q361 448 371 464Q381 480 384.50 497.50Q388 515 388 535M171 24Q171 32 178.50 39Q186 46 196 46Q205 46 212 39Q219 32 219 24Q219 14 212 6.50Q205-1 196-1Q186-1 178.50 6.50Q171 14 171 24Z"  horiz-adv-x="455" vert-adv-y="1000"  />

      
      <glyph glyph-name="uni40" unicode="&#x40;" d="M718 0L674 0L674 67Q646 34 600.50 12.50Q555-9 510-9Q408-9 347 55Q286 119 286 225Q286 324 356 391Q427 459 531 459Q626 459 702 411L702 27L723 27Q813 27 865 97Q918 168 918 266Q918 424 805 528Q692 632 520 632Q339 632 221 515Q103 398 103 225Q103 55 222-64Q340-182 520-182Q577-182 628-170L633-196Q577-209 520-209Q328-209 202-83Q76 42 76 225Q76 407 202 533Q328 659 520 659Q703 659 824 549Q945 440 945 267Q945 158 885 79Q827 0 718 0M514 18Q561 18 607 43Q652 68 674 99L674 393Q611 432 530 432Q439 432 377 371Q315 311 315 224Q315 129 369.50 73.50Q424 18 514 18Z"  horiz-adv-x="1021" vert-adv-y="1000"  />

      
      <glyph glyph-name="uni41" unicode="&#x41;" d="M57 0L26 0L334 707L356 707L664 0L632 0L519 260L169 260L57 0M507 288L344 663L181 288L507 288Z"  horiz-adv-x="690" vert-adv-y="1000"  />

      
      <glyph glyph-name="uni42" unicode="&#x42;" d="M116 0L116 700Q154 700 197 701Q240 702 293 702Q511 702 511 530Q511 463 469 419.50Q427 376 361 364L361 362Q447 354 493.50 310Q540 266 540 192Q540 96 474.50 47Q409-2 294-2Q242-2 199-1Q156 0 116 0M296 346L146 346L146 28Q178 28 214 27Q250 26 294 26Q398 26 454 68.50Q510 111 510 194Q510 266 454 306Q398 346 296 346M291 674Q228 674 146 672L146 373L302 373Q378 373 429 415Q481 457 481 526Q481 674 291 674Z"  horiz-adv-x="617" vert-adv-y="1000"  />

      
      <glyph glyph-name="uni43" unicode="&#x43;" d="M606 90L619 67Q583 32 525 11.50Q467-9 404-9Q249-9 153 89Q57 188 57 350Q57 505 151 606Q245 709 395 709Q526 709 606 644L591 623Q519 680 396 680Q258 680 173 586Q88 492 88 350Q88 202 176 111Q264 20 406 20Q524 20 606 90Z"  horiz-adv-x="657" vert-adv-y="1000"  />

      
      <glyph glyph-name="uni44" unicode="&#x44;" d="M123 0L116 0L116 700L127 700Q168 700 201 701Q267 703 285 703Q386 703 463.50 675.50Q541 648 587 599.50Q633 551 655.50 491Q678 431 678 361Q678 204 573 100Q470-2 277-2Q232-2 199-1Q166 0 123 0M283 675Q265 675 209 673Q182 672 146 672L146 28Q164 28 184 28Q204 28 220 27.50Q236 27 249 26.50Q262 26 270 26L278 26Q456 26 551 120Q647 215 647 361Q647 499 556 587Q467 675 283 675Z"  horiz-adv-x="735" vert-adv-y="1000"  />

      
      <glyph glyph-name="uni45" unicode="&#x45;" d="M506 0L116 0L116 700L496 700L496 672L146 672L146 370L466 370L466 342L146 342L146 28L506 28L506 0Z"  horiz-adv-x="575" vert-adv-y="1000"  />

      
      <glyph glyph-name="uni46" unicode="&#x46;" d="M146 0L116 0L116 700L504 700L504 672L146 672L146 350L474 350L474 322L146 322L146 0Z"  horiz-adv-x="544" vert-adv-y="1000"  />

      
      <glyph glyph-name="uni47" unicode="&#x47;" d="M631 296L413 296L413 324L660 324L660 87Q614 42 541 16Q469-9 398-9Q246-9 151 89Q57 187 57 350Q57 502 150 606Q244 709 393 709Q524 709 607 644L592 621Q521 680 397 680Q258 680 173 586Q88 492 88 350Q88 202 174 110Q261 20 400 20Q466 20 529 42Q594 64 631 102L631 296Z"  horiz-adv-x="727" vert-adv-y="1000"  />

      
      <glyph glyph-name="uni48" unicode="&#x48;" d="M656 0L627 0L627 343L146 343L146 0L116 0L116 700L146 700L146 371L627 371L627 700L656 700L656 0Z"  horiz-adv-x="772" vert-adv-y="1000"  />

      
      <glyph glyph-name="uni49" unicode="&#x49;" d="M173 0L143 0L143 700L173 700L173 0Z"  horiz-adv-x="316" vert-adv-y="1000"  />

      
      <glyph glyph-name="uni4a" unicode="&#x4a;" d="M204 700L233 700L233 150Q233 70 203 30.50Q173-9 104-9Q52-9 17 20L29 43Q61 20 101 20Q158 20 181 53Q204 86 204 153L204 700Z"  horiz-adv-x="350" vert-adv-y="1000"  />

      
      <glyph glyph-name="uni4b" unicode="&#x4b;" d="M536 700L577 700L233 367L589 0L546 0L192 365L536 700M146 0L116 0L116 700L146 700L146 0Z"  horiz-adv-x="624" vert-adv-y="1000"  />

      
      <glyph glyph-name="uni4c" unicode="&#x4c;" d="M535 0L116 0L116 700L146 700L146 28L535 28L535 0Z"  horiz-adv-x="554" vert-adv-y="1000"  />

      
      <glyph glyph-name="uni4d" unicode="&#x4d;" d="M146 0L116 0L116 700L147 700L444 295L732 700L761 700L761 0L732 0L732 655L445 251L440 251L146 652L146 0Z"  horiz-adv-x="877" vert-adv-y="1000"  />

      
      <glyph glyph-name="uni4e" unicode="&#x4e;" d="M683 700L683 0L659 0L144 646L144 0L116 0L116 700L140 700L654 52L654 700L683 700Z"  horiz-adv-x="799" vert-adv-y="1000"  />

      
      <glyph glyph-name="uni4f" unicode="&#x4f;" d="M57 350Q57 502 156 605Q255 709 403 709Q550 709 649 606Q749 505 749 350Q749 197 649 94Q550-9 403-9Q256-9 156 93Q57 196 57 350M403 20Q538 20 628 114Q718 208 718 350Q718 491 627 585Q537 680 403 680Q270 680 178 585Q88 490 88 350Q88 208 178 114Q269 20 403 20Z"  horiz-adv-x="807" vert-adv-y="1000"  />

      
      <glyph glyph-name="uni50" unicode="&#x50;" d="M146 292L146 0L116 0L116 700Q156 700 197 701Q238 702 276 702Q415 702 468 636Q517 579 517 496Q517 408 456 347Q394 287 271 287Q226 287 146 292M279 674Q234 674 146 672L146 320Q226 315 269 315Q374 315 430.50 364.50Q487 414 487 497Q487 580 435 627Q383 674 279 674Z"  horiz-adv-x="575" vert-adv-y="1000"  />

      
      <glyph glyph-name="uni51" unicode="&#x51;" d="M57 350Q57 502 156 605Q255 709 403 709Q550 709 649 606Q749 505 749 350Q749 181 631 76L695 0L657 0L609 58Q518-9 403-9Q256-9 156 93Q57 196 57 350M403 20Q511 20 590 81L529 156L548 174L612 98Q718 194 718 350Q718 491 627 585Q537 680 403 680Q270 680 178 585Q88 490 88 350Q88 208 178 114Q269 20 403 20Z"  horiz-adv-x="807" vert-adv-y="1000"  />

      
      <glyph glyph-name="uni52" unicode="&#x52;" d="M146 306L146 0L116 0L116 700Q158 700 198 701Q239 702 267 702Q509 702 509 506Q509 434 460 381Q410 327 332 312L586 0L549 0L300 306L146 306M265 674Q234 674 146 672L146 334L282 334Q358 334 417 383Q478 432 478 506Q478 674 265 674Z"  horiz-adv-x="621" vert-adv-y="1000"  />

      
      <glyph glyph-name="uni53" unicode="&#x53;" d="M455 170Q455 214 434 247Q413 280 379.50 299Q346 318 306 333.50Q266 349 225.50 365Q185 381 151.50 401.50Q118 422 97 457Q76 492 76 540Q76 615 130 662Q184 709 276 709Q332 709 381 690Q430 671 460 638L443 617Q382 680 275 680Q198 680 152.50 641.50Q107 603 107 540Q107 489 135 455Q148 438 169 424Q190 410 202.50 404Q215 398 251 384Q287 370 296 366Q363 340 388 328Q432 308 459 267Q486 226 486 171Q486 90 423 40Q362-9 267-9Q206-9 144 18Q82 46 57 90L76 110Q106 70 159 44Q213 20 265 20Q344 20 399 59Q455 100 455 170Z"  horiz-adv-x="543" vert-adv-y="1000"  />

      
      <glyph glyph-name="uni54" unicode="&#x54;" d="M281 672L10 672L10 700L581 700L581 672L310 672L310 0L281 0L281 672Z"  horiz-adv-x="591" vert-adv-y="1000"  />

      
      <glyph glyph-name="uni55" unicode="&#x55;" d="M615 700L645 700L645 294Q645 144 571 68Q498-7 385-7Q261-7 183 73Q106 153 106 301L106 700L136 700L136 305Q136 170 205 95Q274 21 385 21Q491 21 553 92.50Q615 164 615 301L615 700Z"  horiz-adv-x="751" vert-adv-y="1000"  />

      
      <glyph glyph-name="uni56" unicode="&#x56;" d="M609 700L640 700L341-7L322-7L16 700L48 700L333 40L609 700Z"  horiz-adv-x="656" vert-adv-y="1000"  />

      
      <glyph glyph-name="uni57" unicode="&#x57;" d="M901 700L930 700L725 0L702 0L476 647L256 0L233 0L17 700L50 700L247 59L465 700L489 700L713 58L901 700Z"  horiz-adv-x="948" vert-adv-y="1000"  />

      
      <glyph glyph-name="uni58" unicode="&#x58;" d="M577 700L613 700L348 356L622 0L586 0L328 333L71 0L35 0L310 356L46 700L82 700L329 379L577 700Z"  horiz-adv-x="657" vert-adv-y="1000"  />

      
      <glyph glyph-name="uni59" unicode="&#x59;" d="M516 700L550 700L297 311L297 0L268 0L268 311L17 700L52 700L283 339L516 700Z"  horiz-adv-x="567" vert-adv-y="1000"  />

      
      <glyph glyph-name="uni5a" unicode="&#x5a;" d="M530 672L60 672L60 700L574 700L574 684L83 28L584 28L584 0L40 0L40 16L530 672Z"  horiz-adv-x="624" vert-adv-y="1000"  />

      
      <glyph glyph-name="uni5b" unicode="&#x5b;" d="M273-200L60-200L60 650L273 650L273 623L88 623L88-173L273-173L273-200Z"  horiz-adv-x="276" vert-adv-y="1000"  />

      
      <glyph glyph-name="uni5c" unicode="&#x5c;" d="M-30 700L-7 709L331-199L307-208L-30 700Z"  horiz-adv-x="301" vert-adv-y="1000"  />

      
      <glyph glyph-name="uni5d" unicode="&#x5d;" d="M3 650L216 650L216-200L3-200L3-173L187-173L187 623L3 623L3 650Z"  horiz-adv-x="276" vert-adv-y="1000"  />

      
      <glyph glyph-name="uni5e" unicode="&#x5e;" d="M86 450L55 450L227 708L244 708L415 450L383 450L236 676L86 450Z"  horiz-adv-x="470" vert-adv-y="1000"  />

      
      <glyph glyph-name="uni5f" unicode="&#x5f;" d="M266-200L0-200L0-172L266-172L266-200Z"  horiz-adv-x="266" vert-adv-y="1000"  />

      
      <glyph glyph-name="uni60" unicode="&#x60;" d="M190 564L172 552L60 693L81 710L190 564Z"  horiz-adv-x="250" vert-adv-y="1000"  />

      
      <glyph glyph-name="uni61" unicode="&#x61;" d="M91 394L82 418Q147 459 220 459Q305 459 343.50 415Q382 371 382 281L382 0L354 0L354 78Q292-5 187-5Q124-5 85.50 30.50Q47 66 47 124Q47 188 94 224.50Q141 261 218 261Q302 261 354 224Q354 268 353 283Q351 349 335 375Q303 432 217 432Q156 432 91 394M193 22Q233 22 269 36Q300 50 316 64Q332 78 354 107L354 197Q299 237 220 237Q162 237 119 209Q77 180 77 126Q77 79 109.50 50.50Q142 22 193 22Z"  horiz-adv-x="457" vert-adv-y="1000"  />

      
      <glyph glyph-name="uni62" unicode="&#x62;" d="M85 46L85 700L114 700L114 384Q142 417 189.50 438Q237 459 284 459Q384 459 441 396Q499 334 499 232Q499 122 432 56Q364-9 258-9Q153-9 85 46M279 432Q228 432 182 407Q137 384 114 353L114 64Q178 18 260 18Q352 18 410 75Q469 132 469 228Q469 321 417.50 376.50Q366 432 279 432Z"  horiz-adv-x="550" vert-adv-y="1000"  />

      
      <glyph glyph-name="uni63" unicode="&#x63;" d="M439 83L453 64Q426 29 381.50 10Q337-9 287-9Q182-9 117 55Q52 120 52 225Q52 324 115 391Q180 459 272 459Q386 459 444 404L430 381Q372 432 277 432Q196 432 138 372Q81 314 81 225Q81 131 139 74Q198 18 289 18Q333 18 373.50 35.50Q414 53 439 83Z"  horiz-adv-x="491" vert-adv-y="1000"  />

      
      <glyph glyph-name="uni64" unicode="&#x64;" d="M467 0L439 0L439 71Q409 36 365 14Q321-8 275-8Q174-8 113 55Q52 117 52 224Q52 327 121 393Q192 459 295 459Q379 459 439 414L439 700L467 700L467 0M279 19Q326 19 370 44Q416 70 439 99L439 386Q374 432 295 432Q203 432 142 374Q81 316 81 225Q81 130 135 75Q191 19 279 19Z"  horiz-adv-x="553" vert-adv-y="1000"  />

      
      <glyph glyph-name="uni65" unicode="&#x65;" d="M441 80L452 59Q425 27 380.50 9Q336-9 288-9Q183-9 118 55Q52 119 52 225Q52 329 110 393Q168 459 275 459Q363 459 419 403Q476 348 476 257Q476 250 474 226L83 226Q84 130 140 74Q196 18 289 18Q384 18 441 80M271 432Q188 432 137.50 382Q87 332 81 250L447 250Q448 334 400 383Q352 432 271 432Z"  horiz-adv-x="527" vert-adv-y="1000"  />

      
      <glyph glyph-name="uni66" unicode="&#x66;" d="M131 0L103 0L103 523Q103 709 256 709Q325 709 368 672L357 650Q313 682 259 682Q131 682 131 514L131 450L322 450L322 423L131 423L131 0Z"  horiz-adv-x="338" vert-adv-y="1000"  />

      
      <glyph glyph-name="uni67" unicode="&#x67;" d="M17-69Q17-18 53.50 16.50Q90 51 157 64Q140 84 140 110Q140 140 159 159Q115 178 90 215.50Q65 253 65 301Q65 369 113 414Q163 459 238 459Q306 459 351 423L477 458L477 431L374 403Q411 362 411 301Q411 233 363 188Q314 144 238 144Q203 144 181 151Q166 136 167 109.50Q168 83 185 68Q216 72 239 72Q341 72 400 35Q461-2 461-69Q461-136 400-172Q340-208 239-208Q136-208 76.50-171.50Q17-135 17-69M47-69Q47-121 99.50-151Q152-181 239-181Q326-181 379-151Q431-123 431-69Q431-16 378 14Q326 45 239 45Q151 45 99 14.50Q47-16 47-69M238 432Q238 432 206.50 432Q175 432 135 395Q95 358 95 301Q95 244 135 207Q176 171 238 171Q300 171 341 207Q381 244 381 301Q381 358 341 395Q301 432 238 432Z"  horiz-adv-x="487" vert-adv-y="1000"  />

      
      <glyph glyph-name="uni68" unicode="&#x68;" d="M114 0L85 0L85 700L114 700L114 382Q142 415 190.50 436.50Q239 458 287 458Q383 458 430 408.50Q477 359 477 254L477 0L449 0L449 248Q449 341 408 386Q367 431 282 431Q233 431 184 408Q136 385 114 354L114 0Z"  horiz-adv-x="553" vert-adv-y="1000"  />

      
      <glyph glyph-name="uni69" unicode="&#x69;" d="M141 0L113 0L113 450L141 450L141 0M105 629Q105 638 112 644.50Q119 651 128 651Q136 651 142.50 644.50Q149 638 149 629Q149 619 142.50 612.50Q136 606 128 606Q119 606 112 612.50Q105 619 105 629Z"  horiz-adv-x="255" vert-adv-y="1000"  />

      
      <glyph glyph-name="uni6a" unicode="&#x6a;" d="M115 450L143 450L143-33Q143-208 2-208Q-46-208-83-182L-73-159Q-42-181-2-181Q115-181 115-32L115 450M106 629Q106 638 113 644.50Q120 651 129 651Q137 651 143.50 644.50Q150 638 150 629Q150 619 143.50 612.50Q137 606 129 606Q120 606 113 612.50Q106 619 106 629Z"  horiz-adv-x="257" vert-adv-y="1000"  />

      
      <glyph glyph-name="uni6b" unicode="&#x6b;" d="M376 450L414 450L189 237L433 0L393 0L153 235L376 450M114 0L85 0L85 700L114 700L114 0Z"  horiz-adv-x="457" vert-adv-y="1000"  />

      
      <glyph glyph-name="uni6c" unicode="&#x6c;" d="M85 113L85 700L114 700L114 134Q114 76 131 49.50Q148 23 187 23Q225 23 257 46L266 23Q228-4 179-4Q130-4 107.50 24.50Q85 53 85 113Z"  horiz-adv-x="276" vert-adv-y="1000"  />

      
      <glyph glyph-name="uni6d" unicode="&#x6d;" d="M731 296L731 0L703 0L703 288Q703 431 575 431Q473 431 420 347Q422 337 422 316L422 0L394 0L394 316Q394 368 360 399.50Q326 431 266 431Q220 431 178.50 408.50Q137 386 114 352L114 0L85 0L85 450L114 450L114 382Q139 416 183.50 437Q228 458 274 458Q328 458 365.50 435Q403 412 416 371Q440 410 486.50 434Q533 458 583 458Q731 458 731 296Z"  horiz-adv-x="807" vert-adv-y="1000"  />

      
      <glyph glyph-name="uni6e" unicode="&#x6e;" d="M114 0L85 0L85 450L114 450L114 382Q142 415 191 436.50Q240 458 287 458Q383 458 430 408.50Q477 359 477 254L477 0L449 0L449 248Q449 341 408 386Q367 431 282 431Q233 431 185 408Q138 385 114 354L114 0Z"  horiz-adv-x="553" vert-adv-y="1000"  />

      
      <glyph glyph-name="uni6f" unicode="&#x6f;" d="M117 57Q52 124 52 225Q52 326 117 393Q182 459 284 459Q386 459 451 393Q517 327 517 225Q517 123 451 57Q386-9 284-9Q182-9 117 57M284 432Q284 432 239.50 432Q195 432 138 374Q81 316 81 225Q81 134 138 76Q195 18 284 18Q373 18 430 76Q487 134 487 225Q487 316 430 374Q373 432 284 432Z"  horiz-adv-x="569" vert-adv-y="1000"  />

      
      <glyph glyph-name="uni70" unicode="&#x70;" d="M114-200L85-200L85 450L114 450L114 384Q141 417 189 438Q237 459 287 459Q386 459 443 396Q501 334 501 232Q501 127 437 59Q374-9 272-9Q174-9 114 36L114-200M281 432Q232 432 185 410Q138 388 114 356L114 66Q182 18 271 18Q359 18 415 77Q471 136 471 229Q471 322 420.50 377Q370 432 281 432Z"  horiz-adv-x="552" vert-adv-y="1000"  />

      
      <glyph glyph-name="uni71" unicode="&#x71;" d="M468-200L440-200L440 62Q412 31 367 11Q322-9 278-9Q175-9 114 55Q52 120 52 225Q52 324 122 391Q193 459 297 459Q392 459 468 411L468-200M281 18Q327 18 373 41Q418 64 440 94L440 393Q377 432 296 432Q205 432 143 371Q81 311 81 224Q81 130 135.50 74Q190 18 281 18Z"  horiz-adv-x="553" vert-adv-y="1000"  />

      
      <glyph glyph-name="uni72" unicode="&#x72;" d="M114 0L85 0L85 450L114 450L114 385Q160 458 241 458Q288 458 311 441L302 414Q273 431 237 431Q163 431 114 352L114 0Z"  horiz-adv-x="320" vert-adv-y="1000"  />

      
      <glyph glyph-name="uni73" unicode="&#x73;" d="M323 114Q323 145 304 165.50Q285 186 257 196Q229 206 196 218Q163 230 135 242Q107 254 88 280.50Q69 307 69 346Q69 397 106.50 428Q144 459 206 459Q245 459 280.50 445.50Q316 432 335 411L321 390Q281 433 205 433Q158 433 128 408.50Q98 384 98 347Q98 309 124 285Q150 261 187.50 249.50Q225 238 262.50 225.50Q300 213 326 186Q352 159 352 116Q352 57 310 24Q268-9 201-9Q157-9 115 10Q72 29 56 53L74 71Q91 48 128.50 32.50Q166 17 202 17Q254 17 288.50 42.50Q323 68 323 114Z"  horiz-adv-x="409" vert-adv-y="1000"  />

      
      <glyph glyph-name="uni74" unicode="&#x74;" d="M75 171L75 575L104 575L104 450L298 450L298 423L104 423L104 180Q104 99 131.50 60.50Q159 22 221 22Q262 22 294 46L306 23Q266-5 216-5Q143-5 109 38.50Q75 82 75 171Z"  horiz-adv-x="344" vert-adv-y="1000"  />

      
      <glyph glyph-name="uni75" unicode="&#x75;" d="M434 450L462 450L462 0L434 0L434 78Q404 41 353.50 16Q303-9 253-9Q75-9 75 194L75 450L104 450L104 201Q104 108 142.50 63Q181 18 262 18Q313 18 361 45Q409 74 434 107L434 450Z"  horiz-adv-x="547" vert-adv-y="1000"  />

      
      <glyph glyph-name="uni76" unicode="&#x76;" d="M422 450L452 450L246-7L229-7L16 450L49 450L196 132L239 35Q253 71 282 136L422 450Z"  horiz-adv-x="469" vert-adv-y="1000"  />

      
      <glyph glyph-name="uni77" unicode="&#x77;" d="M637 450L666 450L519-7L498-7L363 349L343 407L321 345L189-7L170-7L17 450L48 450L161 108L173 70L182 41Q186 51 196 79Q206 107 207 108L333 450L354 450L482 110L508 40Q523 91 531 115L637 450Z"  horiz-adv-x="684" vert-adv-y="1000"  />

      
      <glyph glyph-name="uni78" unicode="&#x78;" d="M405 450L439 450L262 232L449 0L414 0L242 212L70 0L36 0L223 231L46 450L81 450L242 250L405 450Z"  horiz-adv-x="485" vert-adv-y="1000"  />

      
      <glyph glyph-name="uni79" unicode="&#x79;" d="M423 450L455 450L271 0Q222-119 186-158Q150-200 104-200Q71-200 34-181L44-159Q77-174 100-174Q139-174 170-139Q201-104 234-24L244 0L17 450L50 450L223 105Q238 77 258 32Q263 45 287 107L423 450Z"  horiz-adv-x="472" vert-adv-y="1000"  />

      
      <glyph glyph-name="uni7a" unicode="&#x7a;" d="M385 423L64 423L64 450L429 450L429 434L91 27L424 27L424 0L49 0L49 16L385 423Z"  horiz-adv-x="478" vert-adv-y="1000"  />

      
      <glyph glyph-name="uni7b" unicode="&#x7b;" d="M110-80L110 114Q110 165 84.50 189Q59 213 20 212L20 238Q59 238 84.50 265Q110 292 110 348L110 527Q110 589 135.50 619.50Q161 650 219 650L274 650L274 623L224 623Q178 623 158 598.50Q138 574 138 520L138 340Q138 292 117.50 261.50Q97 231 63 226Q138 217 138 112L138-72Q138-173 230-173L274-173L274-200L222-200Q110-200 110-80Z"  horiz-adv-x="294" vert-adv-y="1000"  />

      
      <glyph glyph-name="uni7c" unicode="&#x7c;" d="M172 0L143 0L143 700L172 700L172 0Z"  horiz-adv-x="315" vert-adv-y="1000"  />

      
      <glyph glyph-name="uni7d" unicode="&#x7d;" d="M184 114L184-80Q184-200 72-200L20-200L20-173L64-173Q156-173 156-72L156 112Q156 217 231 226Q197 231 176.50 261.50Q156 292 156 340L156 520Q156 574 136 598.50Q116 623 70 623L20 623L20 650L75 650Q133 650 158.50 619.50Q184 589 184 527L184 348Q184 292 209.50 265Q235 238 274 238L274 212Q235 213 209.50 189Q184 165 184 114Z"  horiz-adv-x="294" vert-adv-y="1000"  />

      
      <glyph glyph-name="uni7e" unicode="&#x7e;" d="M79 335L63 354Q123 411 184 411Q227 411 301 374Q375 337 414 337Q463 337 509 383L523 363Q468 311 413 311Q372 311 297 348Q221 386 183 386Q132 386 79 335Z"  horiz-adv-x="586" vert-adv-y="1000"  />

      
      <glyph glyph-name="unia1" unicode="&#xa1;" d="M141 284L171 284L171-242L141-242L141 284M180 434Q180 426 172.50 419Q165 412 155 412Q146 412 139 419Q132 426 132 434Q132 444 139 451.50Q146 459 155 459Q165 459 172.50 451.50Q180 444 180 434Z"  horiz-adv-x="310" vert-adv-y="1000"  />

      
      <glyph glyph-name="unia2" unicode="&#xa2;" d="M481 83L495 64Q440-6 335-9L335-120L307-120L307-8Q211-1 152.50 62.50Q94 126 94 225Q94 321 155 388Q217 456 307 459L307 568L335 568L335 458Q434 453 486 404L472 381Q414 432 319 432Q238 432 180 372Q123 314 123 225Q123 131 181 74Q240 18 331 18Q375 18 415.50 35.50Q456 53 481 83Z"  horiz-adv-x="586" vert-adv-y="1000"  />

      
      <glyph glyph-name="unia3" unicode="&#xa3;" d="M170 290L85 290L85 314L163 314Q160 324 141 366Q107 438 107 514Q107 592 162 650Q217 708 308 708Q364 708 412.50 689Q461 670 491 637L475 616Q411 680 306 680Q232 680 184 629Q137 579 137 513Q137 470 146 437Q153 412 172 368Q191 324 194 314L375 314L375 290L200 290Q206 264 206 233Q206 144 155 73Q170 76 185 76Q224 76 300 50Q376 24 412 24Q472 24 524 73L539 52Q481-4 410-4Q374-4 296 22Q220 48 182 48Q119 48 64-7L49 15Q86 48 121 64Q177 131 177 230Q177 261 170 290Z"  horiz-adv-x="586" vert-adv-y="1000"  />

      
      <glyph glyph-name="unia4" unicode="&#xa4;" d="M125 499L30 595L48 613L143 518Q202 576 294 576Q384 576 445 518L546 619L564 601L463 499Q516 434 516 349Q516 264 463 199L559 101L541 83L445 180Q386 122 294 122Q203 122 143 179L40 77L22 95L125 199Q72 264 72 349Q72 434 125 499M99 349Q99 265 152 206Q206 147 294 147Q382 147 435 206Q489 264 489 349Q489 433 435 491Q382 550 294 550Q206 550 152 491Q99 432 99 349Z"  horiz-adv-x="586" vert-adv-y="1000"  />

      
      <glyph glyph-name="unia5" unicode="&#xa5;" d="M277 310L73 310L73 335L262 335L31 700L66 700L293 339L521 700L555 700L322 335L512 335L512 310L307 310L307 172L512 172L512 148L307 148L307 0L277 0L277 148L73 148L73 172L277 172L277 310Z"  horiz-adv-x="586" vert-adv-y="1000"  />

      
      <glyph glyph-name="unia6" unicode="&#xa6;" d="M172 700L172 440L143 440L143 700L172 700M143 0L143 260L172 260L172 0L143 0Z"  horiz-adv-x="315" vert-adv-y="1000"  />

      
      <glyph glyph-name="unia7" unicode="&#xa7;" d="M76 249Q76 319 119 368Q162 417 231 427Q184 446 155 481Q126 516 126 562Q126 622 166.50 661Q207 700 272 700Q353 700 396 642L379 622L356 645Q346 655 322 664Q298 673 271 673Q222 673 188 640Q154 607 154 559Q154 513 187 479.50Q220 446 274 428Q349 424 399 374Q448 325 448 249Q448 180 405 131Q362 82 293 72Q396 28 396-62Q396-122 355.50-161Q315-200 250-200Q169-200 126-142L143-122Q147-127 151.50-131.50Q156-136 160.50-140Q165-144 166-145Q176-155 200-164Q224-173 251-173Q300-173 334-140Q368-107 368-59Q368-13 335 20Q302 53 248 70Q175 74 124 125Q76 174 76 249M104 249Q104 183 151 139Q200 95 262 95Q326 95 373 139Q420 183 420 249Q420 316 373 360Q326 404 262 404Q197 404 150 360Q104 317 104 249Z"  horiz-adv-x="524" vert-adv-y="1000"  />

      
      <glyph glyph-name="unia8" unicode="&#xa8;" d="M60 626Q60 634 66.50 640.50Q73 647 82 647Q90 647 96 640.50Q102 634 102 626Q102 616 96 609.50Q90 603 82 603Q73 603 66.50 609.50Q60 616 60 626M271 626Q271 634 277.50 640.50Q284 647 293 647Q301 647 307.50 640.50Q314 634 314 626Q314 612 303 606Q292 600 281.50 606Q271 612 271 626Z"  horiz-adv-x="374" vert-adv-y="1000"  />

      
      <glyph glyph-name="unia9" unicode="&#xa9;" d="M509-209Q509-209 417-209Q325-209 202-84Q79 41 79 221Q79 402 202 526Q325 651 509 651Q693 651 816 526Q939 401 939 221Q939 41 816-84Q693-209 509-209M220 508Q104 389 104 221Q104 53 220-66Q335-184 509-184Q683-184 798-66Q914 53 914 221Q914 389 798 508Q683 626 509 626Q335 626 220 508M669 83L683 64Q656 29 611.50 10Q567-9 517-9Q412-9 347 55Q282 120 282 225Q282 324 345 391Q410 459 502 459Q616 459 674 404L660 381Q602 432 507 432Q426 432 368 372Q311 314 311 225Q311 131 369 74Q428 18 519 18Q563 18 603.50 35.50Q644 53 669 83Z"  horiz-adv-x="1018" vert-adv-y="1000"  />

      
      <glyph glyph-name="uniaa" unicode="&#xaa;" d="M104 604L90 621Q133 658 196 658Q255 658 286.50 627.50Q318 597 318 540L318 351L292 351L292 405Q252 348 168 348Q120 348 88.50 375Q57 402 57 442Q57 488 90 513.50Q123 539 180 539Q251 539 292 511L292 534Q292 635 191 635Q147 635 104 604M176 371Q247 371 292 424L292 492Q249 519 185 519Q142 519 113 498.50Q84 478 84 444Q84 412 110.50 391.50Q137 371 176 371Z"  horiz-adv-x="395" vert-adv-y="1000"  />

      
      <glyph glyph-name="uniab" unicode="&#xab;" d="M409 61L391 43L216 248L216 252L392 455L411 438L248 250L409 61M249 61L231 43L56 248L56 252L232 455L251 438L88 250L249 61Z"  horiz-adv-x="485" vert-adv-y="1000"  />

      
      <glyph glyph-name="uniac" unicode="&#xac;" d="M490 347L71 347L71 373L515 373L515 216L490 216L490 347Z"  horiz-adv-x="586" vert-adv-y="1000"  />

      
      <glyph glyph-name="uniad" unicode="&#xad;" d="M314 257L93 257L93 284L314 284L314 257Z"  horiz-adv-x="407" vert-adv-y="1000"  />

      
      <glyph glyph-name="uniae" unicode="&#xae;" d="M121 341Q57 405 57 496Q57 587 121 650Q185 714 276 714Q367 714 430 650Q494 587 494 496Q494 405 430 341Q367 278 276 278Q186 278 121 341M276 690Q276 690 236 690Q196 690 139 633Q82 576 82 496Q82 416 139 359Q196 302 276 302Q356 302 413 359Q470 416 470 496Q470 576 413 633Q356 690 276 690M218 479L218 360L196 360L196 640L267 640Q365 640 365 561Q365 533 346 511Q327 489 295 482L392 360L364 360L270 479L218 479M265 622L218 622L218 497L272 497Q300 497 321.50 515.50Q343 534 343 561Q343 622 265 622Z"  horiz-adv-x="551" vert-adv-y="1000"  />

      
      <glyph glyph-name="uniaf" unicode="&#xaf;" d="M302 624L60 624L60 649L302 649L302 624Z"  horiz-adv-x="362" vert-adv-y="1000"  />

      
      <glyph glyph-name="unib0" unicode="&#xb0;" d="M194 433Q137 433 97 473Q57 513 57 570Q57 627 97 666Q137 706 194 706Q251 706 290 667Q330 628 330 571Q330 513 290 473Q250 433 194 433M115 648Q83 616 83 570Q83 525 115 491Q149 459 194 459Q240 459 272 491Q305 524 305 570Q305 616 272 648Q240 681 194 681Q148 681 115 648Z"  horiz-adv-x="388" vert-adv-y="1000"  />

      
      <glyph glyph-name="unib1" unicode="&#xb1;" d="M279 421L73 421L73 447L279 447L279 652L305 652L305 447L513 447L513 421L305 421L305 268L279 268L279 421M513 180L73 180L73 206L513 206L513 180Z"  horiz-adv-x="586" vert-adv-y="1000"  />

      
      <glyph glyph-name="unib2" unicode="&#xb2;" d="M296 350L42 350L42 370L73 392L112 422L150 452Q184 480 218 524Q249 560 249 602Q249 637 226.50 659Q204 681 163 681Q129 681 102.50 663Q76 645 70 613L48 620Q54 658 87 681Q120 704 163 704Q218 704 247 676Q276 648 276 602Q276 504 78 373L296 373L296 350Z"  horiz-adv-x="330" vert-adv-y="1000"  />

      
      <glyph glyph-name="unib3" unicode="&#xb3;" d="M160 346Q67 346 36 410L53 423Q78 368 159 368Q204 368 232 390.50Q260 413 260 447Q260 478 234 498Q208 518 169 518L131 518L131 539L165 539Q196 539 220.50 561Q245 583 245 613Q245 646 221.50 664Q198 682 158 682Q87 682 62 630L47 644Q72 704 161 704Q213 704 242.50 681Q272 658 272 617Q272 588 253 564.50Q234 541 202 532L202 531Q240 527 263.50 502.50Q287 478 287 445Q287 401 251 373.50Q215 346 160 346Z"  horiz-adv-x="335" vert-adv-y="1000"  />

      
      <glyph glyph-name="unib4" unicode="&#xb4;" d="M169 710L190 693L78 552L60 564L169 710Z"  horiz-adv-x="250" vert-adv-y="1000"  />

      
      <glyph glyph-name="unib5" unicode="&#xb5;" d="M435 450L463 450L463 0L435 0L435 78Q405 41 354.50 16Q304-9 254-9Q145-9 105 61L105-200L76-200L76 450L105 450L105 201Q105 108 143.50 63Q182 18 263 18Q314 18 362 45Q410 74 435 107L435 450Z"  horiz-adv-x="549" vert-adv-y="1000"  />

      
      <glyph glyph-name="uni03BC" unicode="&#x03BC;" d="M435 450L463 450L463 0L435 0L435 78Q405 41 354.50 16Q304-9 254-9Q145-9 105 61L105-200L76-200L76 450L105 450L105 201Q105 108 143.50 63Q182 18 263 18Q314 18 362 45Q410 74 435 107L435 450Z"  horiz-adv-x="549" vert-adv-y="1000"  />

      
      <glyph glyph-name="unib6" unicode="&#xb6;" d="M56 481Q56 583 110 641.50Q164 700 259 700L379 700L379 673L285 673L285-42Q285-126 254-167Q223-208 153-208Q102-208 64-179L77-157Q108-181 151-181Q210-181 233.50-147Q257-113 257-43L257 263Q168 265 112 322Q56 381 56 481Z"  horiz-adv-x="417" vert-adv-y="1000"  />

      
      <glyph glyph-name="unib7" unicode="&#xb7;" d="M97 295Q97 303 104.50 310Q112 317 122 317Q131 317 138 310Q145 303 145 295Q145 285 138 277.50Q131 270 122 270Q112 270 104.50 277.50Q97 285 97 295Z"  horiz-adv-x="243" vert-adv-y="1000"  />

      
      <glyph glyph-name="unib8" unicode="&#xb8;" d="M60-178L70-161Q108-181 143-181Q179-181 201.50-166Q224-151 224-127Q224-73 142-73L136-73L136 0L155 0L155-56Q252-57 252-128Q252-161 223.50-181Q195-201 146-201Q109-201 60-178Z"  horiz-adv-x="312" vert-adv-y="1000"  />

      
      <glyph glyph-name="unib9" unicode="&#xb9;" d="M43 621L32 640L125 703L142 703L142 350L117 350L117 670L43 621Z"  horiz-adv-x="228" vert-adv-y="1000"  />

      
      <glyph glyph-name="uniba" unicode="&#xba;" d="M59 502Q59 571 105 614Q152 658 221 658Q289 658 336 614Q383 570 383 502Q383 432 337 389Q290 345 221 345Q152 345 105 389Q59 432 59 502M221 369Q278 369 316 406Q356 443 356 502Q356 560 316 597Q276 634 221 634Q166 634 126 597Q86 560 86 502Q86 443 126 406Q166 369 221 369Z"  horiz-adv-x="442" vert-adv-y="1000"  />

      
      <glyph glyph-name="unibb" unicode="&#xbb;" d="M428 252L428 248L254 43L235 61L396 250L233 438L252 455L428 252M268 252L268 248L94 43L75 61L236 250L73 438L92 455L268 252Z"  horiz-adv-x="485" vert-adv-y="1000"  />

      
      <glyph glyph-name="unibc" unicode="&#xbc;" d="M559 0L535 0L535 93L339 93L339 109L528 350L553 350L369 115L535 115L535 225L559 225L559 115L623 115L623 93L559 93L559 0M60 621L49 640L142 703L159 703L159 350L134 350L134 670L60 621M75-9L57 5L584 709L601 696L75-9Z"  horiz-adv-x="643" vert-adv-y="1000"  />

      
      <glyph glyph-name="unibd" unicode="&#xbd;" d="M619 0L365 0L365 20L396 42L435 72L473 102Q507 130 541 174Q572 210 572 252Q572 287 549.50 309Q527 331 486 331Q452 331 425.50 313Q399 295 393 263L371 270Q377 308 410 331Q443 354 486 354Q541 354 570 326Q599 298 599 252Q599 154 401 23L619 23L619 0M60 621L49 640L142 703L159 703L159 350L134 350L134 670L60 621M41-9L23 5L550 709L567 696L41-9Z"  horiz-adv-x="659" vert-adv-y="1000"  />

      
      <glyph glyph-name="unibe" unicode="&#xbe;" d="M161 346Q68 346 37 410L54 423Q79 368 160 368Q205 368 233 390.50Q261 413 261 447Q261 478 235 498Q209 518 170 518L132 518L132 539L166 539Q197 539 221.50 561Q246 583 246 613Q246 646 222.50 664Q199 682 159 682Q88 682 63 630L48 644Q74 704 162 704Q214 704 243.50 681Q273 658 273 617Q273 588 254 564.50Q235 541 203 532L203 531Q241 527 264.50 502.50Q288 478 288 445Q288 401 252 373.50Q216 346 161 346M594 0L570 0L570 93L374 93L374 109L563 350L588 350L404 115L570 115L570 225L594 225L594 115L658 115L658 93L594 93L594 0M121-9L103 5L630 709L647 696L121-9Z"  horiz-adv-x="679" vert-adv-y="1000"  />

      
      <glyph glyph-name="unibf" unicode="&#xbf;" d="M67-77Q67-140 113-181Q159-222 231-222Q333-222 397-134L415-151Q387-196 336-223.50Q285-251 228-251Q138-251 88-202Q38-154 38-82Q38 12 111 69Q120 76 141.50 91Q163 106 173.50 114Q184 122 200.50 138Q217 154 225.50 166.50Q234 179 240.50 198Q247 217 247 237Q247 259 243 276L269 278Q274 255 274 232Q274 156 200 104Q132 57 110 32Q67-16 67-77M284 434Q284 426 276.50 419Q269 412 259 412Q250 412 243 419Q236 426 236 434Q236 444 243 451.50Q250 459 259 459Q269 459 276.50 451.50Q284 444 284 434Z"  horiz-adv-x="455" vert-adv-y="1000"  />

      
      <glyph glyph-name="unic0" unicode="&#xc0;" d="M57 0L26 0L334 707L356 707L664 0L632 0L519 260L169 260L57 0M507 288L344 663L181 288L507 288M382 758L372 740L206 829L217 852L382 758Z"  horiz-adv-x="690" vert-adv-y="1000"  />

      
      <glyph glyph-name="unic1" unicode="&#xc1;" d="M57 0L26 0L334 707L356 707L664 0L632 0L519 260L169 260L57 0M507 288L344 663L181 288L507 288M477 852L488 829L321 740L312 758L477 852Z"  horiz-adv-x="690" vert-adv-y="1000"  />

      
      <glyph glyph-name="unic2" unicode="&#xc2;" d="M57 0L26 0L334 707L356 707L664 0L632 0L519 260L169 260L57 0M507 288L344 663L181 288L507 288M190 740L177 757L343 851L347 851L514 758L499 740L345 825L190 740Z"  horiz-adv-x="690" vert-adv-y="1000"  />

      
      <glyph glyph-name="unic3" unicode="&#xc3;" d="M57 0L26 0L334 707L356 707L664 0L632 0L519 260L169 260L57 0M507 288L344 663L181 288L507 288M193 772L182 790Q222 825 263 825Q294 825 346 801Q398 777 424 777Q465 777 497 812L508 793Q470 752 423 752Q396 752 341 775Q288 799 259 799Q226 799 193 772Z"  horiz-adv-x="690" vert-adv-y="1000"  />

      
      <glyph glyph-name="unic4" unicode="&#xc4;" d="M57 0L26 0L334 707L356 707L664 0L632 0L519 260L169 260L57 0M507 288L344 663L181 288L507 288M205 796Q205 805 212 811Q219 817 229 817Q238 817 245 811Q252 805 252 796Q252 787 245 780.50Q238 774 229 774Q205 774 205 796M439 796Q439 805 446 811Q453 817 463 817Q472 817 478.50 811Q485 805 485 796Q485 786 478.50 780Q472 774 463 774Q439 774 439 796Z"  horiz-adv-x="690" vert-adv-y="1000"  />

      
      <glyph glyph-name="unic5" unicode="&#xc5;" d="M244 779Q244 818 271.50 839Q299 860 344 860Q390 860 418 839Q446 818 446 779Q446 744 422.50 722.50Q399 701 360 697L664 0L632 0L519 260L169 260L57 0L26 0L329 697Q290 701 267 722.50Q244 744 244 779M507 288L344 663L181 288L507 288M344 715Q380 715 401.50 732Q423 749 423 779Q423 809 401.50 825Q380 841 344 841Q308 841 287.50 825Q267 809 267 779Q267 749 288 732Q309 715 344 715Z"  horiz-adv-x="690" vert-adv-y="1000"  />

      
      <glyph glyph-name="unic6" unicode="&#xc6;" d="M895 28L895 0L504 0L504 267L228 267L39 0L3 0L504 700L885 700L885 672L534 672L534 370L855 370L855 342L534 342L534 28L895 28M504 295L504 656L248 295L504 295Z"  horiz-adv-x="964" vert-adv-y="1000"  />

      
      <glyph glyph-name="unic7" unicode="&#xc7;" d="M308-177L318-160Q358-181 392-181Q428-181 450.50-166Q473-151 473-127Q473-73 391-73L385-73L385-8Q238-2 147 95Q57 192 57 350Q57 505 151 606Q245 709 395 709Q526 709 606 644L591 623Q519 680 396 680Q258 680 173 586Q88 492 88 350Q88 202 176 111Q264 20 406 20Q524 20 606 90L619 67Q583 32 525 11.50Q467-9 404-9L404-56Q502-58 502-128Q502-161 473.50-181Q445-201 397-201Q353-201 308-177Z"  horiz-adv-x="657" vert-adv-y="1000"  />

      
      <glyph glyph-name="unic8" unicode="&#xc8;" d="M506 0L116 0L116 700L496 700L496 672L146 672L146 370L466 370L466 342L146 342L146 28L506 28L506 0M365 758L355 740L189 829L200 852L365 758Z"  horiz-adv-x="575" vert-adv-y="1000"  />

      
      <glyph glyph-name="unic9" unicode="&#xc9;" d="M506 0L116 0L116 700L496 700L496 672L146 672L146 370L466 370L466 342L146 342L146 28L506 28L506 0M410 852L421 829L254 740L245 758L410 852Z"  horiz-adv-x="575" vert-adv-y="1000"  />

      
      <glyph glyph-name="unica" unicode="&#xca;" d="M153 740L140 757L306 851L310 851L477 758L462 740L308 825L153 740M506 0L116 0L116 700L496 700L496 672L146 672L146 370L466 370L466 342L146 342L146 28L506 28L506 0Z"  horiz-adv-x="575" vert-adv-y="1000"  />

      
      <glyph glyph-name="unicb" unicode="&#xcb;" d="M506 0L116 0L116 700L496 700L496 672L146 672L146 370L466 370L466 342L146 342L146 28L506 28L506 0M168 796Q168 805 175 811Q182 817 192 817Q201 817 208 811Q215 805 215 796Q215 787 208 780.50Q201 774 192 774Q168 774 168 796M402 796Q402 805 409 811Q416 817 426 817Q435 817 441.50 811Q448 805 448 796Q448 786 441.50 780Q435 774 426 774Q402 774 402 796Z"  horiz-adv-x="575" vert-adv-y="1000"  />

      
      <glyph glyph-name="unicc" unicode="&#xcc;" d="M183 758L173 740L7 829L18 852L183 758M173 0L143 0L143 700L173 700L173 0Z"  horiz-adv-x="316" vert-adv-y="1000"  />

      
      <glyph glyph-name="unicd" unicode="&#xcd;" d="M298 852L309 829L142 740L133 758L298 852M173 0L143 0L143 700L173 700L173 0Z"  horiz-adv-x="316" vert-adv-y="1000"  />

      
      <glyph glyph-name="unice" unicode="&#xce;" d="M3 740L-10 757L156 851L160 851L327 758L312 740L158 825L3 740M173 0L143 0L143 700L173 700L173 0Z"  horiz-adv-x="316" vert-adv-y="1000"  />

      
      <glyph glyph-name="unicf" unicode="&#xcf;" d="M18 796Q18 805 25 811Q32 817 42 817Q51 817 58 811Q65 805 65 796Q65 787 58 780.50Q51 774 42 774Q18 774 18 796M252 796Q252 805 259 811Q266 817 276 817Q285 817 291.50 811Q298 805 298 796Q298 786 291.50 780Q285 774 276 774Q252 774 252 796M173 0L143 0L143 700L173 700L173 0Z"  horiz-adv-x="316" vert-adv-y="1000"  />

      
      <glyph glyph-name="unid0" unicode="&#xd0;" d="M142 345L10 345L10 372L142 372L142 700L153 700Q194 700 227 701Q293 703 311 703Q412 703 489.50 675.50Q567 648 613 599.50Q659 551 681.50 491Q704 431 704 361Q704 204 599 100Q495-2 303-2Q259-2 226-1Q193 0 149 0L142 0L142 345M309 675Q291 675 235 673Q208 672 172 672L172 372L378 372L378 345L172 345L172 28Q190 28 210 28Q230 28 246 27.50Q262 27 275.50 26.50Q289 26 297 26L305 26Q483 26 577 120Q673 215 673 361Q673 499 582 587Q493 675 309 675Z"  horiz-adv-x="761" vert-adv-y="1000"  />

      
      <glyph glyph-name="unid1" unicode="&#xd1;" d="M683 700L683 0L659 0L144 646L144 0L116 0L116 700L140 700L654 52L654 700L683 700M252 772L241 790Q281 825 322 825Q352 825 405 801Q458 777 483 777Q524 777 556 812L567 793Q529 752 482 752Q455 752 400 775Q348 799 318 799Q285 799 252 772Z"  horiz-adv-x="799" vert-adv-y="1000"  />

      
      <glyph glyph-name="unid2" unicode="&#xd2;" d="M57 350Q57 502 156 605Q255 709 403 709Q550 709 649 606Q749 505 749 350Q749 197 649 94Q550-9 403-9Q256-9 156 93Q57 196 57 350M403 20Q538 20 628 114Q718 208 718 350Q718 491 627 585Q537 680 403 680Q270 680 178 585Q88 490 88 350Q88 208 178 114Q269 20 403 20M485 758L475 740L309 829L320 852L485 758Z"  horiz-adv-x="807" vert-adv-y="1000"  />

      
      <glyph glyph-name="unid3" unicode="&#xd3;" d="M57 350Q57 502 156 605Q255 709 403 709Q550 709 649 606Q749 505 749 350Q749 197 649 94Q550-9 403-9Q256-9 156 93Q57 196 57 350M403 20Q538 20 628 114Q718 208 718 350Q718 491 627 585Q537 680 403 680Q270 680 178 585Q88 490 88 350Q88 208 178 114Q269 20 403 20M512 852L523 829L356 740L347 758L512 852Z"  horiz-adv-x="807" vert-adv-y="1000"  />

      
      <glyph glyph-name="unid4" unicode="&#xd4;" d="M252 740L239 757L405 851L409 851L576 758L561 740L407 825L252 740M57 350Q57 502 156 605Q255 709 403 709Q550 709 649 606Q749 505 749 350Q749 197 649 94Q550-9 403-9Q256-9 156 93Q57 196 57 350M403 20Q538 20 628 114Q718 208 718 350Q718 491 627 585Q537 680 403 680Q270 680 178 585Q88 490 88 350Q88 208 178 114Q269 20 403 20Z"  horiz-adv-x="807" vert-adv-y="1000"  />

      
      <glyph glyph-name="unid5" unicode="&#xd5;" d="M57 350Q57 502 156 605Q255 709 403 709Q550 709 649 606Q749 505 749 350Q749 197 649 94Q550-9 403-9Q256-9 156 93Q57 196 57 350M403 20Q538 20 628 114Q718 208 718 350Q718 491 627 585Q537 680 403 680Q270 680 178 585Q88 490 88 350Q88 208 178 114Q269 20 403 20M254 772L243 790Q283 825 324 825Q354 825 407 801Q460 777 485 777Q526 777 558 812L569 793Q531 752 484 752Q457 752 402 775Q350 799 320 799Q287 799 254 772Z"  horiz-adv-x="807" vert-adv-y="1000"  />

      
      <glyph glyph-name="unid6" unicode="&#xd6;" d="M57 350Q57 502 156 605Q255 709 403 709Q550 709 649 606Q749 505 749 350Q749 197 649 94Q550-9 403-9Q256-9 156 93Q57 196 57 350M403 20Q538 20 628 114Q718 208 718 350Q718 491 627 585Q537 680 403 680Q270 680 178 585Q88 490 88 350Q88 208 178 114Q269 20 403 20M265 796Q265 805 272 811Q279 817 289 817Q298 817 305 811Q312 805 312 796Q312 787 305 780.50Q298 774 289 774Q265 774 265 796M499 796Q499 805 506 811Q513 817 523 817Q532 817 538.50 811Q545 805 545 796Q545 786 538.50 780Q532 774 523 774Q499 774 499 796Z"  horiz-adv-x="807" vert-adv-y="1000"  />

      
      <glyph glyph-name="unid7" unicode="&#xd7;" d="M275 360L130 506L148 524L293 378L438 524L456 506L311 360L458 214L440 196L293 342L146 196L128 214L275 360Z"  horiz-adv-x="586" vert-adv-y="1000"  />

      
      <glyph glyph-name="unid8" unicode="&#xd8;" d="M57 350Q57 502 156 605Q255 709 403 709Q547 709 647 609L698 659L716 642L664 591Q749 491 749 350Q749 197 649 94Q550-9 403-9Q256-9 156 94L106 46L88 65L138 114Q57 211 57 350M718 350Q718 479 642 570L178 116Q268 20 403 20Q538 20 628 114Q718 208 718 350M88 350Q88 227 160 135L625 588Q535 680 403 680Q270 680 178 585Q88 490 88 350Z"  horiz-adv-x="807" vert-adv-y="1000"  />

      
      <glyph glyph-name="unid9" unicode="&#xd9;" d="M615 700L645 700L645 294Q645 144 571 68Q498-7 385-7Q261-7 183 73Q106 153 106 301L106 700L136 700L136 305Q136 170 205 95Q274 21 385 21Q491 21 553 92.50Q615 164 615 301L615 700M444 758L434 740L268 829L279 852L444 758Z"  horiz-adv-x="751" vert-adv-y="1000"  />

      
      <glyph glyph-name="unida" unicode="&#xda;" d="M615 700L645 700L645 294Q645 144 571 68Q498-7 385-7Q261-7 183 73Q106 153 106 301L106 700L136 700L136 305Q136 170 205 95Q274 21 385 21Q491 21 553 92.50Q615 164 615 301L615 700M481 852L492 829L325 740L316 758L481 852Z"  horiz-adv-x="751" vert-adv-y="1000"  />

      
      <glyph glyph-name="unidb" unicode="&#xdb;" d="M220 740L207 757L373 851L377 851L544 758L529 740L375 825L220 740M615 700L645 700L645 294Q645 144 571 68Q498-7 385-7Q261-7 183 73Q106 153 106 301L106 700L136 700L136 305Q136 170 205 95Q274 21 385 21Q491 21 553 92.50Q615 164 615 301L615 700Z"  horiz-adv-x="751" vert-adv-y="1000"  />

      
      <glyph glyph-name="unidc" unicode="&#xdc;" d="M615 700L645 700L645 294Q645 144 571 68Q498-7 385-7Q261-7 183 73Q106 153 106 301L106 700L136 700L136 305Q136 170 205 95Q274 21 385 21Q491 21 553 92.50Q615 164 615 301L615 700M233 796Q233 805 240 811Q247 817 257 817Q266 817 273 811Q280 805 280 796Q280 787 273 780.50Q266 774 257 774Q233 774 233 796M467 796Q467 805 474 811Q481 817 491 817Q500 817 506.50 811Q513 805 513 796Q513 786 506.50 780Q500 774 491 774Q467 774 467 796Z"  horiz-adv-x="751" vert-adv-y="1000"  />

      
      <glyph glyph-name="unidd" unicode="&#xdd;" d="M516 700L550 700L297 311L297 0L268 0L268 311L17 700L52 700L283 339L516 700M396 852L407 829L240 740L231 758L396 852Z"  horiz-adv-x="567" vert-adv-y="1000"  />

      
      <glyph glyph-name="unide" unicode="&#xde;" d="M146 183L146 0L116 0L116 700L146 700L146 591Q182 591 215 592Q248 593 276 593Q407 593 462 534.50Q517 476 517 387Q517 299 456 238Q394 178 271 178Q226 178 146 183M277 565Q226 565 146 563L146 212Q226 207 269 207Q374 207 430.50 256.50Q487 306 487 388Q487 471 434.50 518Q382 565 277 565Z"  horiz-adv-x="575" vert-adv-y="1000"  />

      
      <glyph glyph-name="unidf" unicode="&#xdf;" d="M454 144Q454 182 432 211.50Q410 241 379 260.50Q348 280 317 299Q286 318 264 345Q242 372 242 406Q242 460 298 502Q354 544 354 595Q354 633 324 657.50Q294 682 251 682Q185 682 153.50 640.50Q122 599 122 510L122-3L93-3L93 519Q93 709 254 709Q309 709 346.50 678Q384 647 384 599Q384 566 366.50 539Q349 512 327.50 496Q306 480 288.50 457.50Q271 435 271 411Q271 354 346 310Q374 295 385 288Q396 281 420 263.50Q444 246 454.50 232Q465 218 474.50 194.50Q484 171 484 145Q484 77 441 34Q399-9 337-9Q291-9 254.50 12.50Q218 34 199 66L212 86Q260 18 332 18Q380 18 417 53Q454 89 454 144Z"  horiz-adv-x="539" vert-adv-y="1000"  />

      
      <glyph glyph-name="unie0" unicode="&#xe0;" d="M91 394L82 418Q147 459 220 459Q305 459 343.50 415Q382 371 382 281L382 0L354 0L354 78Q292-5 187-5Q124-5 85.50 30.50Q47 66 47 124Q47 188 94 224.50Q141 261 218 261Q302 261 354 224Q354 268 353 283Q351 349 335 375Q303 432 217 432Q156 432 91 394M193 22Q233 22 269 36Q300 50 316 64Q332 78 354 107L354 197Q299 237 220 237Q162 237 119 209Q77 180 77 126Q77 79 109.50 50.50Q142 22 193 22M275 564L257 552L145 693L166 710L275 564Z"  horiz-adv-x="457" vert-adv-y="1000"  />

      
      <glyph glyph-name="unie1" unicode="&#xe1;" d="M91 394L82 418Q147 459 220 459Q305 459 343.50 415Q382 371 382 281L382 0L354 0L354 78Q292-5 187-5Q124-5 85.50 30.50Q47 66 47 124Q47 188 94 224.50Q141 261 218 261Q302 261 354 224Q354 268 353 283Q351 349 335 375Q303 432 217 432Q156 432 91 394M193 22Q233 22 269 36Q300 50 316 64Q332 78 354 107L354 197Q299 237 220 237Q162 237 119 209Q77 180 77 126Q77 79 109.50 50.50Q142 22 193 22M293 710L314 693L202 552L184 564L293 710Z"  horiz-adv-x="457" vert-adv-y="1000"  />

      
      <glyph glyph-name="unie2" unicode="&#xe2;" d="M91 394L82 418Q147 459 220 459Q305 459 343.50 415Q382 371 382 281L382 0L354 0L354 78Q292-5 187-5Q124-5 85.50 30.50Q47 66 47 124Q47 188 94 224.50Q141 261 218 261Q302 261 354 224Q354 268 353 283Q351 349 335 375Q303 432 217 432Q156 432 91 394M193 22Q233 22 269 36Q300 50 316 64Q332 78 354 107L354 197Q299 237 220 237Q162 237 119 209Q77 180 77 126Q77 79 109.50 50.50Q142 22 193 22M227 708L231 708L351 577L336 559L229 673L121 560L105 577L227 708Z"  horiz-adv-x="457" vert-adv-y="1000"  />

      
      <glyph glyph-name="unie3" unicode="&#xe3;" d="M91 394L82 418Q147 459 220 459Q305 459 343.50 415Q382 371 382 281L382 0L354 0L354 78Q292-5 187-5Q124-5 85.50 30.50Q47 66 47 124Q47 188 94 224.50Q141 261 218 261Q302 261 354 224Q354 268 353 283Q351 349 335 375Q303 432 217 432Q156 432 91 394M193 22Q233 22 269 36Q300 50 316 64Q332 78 354 107L354 197Q299 237 220 237Q162 237 119 209Q77 180 77 126Q77 79 109.50 50.50Q142 22 193 22M96 586L83 601Q133 647 176 647Q200 647 232 623Q265 599 285 599Q315 599 361 640L373 624Q324 575 282 575Q261 575 227 598Q196 622 172 622Q140 622 96 586Z"  horiz-adv-x="457" vert-adv-y="1000"  />

      
      <glyph glyph-name="unie4" unicode="&#xe4;" d="M91 394L82 418Q147 459 220 459Q305 459 343.50 415Q382 371 382 281L382 0L354 0L354 78Q292-5 187-5Q124-5 85.50 30.50Q47 66 47 124Q47 188 94 224.50Q141 261 218 261Q302 261 354 224Q354 268 353 283Q351 349 335 375Q303 432 217 432Q156 432 91 394M193 22Q233 22 269 36Q300 50 316 64Q332 78 354 107L354 197Q299 237 220 237Q162 237 119 209Q77 180 77 126Q77 79 109.50 50.50Q142 22 193 22M95 626Q95 634 101.50 640.50Q108 647 117 647Q125 647 131 640.50Q137 634 137 626Q137 616 131 609.50Q125 603 117 603Q108 603 101.50 609.50Q95 616 95 626M306 626Q306 634 312.50 640.50Q319 647 328 647Q336 647 342.50 640.50Q349 634 349 626Q349 612 338 606Q327 600 316.50 606Q306 612 306 626Z"  horiz-adv-x="457" vert-adv-y="1000"  />

      
      <glyph glyph-name="unie5" unicode="&#xe5;" d="M91 394L82 418Q147 459 220 459Q305 459 343.50 415Q382 371 382 281L382 0L354 0L354 78Q292-5 187-5Q124-5 85.50 30.50Q47 66 47 124Q47 188 94 224.50Q141 261 218 261Q302 261 354 224Q354 268 353 283Q351 349 335 375Q303 432 217 432Q156 432 91 394M193 22Q233 22 269 36Q300 50 316 64Q332 78 354 107L354 197Q299 237 220 237Q162 237 119 209Q77 180 77 126Q77 79 109.50 50.50Q142 22 193 22M124 614Q124 655 152.50 683.50Q181 712 222 712Q263 712 292 683.50Q321 655 321 614Q321 574 292 546Q263 518 222 518Q181 518 152.50 546Q124 574 124 614M222 537Q254 537 277 559.50Q300 582 300 615Q300 647 277 670Q254 693 222 693Q189 693 167 670.50Q145 648 145 615Q145 582 167 559.50Q189 537 222 537Z"  horiz-adv-x="457" vert-adv-y="1000"  />

      
      <glyph glyph-name="unie6" unicode="&#xe6;" d="M220 459Q336 459 368 373Q430 459 548 459Q635 459 693 403Q750 348 750 257Q750 250 748 226L382 226L382 113Q436 18 563 18Q658 18 715 80L725 59Q698 27 653.50 9Q609-9 561-9Q434-9 368 81Q294-5 191-5Q125-5 86 30Q47 65 47 124Q47 188 94 224.50Q141 261 218 261Q290 261 354 250Q359 346 328 389Q297 432 217 432Q156 432 91 394L82 418Q147 459 220 459M382 281L382 250L721 250Q721 334 673 383Q625 432 544 432Q428 432 377 338Q382 305 382 281M193 22Q233 22 269 36Q300 50 316 64Q332 78 354 107L354 225Q272 237 220 237Q162 237 119 209Q77 180 77 126Q77 79 109.50 50.50Q142 22 193 22Z"  horiz-adv-x="801" vert-adv-y="1000"  />

      
      <glyph glyph-name="unie7" unicode="&#xe7;" d="M189-178L199-161Q237-181 272-181Q308-181 330.50-166Q353-151 353-127Q353-73 271-73L265-73L265-8Q169-1 110.50 62.50Q52 126 52 225Q52 324 115 391Q180 459 272 459Q386 459 444 404L430 381Q372 432 277 432Q196 432 138 372Q81 314 81 225Q81 131 139 74Q198 18 289 18Q333 18 373.50 35.50Q414 53 439 83L453 64Q426 29 381.50 10Q337-9 287-9L284-9L284-56Q381-57 381-128Q381-161 352.50-181Q324-201 275-201Q238-201 189-178Z"  horiz-adv-x="491" vert-adv-y="1000"  />

      
      <glyph glyph-name="unie8" unicode="&#xe8;" d="M441 80L452 59Q425 27 380.50 9Q336-9 288-9Q183-9 118 55Q52 119 52 225Q52 329 110 393Q168 459 275 459Q363 459 419 403Q476 348 476 257Q476 250 474 226L83 226Q84 130 140 74Q196 18 289 18Q384 18 441 80M271 432Q188 432 137.50 382Q87 332 81 250L447 250Q448 334 400 383Q352 432 271 432M304 564L286 552L174 693L195 710L304 564Z"  horiz-adv-x="527" vert-adv-y="1000"  />

      
      <glyph glyph-name="unie9" unicode="&#xe9;" d="M441 80L452 59Q425 27 380.50 9Q336-9 288-9Q183-9 118 55Q52 119 52 225Q52 329 110 393Q168 459 275 459Q363 459 419 403Q476 348 476 257Q476 250 474 226L83 226Q84 130 140 74Q196 18 289 18Q384 18 441 80M271 432Q188 432 137.50 382Q87 332 81 250L447 250Q448 334 400 383Q352 432 271 432M356 710L377 693L265 552L247 564L356 710Z"  horiz-adv-x="527" vert-adv-y="1000"  />

      
      <glyph glyph-name="uniea" unicode="&#xea;" d="M441 80L452 59Q425 27 380.50 9Q336-9 288-9Q183-9 118 55Q52 119 52 225Q52 329 110 393Q168 459 275 459Q363 459 419 403Q476 348 476 257Q476 250 474 226L83 226Q84 130 140 74Q196 18 289 18Q384 18 441 80M271 432Q188 432 137.50 382Q87 332 81 250L447 250Q448 334 400 383Q352 432 271 432M272 708L276 708L396 577L381 559L274 673L166 560L150 577L272 708Z"  horiz-adv-x="527" vert-adv-y="1000"  />

      
      <glyph glyph-name="unieb" unicode="&#xeb;" d="M441 80L452 59Q425 27 380.50 9Q336-9 288-9Q183-9 118 55Q52 119 52 225Q52 329 110 393Q168 459 275 459Q363 459 419 403Q476 348 476 257Q476 250 474 226L83 226Q84 130 140 74Q196 18 289 18Q384 18 441 80M271 432Q188 432 137.50 382Q87 332 81 250L447 250Q448 334 400 383Q352 432 271 432M138 626Q138 634 144.50 640.50Q151 647 160 647Q168 647 174 640.50Q180 634 180 626Q180 616 174 609.50Q168 603 160 603Q151 603 144.50 609.50Q138 616 138 626M349 626Q349 634 355.50 640.50Q362 647 371 647Q379 647 385.50 640.50Q392 634 392 626Q392 612 381 606Q370 600 359.50 606Q349 612 349 626Z"  horiz-adv-x="527" vert-adv-y="1000"  />

      
      <glyph glyph-name="uniec" unicode="&#xec;" d="M152 564L134 552L22 693L43 710L152 564M141 0L113 0L113 450L141 450L141 0Z"  horiz-adv-x="255" vert-adv-y="1000"  />

      
      <glyph glyph-name="unied" unicode="&#xed;" d="M209 710L230 693L118 552L100 564L209 710M141 0L113 0L113 450L141 450L141 0Z"  horiz-adv-x="255" vert-adv-y="1000"  />

      
      <glyph glyph-name="uniee" unicode="&#xee;" d="M127 708L131 708L251 577L236 559L129 673L21 560L5 577L127 708M141 0L113 0L113 450L141 450L141 0Z"  horiz-adv-x="255" vert-adv-y="1000"  />

      
      <glyph glyph-name="unief" unicode="&#xef;" d="M1 626Q1 634 7.50 640.50Q14 647 23 647Q31 647 37 640.50Q43 634 43 626Q43 616 37 609.50Q31 603 23 603Q14 603 7.50 609.50Q1 616 1 626M212 626Q212 634 218.50 640.50Q225 647 234 647Q242 647 248.50 640.50Q255 634 255 626Q255 612 244.50 606Q234 600 223 606Q212 612 212 626M141 0L113 0L113 450L141 450L141 0Z"  horiz-adv-x="255" vert-adv-y="1000"  />

      
      <glyph glyph-name="unif0" unicode="&#xf0;" d="M332 608L208 542L198 566L311 626Q259 670 190 699L221 709Q278 685 335 639L439 694L449 670L356 620Q432 550 474.50 454Q517 358 517 256Q517 136 452 63Q388-9 284-9Q182-9 117 57Q52 124 52 225Q52 326 117 393Q182 459 284 459Q349 459 400.50 425Q452 391 479 331Q455 492 332 608M284 18Q375 18 431 83Q488 150 487 259Q478 326 422 379Q366 432 284 432Q195 432 138 374Q81 316 81 225Q81 134 138 76Q195 18 284 18Z"  horiz-adv-x="569" vert-adv-y="1000"  />

      
      <glyph glyph-name="unif1" unicode="&#xf1;" d="M114 0L85 0L85 450L114 450L114 382Q142 415 191 436.50Q240 458 287 458Q383 458 430 408.50Q477 359 477 254L477 0L449 0L449 248Q449 341 408 386Q367 431 282 431Q233 431 185 408Q138 385 114 354L114 0M143 586L130 601Q180 647 223 647Q248 647 279 623Q312 599 332 599Q362 599 408 640L420 624Q371 575 329 575Q308 575 274 598Q243 622 219 622Q187 622 143 586Z"  horiz-adv-x="553" vert-adv-y="1000"  />

      
      <glyph glyph-name="unif2" unicode="&#xf2;" d="M117 57Q52 124 52 225Q52 326 117 393Q182 459 284 459Q386 459 451 393Q517 327 517 225Q517 123 451 57Q386-9 284-9Q182-9 117 57M284 432Q284 432 239.50 432Q195 432 138 374Q81 316 81 225Q81 134 138 76Q195 18 284 18Q373 18 430 76Q487 134 487 225Q487 316 430 374Q373 432 284 432M320 564L302 552L190 693L211 710L320 564Z"  horiz-adv-x="569" vert-adv-y="1000"  />

      
      <glyph glyph-name="unif3" unicode="&#xf3;" d="M117 57Q52 124 52 225Q52 326 117 393Q182 459 284 459Q386 459 451 393Q517 327 517 225Q517 123 451 57Q386-9 284-9Q182-9 117 57M284 432Q284 432 239.50 432Q195 432 138 374Q81 316 81 225Q81 134 138 76Q195 18 284 18Q373 18 430 76Q487 134 487 225Q487 316 430 374Q373 432 284 432M358 710L379 693L267 552L249 564L358 710Z"  horiz-adv-x="569" vert-adv-y="1000"  />

      
      <glyph glyph-name="unif4" unicode="&#xf4;" d="M282 708L286 708L406 577L391 559L284 673L176 560L160 577L282 708M117 57Q52 124 52 225Q52 326 117 393Q182 459 284 459Q386 459 451 393Q517 327 517 225Q517 123 451 57Q386-9 284-9Q182-9 117 57M284 432Q284 432 239.50 432Q195 432 138 374Q81 316 81 225Q81 134 138 76Q195 18 284 18Q373 18 430 76Q487 134 487 225Q487 316 430 374Q373 432 284 432Z"  horiz-adv-x="569" vert-adv-y="1000"  />

      
      <glyph glyph-name="unif5" unicode="&#xf5;" d="M117 57Q52 124 52 225Q52 326 117 393Q182 459 284 459Q386 459 451 393Q517 327 517 225Q517 123 451 57Q386-9 284-9Q182-9 117 57M284 432Q284 432 239.50 432Q195 432 138 374Q81 316 81 225Q81 134 138 76Q195 18 284 18Q373 18 430 76Q487 134 487 225Q487 316 430 374Q373 432 284 432M151 586L138 601Q188 647 231 647Q256 647 287 623Q320 599 340 599Q370 599 416 640L428 624Q379 575 337 575Q316 575 282 598Q251 622 227 622Q194 622 151 586Z"  horiz-adv-x="569" vert-adv-y="1000"  />

      
      <glyph glyph-name="unif6" unicode="&#xf6;" d="M117 57Q52 124 52 225Q52 326 117 393Q182 459 284 459Q386 459 451 393Q517 327 517 225Q517 123 451 57Q386-9 284-9Q182-9 117 57M284 432Q284 432 239.50 432Q195 432 138 374Q81 316 81 225Q81 134 138 76Q195 18 284 18Q373 18 430 76Q487 134 487 225Q487 316 430 374Q373 432 284 432M159 626Q159 634 165.50 640.50Q172 647 181 647Q189 647 195 640.50Q201 634 201 626Q201 616 195 609.50Q189 603 181 603Q172 603 165.50 609.50Q159 616 159 626M370 626Q370 634 376.50 640.50Q383 647 392 647Q400 647 406.50 640.50Q413 634 413 626Q413 612 402 606Q391 600 380.50 606Q370 612 370 626Z"  horiz-adv-x="569" vert-adv-y="1000"  />

      
      <glyph glyph-name="unif7" unicode="&#xf7;" d="M294 596Q303 596 309 589.50Q315 583 315 575Q315 566 309 559Q303 552 294 552Q280 552 274 563Q268 574 274 585Q280 596 294 596M271 146Q271 154 277.50 160.50Q284 167 294 167Q303 167 309 160.50Q315 154 315 146Q315 137 309 130Q303 123 294 123Q284 123 277.50 130Q271 137 271 146M513 347L73 347L73 373L513 373L513 347Z"  horiz-adv-x="586" vert-adv-y="1000"  />

      
      <glyph glyph-name="unif8" unicode="&#xf8;" d="M52 225Q52 326 117 393Q182 459 284 459Q382 459 448 396L503 451L519 433L464 378Q517 313 517 225Q517 123 451 57Q386-9 284-9Q194-9 132 44L75-13L58 6L113 61Q52 125 52 225M81 225Q81 137 133 81L428 376Q369 432 284 432Q195 432 138 374Q81 316 81 225M487 225Q487 302 444 357L151 63Q205 18 284 18Q373 18 430 76Q487 134 487 225Z"  horiz-adv-x="569" vert-adv-y="1000"  />

      
      <glyph glyph-name="unif9" unicode="&#xf9;" d="M434 450L462 450L462 0L434 0L434 78Q404 41 353.50 16Q303-9 253-9Q75-9 75 194L75 450L104 450L104 201Q104 108 142.50 63Q181 18 262 18Q313 18 361 45Q409 74 434 107L434 450M309 564L291 552L179 693L200 710L309 564Z"  horiz-adv-x="547" vert-adv-y="1000"  />

      
      <glyph glyph-name="unifa" unicode="&#xfa;" d="M434 450L462 450L462 0L434 0L434 78Q404 41 353.50 16Q303-9 253-9Q75-9 75 194L75 450L104 450L104 201Q104 108 142.50 63Q181 18 262 18Q313 18 361 45Q409 74 434 107L434 450M348 710L369 693L257 552L239 564L348 710Z"  horiz-adv-x="547" vert-adv-y="1000"  />

      
      <glyph glyph-name="unifb" unicode="&#xfb;" d="M267 708L271 708L391 577L376 559L269 673L161 560L145 577L267 708M434 450L462 450L462 0L434 0L434 78Q404 41 353.50 16Q303-9 253-9Q75-9 75 194L75 450L104 450L104 201Q104 108 142.50 63Q181 18 262 18Q313 18 361 45Q409 74 434 107L434 450Z"  horiz-adv-x="547" vert-adv-y="1000"  />

      
      <glyph glyph-name="unifc" unicode="&#xfc;" d="M434 450L462 450L462 0L434 0L434 78Q404 41 353.50 16Q303-9 253-9Q75-9 75 194L75 450L104 450L104 201Q104 108 142.50 63Q181 18 262 18Q313 18 361 45Q409 74 434 107L434 450M147 626Q147 634 153.50 640.50Q160 647 169 647Q177 647 183 640.50Q189 634 189 626Q189 616 183 609.50Q177 603 169 603Q160 603 153.50 609.50Q147 616 147 626M358 626Q358 634 364.50 640.50Q371 647 380 647Q388 647 394.50 640.50Q401 634 401 626Q401 612 390 606Q379 600 368.50 606Q358 612 358 626Z"  horiz-adv-x="547" vert-adv-y="1000"  />

      
      <glyph glyph-name="unifd" unicode="&#xfd;" d="M423 450L455 450L271 0Q222-119 186-158Q150-200 104-200Q71-200 34-181L44-159Q77-174 100-174Q139-174 170-139Q201-104 234-24L244 0L17 450L50 450L223 105Q238 77 258 32Q263 45 287 107L423 450M309 710L330 693L218 552L200 564L309 710Z"  horiz-adv-x="472" vert-adv-y="1000"  />

      
      <glyph glyph-name="unife" unicode="&#xfe;" d="M114-200L85-200L85 700L114 700L114 386Q142 418 189.50 438.50Q237 459 287 459Q386 459 443 396Q501 334 501 232Q501 127 437 59Q374-9 272-9Q174-9 114 36L114-200M281 432Q232 432 185 410Q138 388 114 356L114 66Q182 18 271 18Q359 18 415 77Q471 136 471 229Q471 322 420.50 377Q370 432 281 432Z"  horiz-adv-x="552" vert-adv-y="1000"  />

      
      <glyph glyph-name="uniff" unicode="&#xff;" d="M423 450L455 450L271 0Q222-119 186-158Q150-200 104-200Q71-200 34-181L44-159Q77-174 100-174Q139-174 170-139Q201-104 234-24L244 0L17 450L50 450L223 105Q238 77 258 32Q263 45 287 107L423 450M111 626Q111 634 117.50 640.50Q124 647 133 647Q141 647 147 640.50Q153 634 153 626Q153 616 147 609.50Q141 603 133 603Q124 603 117.50 609.50Q111 616 111 626M322 626Q322 634 328.50 640.50Q335 647 344 647Q352 647 358.50 640.50Q365 634 365 626Q365 612 354.50 606Q344 600 333 606Q322 612 322 626Z"  horiz-adv-x="472" vert-adv-y="1000"  />

      
      <glyph glyph-name="uni0100" unicode="&#x0100;" d="M57 0L26 0L334 707L356 707L664 0L632 0L519 260L169 260L57 0M507 288L344 663L181 288L507 288M493 785L196 785L196 809L493 809L493 785Z"  horiz-adv-x="690" vert-adv-y="1000"  />

      
      <glyph glyph-name="uni0101" unicode="&#x0101;" d="M91 394L82 418Q147 459 220 459Q305 459 343.50 415Q382 371 382 281L382 0L354 0L354 78Q292-5 187-5Q124-5 85.50 30.50Q47 66 47 124Q47 188 94 224.50Q141 261 218 261Q302 261 354 224Q354 268 353 283Q351 349 335 375Q303 432 217 432Q156 432 91 394M193 22Q233 22 269 36Q300 50 316 64Q332 78 354 107L354 197Q299 237 220 237Q162 237 119 209Q77 180 77 126Q77 79 109.50 50.50Q142 22 193 22M350 624L108 624L108 649L350 649L350 624Z"  horiz-adv-x="457" vert-adv-y="1000"  />

      
      <glyph glyph-name="uni0102" unicode="&#x0102;" d="M57 0L26 0L334 707L356 707L664 0L632 0L519 260L169 260L57 0M507 288L344 663L181 288L507 288M190 835L204 850Q261 782 347 782Q431 782 487 850L500 835Q443 756 347 756Q294 756 252.50 779.50Q211 803 190 835Z"  horiz-adv-x="690" vert-adv-y="1000"  />

      
      <glyph glyph-name="uni0103" unicode="&#x0103;" d="M91 394L82 418Q147 459 220 459Q305 459 343.50 415Q382 371 382 281L382 0L354 0L354 78Q292-5 187-5Q124-5 85.50 30.50Q47 66 47 124Q47 188 94 224.50Q141 261 218 261Q302 261 354 224Q354 268 353 283Q351 349 335 375Q303 432 217 432Q156 432 91 394M193 22Q233 22 269 36Q300 50 316 64Q332 78 354 107L354 197Q299 237 220 237Q162 237 119 209Q77 180 77 126Q77 79 109.50 50.50Q142 22 193 22M95 665L109 680Q164 613 230 613Q297 613 349 680L361 665Q302 588 229 588Q145 588 95 665Z"  horiz-adv-x="457" vert-adv-y="1000"  />

      
      <glyph glyph-name="uni0104" unicode="&#x0104;" d="M650-167L659-186Q633-200 598-200Q553-200 522.50-177Q492-154 492-109Q492-61 532-30Q574 3 627 10L519 260L169 260L57 0L26 0L334 707L356 707L664 0L649 0Q599-1 559-31Q520-60 520-103Q520-142 547-159Q575-176 603-176Q630-176 650-167M507 288L344 663L181 288L507 288Z"  horiz-adv-x="690" vert-adv-y="1000"  />

      
      <glyph glyph-name="uni0105" unicode="&#x0105;" d="M378-167L387-186Q361-200 326-200Q281-200 250.50-177Q220-154 220-109Q220-64 258.50-31.50Q297 1 354 10L354 78Q292-5 187-5Q124-5 85.50 30.50Q47 66 47 124Q47 188 94 224.50Q141 261 218 261Q302 261 354 224Q354 268 353 283Q351 349 335 375Q303 432 217 432Q156 432 91 394L82 418Q147 459 220 459Q305 459 343.50 415Q382 371 382 281L382 0Q332 0 289-29Q248-59 248-103Q248-142 275-159Q303-176 331-176Q358-176 378-167M193 22Q233 22 269 36Q300 50 316 64Q332 78 354 107L354 197Q299 237 220 237Q162 237 119 209Q77 180 77 126Q77 79 109.50 50.50Q142 22 193 22Z"  horiz-adv-x="457" vert-adv-y="1000"  />

      
      <glyph glyph-name="uni0106" unicode="&#x0106;" d="M606 90L619 67Q583 32 525 11.50Q467-9 404-9Q249-9 153 89Q57 188 57 350Q57 505 151 606Q245 709 395 709Q526 709 606 644L591 623Q519 680 396 680Q258 680 173 586Q88 492 88 350Q88 202 176 111Q264 20 406 20Q524 20 606 90M498 852L509 829L342 740L333 758L498 852Z"  horiz-adv-x="657" vert-adv-y="1000"  />

      
      <glyph glyph-name="uni0107" unicode="&#x0107;" d="M439 83L453 64Q426 29 381.50 10Q337-9 287-9Q182-9 117 55Q52 120 52 225Q52 324 115 391Q180 459 272 459Q386 459 444 404L430 381Q372 432 277 432Q196 432 138 372Q81 314 81 225Q81 131 139 74Q198 18 289 18Q333 18 373.50 35.50Q414 53 439 83M350 710L371 693L259 552L241 564L350 710Z"  horiz-adv-x="491" vert-adv-y="1000"  />

      
      <glyph glyph-name="uni0108" unicode="&#x0108;" d="M240 740L227 757L393 851L397 851L564 758L549 740L395 825L240 740M606 90L619 67Q583 32 525 11.50Q467-9 404-9Q249-9 153 89Q57 188 57 350Q57 505 151 606Q245 709 395 709Q526 709 606 644L591 623Q519 680 396 680Q258 680 173 586Q88 492 88 350Q88 202 176 111Q264 20 406 20Q524 20 606 90Z"  horiz-adv-x="657" vert-adv-y="1000"  />

      
      <glyph glyph-name="uni0109" unicode="&#x0109;" d="M276 708L280 708L400 577L385 559L278 673L170 560L154 577L276 708M439 83L453 64Q426 29 381.50 10Q337-9 287-9Q182-9 117 55Q52 120 52 225Q52 324 115 391Q180 459 272 459Q386 459 444 404L430 381Q372 432 277 432Q196 432 138 372Q81 314 81 225Q81 131 139 74Q198 18 289 18Q333 18 373.50 35.50Q414 53 439 83Z"  horiz-adv-x="491" vert-adv-y="1000"  />

      
      <glyph glyph-name="uni010A" unicode="&#x010A;" d="M606 90L619 67Q583 32 525 11.50Q467-9 404-9Q249-9 153 89Q57 188 57 350Q57 505 151 606Q245 709 395 709Q526 709 606 644L591 623Q519 680 396 680Q258 680 173 586Q88 492 88 350Q88 202 176 111Q264 20 406 20Q524 20 606 90M356 797Q356 819 381 819Q390 819 396.50 813Q403 807 403 797Q403 786 396.50 779.50Q390 773 381 773Q356 773 356 797Z"  horiz-adv-x="657" vert-adv-y="1000"  />

      
      <glyph glyph-name="uni010B" unicode="&#x010B;" d="M439 83L453 64Q426 29 381.50 10Q337-9 287-9Q182-9 117 55Q52 120 52 225Q52 324 115 391Q180 459 272 459Q386 459 444 404L430 381Q372 432 277 432Q196 432 138 372Q81 314 81 225Q81 131 139 74Q198 18 289 18Q333 18 373.50 35.50Q414 53 439 83M262 629Q262 638 269 644.50Q276 651 285 651Q293 651 299.50 644.50Q306 638 306 629Q306 619 299.50 612.50Q293 606 285 606Q276 606 269 612.50Q262 619 262 629Z"  horiz-adv-x="491" vert-adv-y="1000"  />

      
      <glyph glyph-name="uni010C" unicode="&#x010C;" d="M398 742L394 742L227 835L240 852L396 767L550 852L564 835L398 742M606 90L619 67Q583 32 525 11.50Q467-9 404-9Q249-9 153 89Q57 188 57 350Q57 505 151 606Q245 709 395 709Q526 709 606 644L591 623Q519 680 396 680Q258 680 173 586Q88 492 88 350Q88 202 176 111Q264 20 406 20Q524 20 606 90Z"  horiz-adv-x="657" vert-adv-y="1000"  />

      
      <glyph glyph-name="uni010D" unicode="&#x010D;" d="M288 560L284 560L162 691L178 709L286 590L393 708L409 691L288 560M439 83L453 64Q426 29 381.50 10Q337-9 287-9Q182-9 117 55Q52 120 52 225Q52 324 115 391Q180 459 272 459Q386 459 444 404L430 381Q372 432 277 432Q196 432 138 372Q81 314 81 225Q81 131 139 74Q198 18 289 18Q333 18 373.50 35.50Q414 53 439 83Z"  horiz-adv-x="491" vert-adv-y="1000"  />

      
      <glyph glyph-name="uni010E" unicode="&#x010E;" d="M339 742L335 742L168 835L181 852L337 767L491 852L505 835L339 742M123 0L116 0L116 700L127 700Q168 700 201 701Q267 703 285 703Q386 703 463.50 675.50Q541 648 587 599.50Q633 551 655.50 491Q678 431 678 361Q678 204 573 100Q470-2 277-2Q232-2 199-1Q166 0 123 0M283 675Q265 675 209 673Q182 672 146 672L146 28Q164 28 184 28Q204 28 220 27.50Q236 27 249 26.50Q262 26 270 26L278 26Q456 26 551 120Q647 215 647 361Q647 499 556 587Q467 675 283 675Z"  horiz-adv-x="735" vert-adv-y="1000"  />

      
      <glyph glyph-name="uni010F" unicode="&#x010F;" d="M467 0L439 0L439 71Q409 36 365 14Q321-8 275-8Q174-8 113 55Q52 117 52 224Q52 327 121 393Q192 459 295 459Q379 459 439 414L439 700L467 700L467 0M279 19Q326 19 370 44Q416 70 439 99L439 386Q374 432 295 432Q203 432 142 374Q81 316 81 225Q81 130 135 75Q191 19 279 19M583 700L611 700Q620 682 620 658Q620 615 602 582.50Q584 550 555 535L543 550Q593 582 593 655Q593 683 583 700Z"  horiz-adv-x="553" vert-adv-y="1000"  />

      
      <glyph glyph-name="uni0110" unicode="&#x0110;" d="M142 345L10 345L10 372L142 372L142 700L153 700Q194 700 227 701Q293 703 311 703Q412 703 489.50 675.50Q567 648 613 599.50Q659 551 681.50 491Q704 431 704 361Q704 204 599 100Q495-2 303-2Q259-2 226-1Q193 0 149 0L142 0L142 345M309 675Q291 675 235 673Q208 672 172 672L172 372L378 372L378 345L172 345L172 28Q190 28 210 28Q230 28 246 27.50Q262 27 275.50 26.50Q289 26 297 26L305 26Q483 26 577 120Q673 215 673 361Q673 499 582 587Q493 675 309 675Z"  horiz-adv-x="761" vert-adv-y="1000"  />

      
      <glyph glyph-name="uni0111" unicode="&#x0111;" d="M439 554L244 554L244 578L439 578L439 700L467 700L467 578L580 578L580 554L467 554L467 0L439 0L439 71Q409 36 365 14Q321-8 275-8Q174-8 113 55Q52 117 52 224Q52 327 121 393Q192 459 295 459Q379 459 439 414L439 554M279 19Q326 19 370 44Q416 70 439 99L439 386Q374 432 295 432Q203 432 142 374Q81 316 81 225Q81 130 135 75Q191 19 279 19Z"  horiz-adv-x="553" vert-adv-y="1000"  />

      
      <glyph glyph-name="uni0112" unicode="&#x0112;" d="M506 0L116 0L116 700L496 700L496 672L146 672L146 370L466 370L466 342L146 342L146 28L506 28L506 0M454 785L157 785L157 809L454 809L454 785Z"  horiz-adv-x="575" vert-adv-y="1000"  />

      
      <glyph glyph-name="uni0113" unicode="&#x0113;" d="M441 80L452 59Q425 27 380.50 9Q336-9 288-9Q183-9 118 55Q52 119 52 225Q52 329 110 393Q168 459 275 459Q363 459 419 403Q476 348 476 257Q476 250 474 226L83 226Q84 130 140 74Q196 18 289 18Q384 18 441 80M271 432Q188 432 137.50 382Q87 332 81 250L447 250Q448 334 400 383Q352 432 271 432M386 624L144 624L144 649L386 649L386 624Z"  horiz-adv-x="527" vert-adv-y="1000"  />

      
      <glyph glyph-name="uni0116" unicode="&#x0116;" d="M506 0L116 0L116 700L496 700L496 672L146 672L146 370L466 370L466 342L146 342L146 28L506 28L506 0M285 797Q285 819 310 819Q319 819 325.50 813Q332 807 332 797Q332 786 325.50 779.50Q319 773 310 773Q285 773 285 797Z"  horiz-adv-x="575" vert-adv-y="1000"  />

      
      <glyph glyph-name="uni0117" unicode="&#x0117;" d="M441 80L452 59Q425 27 380.50 9Q336-9 288-9Q183-9 118 55Q52 119 52 225Q52 329 110 393Q168 459 275 459Q363 459 419 403Q476 348 476 257Q476 250 474 226L83 226Q84 130 140 74Q196 18 289 18Q384 18 441 80M271 432Q188 432 137.50 382Q87 332 81 250L447 250Q448 334 400 383Q352 432 271 432M242 629Q242 638 249 644.50Q256 651 265 651Q273 651 279.50 644.50Q286 638 286 629Q286 619 279.50 612.50Q273 606 265 606Q256 606 249 612.50Q242 619 242 629Z"  horiz-adv-x="527" vert-adv-y="1000"  />

      
      <glyph glyph-name="uni0118" unicode="&#x0118;" d="M437 0L116 0L116 700L496 700L496 672L146 672L146 370L466 370L466 342L146 342L146 28L506 28L506 0L501 0Q451-1 411-31Q372-60 372-103Q372-142 399-159Q427-176 455-176Q482-176 502-167L511-186Q485-200 450-200Q405-200 374.50-177Q344-154 344-109Q344-73 369.50-44Q395-15 437 0Z"  horiz-adv-x="575" vert-adv-y="1000"  />

      
      <glyph glyph-name="uni0119" unicode="&#x0119;" d="M441 80L452 59Q421 22 366 4Q290-44 290-103Q290-142 317-159Q345-176 373-176Q400-176 420-167L428-186Q402-200 367-200Q322-200 291.50-177Q261-154 261-109Q261-50 329-5Q312-9 288-9Q183-9 118 55Q52 119 52 225Q52 329 110 393Q168 459 275 459Q363 459 419 403Q476 348 476 257Q476 250 474 226L83 226Q84 130 140 74Q196 18 289 18Q384 18 441 80M271 432Q188 432 137.50 382Q87 332 81 250L447 250Q448 334 400 383Q352 432 271 432Z"  horiz-adv-x="527" vert-adv-y="1000"  />

      
      <glyph glyph-name="uni011A" unicode="&#x011A;" d="M318 742L314 742L147 835L160 852L316 767L470 852L484 835L318 742M506 0L116 0L116 700L496 700L496 672L146 672L146 370L466 370L466 342L146 342L146 28L506 28L506 0Z"  horiz-adv-x="575" vert-adv-y="1000"  />

      
      <glyph glyph-name="uni011B" unicode="&#x011B;" d="M441 80L452 59Q425 27 380.50 9Q336-9 288-9Q183-9 118 55Q52 119 52 225Q52 329 110 393Q168 459 275 459Q363 459 419 403Q476 348 476 257Q476 250 474 226L83 226Q84 130 140 74Q196 18 289 18Q384 18 441 80M271 432Q188 432 137.50 382Q87 332 81 250L447 250Q448 334 400 383Q352 432 271 432M277 560L273 560L151 691L167 709L275 590L382 708L398 691L277 560Z"  horiz-adv-x="527" vert-adv-y="1000"  />

      
      <glyph glyph-name="uni011C" unicode="&#x011C;" d="M631 296L413 296L413 324L660 324L660 87Q614 42 541 16Q469-9 398-9Q246-9 151 89Q57 187 57 350Q57 502 150 606Q244 709 393 709Q524 709 607 644L592 621Q521 680 397 680Q258 680 173 586Q88 492 88 350Q88 202 174 110Q261 20 400 20Q466 20 529 42Q594 64 631 102L631 296M240 740L227 757L393 851L397 851L564 758L549 740L395 825L240 740Z"  horiz-adv-x="727" vert-adv-y="1000"  />

      
      <glyph glyph-name="uni011D" unicode="&#x011D;" d="M17-69Q17-18 53.50 16.50Q90 51 157 64Q140 84 140 110Q140 140 159 159Q115 178 90 215.50Q65 253 65 301Q65 369 113 414Q163 459 238 459Q306 459 351 423L477 458L477 431L374 403Q411 362 411 301Q411 233 363 188Q314 144 238 144Q203 144 181 151Q166 136 167 109.50Q168 83 185 68Q216 72 239 72Q341 72 400 35Q461-2 461-69Q461-136 400-172Q340-208 239-208Q136-208 76.50-171.50Q17-135 17-69M47-69Q47-121 99.50-151Q152-181 239-181Q326-181 379-151Q431-123 431-69Q431-16 378 14Q326 45 239 45Q151 45 99 14.50Q47-16 47-69M238 432Q238 432 206.50 432Q175 432 135 395Q95 358 95 301Q95 244 135 207Q176 171 238 171Q300 171 341 207Q381 244 381 301Q381 358 341 395Q301 432 238 432M240 708L244 708L364 577L349 559L242 673L134 560L118 577L240 708Z"  horiz-adv-x="487" vert-adv-y="1000"  />

      
      <glyph glyph-name="uni011E" unicode="&#x011E;" d="M631 296L413 296L413 324L660 324L660 87Q614 42 541 16Q469-9 398-9Q246-9 151 89Q57 187 57 350Q57 502 150 606Q244 709 393 709Q524 709 607 644L592 621Q521 680 397 680Q258 680 173 586Q88 492 88 350Q88 202 174 110Q261 20 400 20Q466 20 529 42Q594 64 631 102L631 296M244 835L258 850Q315 782 401 782Q485 782 541 850L554 835Q497 756 401 756Q348 756 306.50 779.50Q265 803 244 835Z"  horiz-adv-x="727" vert-adv-y="1000"  />

      
      <glyph glyph-name="uni011F" unicode="&#x011F;" d="M17-69Q17-18 53.50 16.50Q90 51 157 64Q140 84 140 110Q140 140 159 159Q115 178 90 215.50Q65 253 65 301Q65 369 113 414Q163 459 238 459Q306 459 351 423L477 458L477 431L374 403Q411 362 411 301Q411 233 363 188Q314 144 238 144Q203 144 181 151Q166 136 167 109.50Q168 83 185 68Q216 72 239 72Q341 72 400 35Q461-2 461-69Q461-136 400-172Q340-208 239-208Q136-208 76.50-171.50Q17-135 17-69M47-69Q47-121 99.50-151Q152-181 239-181Q326-181 379-151Q431-123 431-69Q431-16 378 14Q326 45 239 45Q151 45 99 14.50Q47-16 47-69M238 432Q238 432 206.50 432Q175 432 135 395Q95 358 95 301Q95 244 135 207Q176 171 238 171Q300 171 341 207Q381 244 381 301Q381 358 341 395Q301 432 238 432M108 665L122 680Q177 613 243 613Q310 613 362 680L374 665Q315 588 242 588Q158 588 108 665Z"  horiz-adv-x="487" vert-adv-y="1000"  />

      
      <glyph glyph-name="uni0120" unicode="&#x0120;" d="M631 296L413 296L413 324L660 324L660 87Q614 42 541 16Q469-9 398-9Q246-9 151 89Q57 187 57 350Q57 502 150 606Q244 709 393 709Q524 709 607 644L592 621Q521 680 397 680Q258 680 173 586Q88 492 88 350Q88 202 174 110Q261 20 400 20Q466 20 529 42Q594 64 631 102L631 296M363 797Q363 819 388 819Q397 819 403.50 813Q410 807 410 797Q410 786 403.50 779.50Q397 773 388 773Q363 773 363 797Z"  horiz-adv-x="727" vert-adv-y="1000"  />

      
      <glyph glyph-name="uni0121" unicode="&#x0121;" d="M17-69Q17-18 53.50 16.50Q90 51 157 64Q140 84 140 110Q140 140 159 159Q115 178 90 215.50Q65 253 65 301Q65 369 113 414Q163 459 238 459Q306 459 351 423L477 458L477 431L374 403Q411 362 411 301Q411 233 363 188Q314 144 238 144Q203 144 181 151Q166 136 167 109.50Q168 83 185 68Q216 72 239 72Q341 72 400 35Q461-2 461-69Q461-136 400-172Q340-208 239-208Q136-208 76.50-171.50Q17-135 17-69M47-69Q47-121 99.50-151Q152-181 239-181Q326-181 379-151Q431-123 431-69Q431-16 378 14Q326 45 239 45Q151 45 99 14.50Q47-16 47-69M238 432Q238 432 206.50 432Q175 432 135 395Q95 358 95 301Q95 244 135 207Q176 171 238 171Q300 171 341 207Q381 244 381 301Q381 358 341 395Q301 432 238 432M219 629Q219 638 226 644.50Q233 651 242 651Q250 651 256.50 644.50Q263 638 263 629Q263 619 256.50 612.50Q250 606 242 606Q233 606 226 612.50Q219 619 219 629Z"  horiz-adv-x="487" vert-adv-y="1000"  />

      
      <glyph glyph-name="uni0122" unicode="&#x0122;" d="M631 296L413 296L413 324L660 324L660 87Q614 42 541 16Q469-9 398-9Q246-9 151 89Q57 187 57 350Q57 502 150 606Q244 709 393 709Q524 709 607 644L592 621Q521 680 397 680Q258 680 173 586Q88 492 88 350Q88 202 174 110Q261 20 400 20Q466 20 529 42Q594 64 631 102L631 296M371-76L391-64Q409-66 420-79.50Q431-93 431-114Q431-179 361-201L353-186Q403-166 403-120Q403-84 371-76Z"  horiz-adv-x="727" vert-adv-y="1000"  />

      
      <glyph glyph-name="uni0123" unicode="&#x0123;" d="M17-69Q17-18 53.50 16.50Q90 51 157 64Q140 84 140 110Q140 140 159 159Q115 178 90 215.50Q65 253 65 301Q65 369 113 414Q163 459 238 459Q306 459 351 423L477 458L477 431L374 403Q411 362 411 301Q411 233 363 188Q314 144 238 144Q203 144 181 151Q166 136 167 109.50Q168 83 185 68Q216 72 239 72Q341 72 400 35Q461-2 461-69Q461-136 400-172Q340-208 239-208Q136-208 76.50-171.50Q17-135 17-69M47-69Q47-121 99.50-151Q152-181 239-181Q326-181 379-151Q431-123 431-69Q431-16 378 14Q326 45 239 45Q151 45 99 14.50Q47-16 47-69M238 432Q238 432 206.50 432Q175 432 135 395Q95 358 95 301Q95 244 135 207Q176 171 238 171Q300 171 341 207Q381 244 381 301Q381 358 341 395Q301 432 238 432M263 573L243 561Q225 563 214 576.50Q203 590 203 611Q203 676 273 698L281 683Q231 663 231 617Q231 581 263 573Z"  horiz-adv-x="487" vert-adv-y="1000"  />

      
      <glyph glyph-name="uni0124" unicode="&#x0124;" d="M231 740L218 757L384 851L388 851L555 758L540 740L386 825L231 740M656 0L627 0L627 343L146 343L146 0L116 0L116 700L146 700L146 371L627 371L627 700L656 700L656 0Z"  horiz-adv-x="772" vert-adv-y="1000"  />

      
      <glyph glyph-name="uni0125" unicode="&#x0125;" d="M9 740L-4 757L162 851L166 851L333 758L318 740L164 825L9 740M114 0L85 0L85 700L114 700L114 382Q142 415 190.50 436.50Q239 458 287 458Q383 458 430 408.50Q477 359 477 254L477 0L449 0L449 248Q449 341 408 386Q367 431 282 431Q233 431 184 408Q136 385 114 354L114 0Z"  horiz-adv-x="553" vert-adv-y="1000"  />

      
      <glyph glyph-name="uni0126" unicode="&#x0126;" d="M121 527L29 527L29 554L121 554L121 700L151 700L151 554L632 554L632 700L661 700L661 554L754 554L754 527L661 527L661 0L632 0L632 343L151 343L151 0L121 0L121 527M151 527L151 371L632 371L632 527L151 527Z"  horiz-adv-x="782" vert-adv-y="1000"  />

      
      <glyph glyph-name="uni0127" unicode="&#x0127;" d="M91 542L-42 542L-42 569L91 569L91 700L120 700L120 569L302 569L302 542L120 542L120 382Q148 415 196.50 436.50Q245 458 293 458Q389 458 436 408.50Q483 359 483 254L483 0L455 0L455 248Q455 341 414 386Q373 431 288 431Q239 431 190 408Q142 385 120 354L120 0L91 0L91 542Z"  horiz-adv-x="559" vert-adv-y="1000"  />

      
      <glyph glyph-name="uni012A" unicode="&#x012A;" d="M308 785L11 785L11 809L308 809L308 785M173 0L143 0L143 700L173 700L173 0Z"  horiz-adv-x="316" vert-adv-y="1000"  />

      
      <glyph glyph-name="uni012B" unicode="&#x012B;" d="M141 0L113 0L113 450L141 450L141 0M248 624L6 624L6 649L248 649L248 624Z"  horiz-adv-x="255" vert-adv-y="1000"  />

      
      <glyph glyph-name="uni012E" unicode="&#x012E;" d="M169-167L178-186Q152-200 117-200Q72-200 41.50-177Q11-154 11-109Q11-63 50-30Q90 3 143 10L143 700L173 700L173 0L168 0Q118-1 78-31Q39-60 39-103Q39-142 66-159Q94-176 122-176Q150-176 169-167Z"  horiz-adv-x="316" vert-adv-y="1000"  />

      
      <glyph glyph-name="uni012F" unicode="&#x012F;" d="M137-167L146-186Q120-200 85-200Q40-200 9.50-177Q-21-154-21-109Q-21-64 17.50-31.50Q56 1 113 10L113 450L141 450L141 0L136 0Q86-1 46-31Q7-60 7-103Q7-142 34-159Q62-176 90-176Q118-176 137-167M104 629Q104 638 111 644.50Q118 651 127 651Q135 651 141.50 644.50Q148 638 148 629Q148 619 141.50 612.50Q135 606 127 606Q118 606 111 612.50Q104 619 104 629Z"  horiz-adv-x="255" vert-adv-y="1000"  />

      
      <glyph glyph-name="uni0130" unicode="&#x0130;" d="M135 797Q135 819 160 819Q169 819 175.50 813Q182 807 182 797Q182 786 175.50 779.50Q169 773 160 773Q135 773 135 797M173 0L143 0L143 700L173 700L173 0Z"  horiz-adv-x="316" vert-adv-y="1000"  />

      
      <glyph glyph-name="uni0131" unicode="&#x0131;" d="M141 0L113 0L113 450L141 450L141 0Z"  horiz-adv-x="255" vert-adv-y="1000"  />

      
      <glyph glyph-name="uni0134" unicode="&#x0134;" d="M55 740L42 757L208 851L212 851L379 758L364 740L210 825L55 740M204 700L233 700L233 150Q233 70 203 30.50Q173-9 104-9Q52-9 17 20L29 43Q61 20 101 20Q158 20 181 53Q204 86 204 153L204 700Z"  horiz-adv-x="350" vert-adv-y="1000"  />

      
      <glyph glyph-name="uni0135" unicode="&#x0135;" d="M127 708L131 708L251 577L236 559L129 673L21 560L5 577L127 708M115 450L143 450L143-33Q143-208 2-208Q-46-208-83-182L-73-159Q-42-181-2-181Q115-181 115-32L115 450Z"  horiz-adv-x="255" vert-adv-y="1000"  />

      
      <glyph glyph-name="uni0136" unicode="&#x0136;" d="M536 700L577 700L233 367L589 0L546 0L192 365L536 700M146 0L116 0L116 700L146 700L146 0M276-76L296-64Q314-66 325-79.50Q336-93 336-114Q336-179 266-201L258-186Q308-166 308-120Q308-84 276-76Z"  horiz-adv-x="624" vert-adv-y="1000"  />

      
      <glyph glyph-name="uni0137" unicode="&#x0137;" d="M376 450L414 450L189 237L433 0L393 0L153 235L376 450M114 0L85 0L85 700L114 700L114 0M196-76L216-64Q234-66 245-79.50Q256-93 256-114Q256-179 186-201L178-186Q228-166 228-120Q228-84 196-76Z"  horiz-adv-x="457" vert-adv-y="1000"  />

      
      <glyph glyph-name="uni0139" unicode="&#x0139;" d="M406 852L417 829L250 740L241 758L406 852M535 0L116 0L116 700L146 700L146 28L535 28L535 0Z"  horiz-adv-x="554" vert-adv-y="1000"  />

      
      <glyph glyph-name="uni013A" unicode="&#x013A;" d="M85 113L85 700L114 700L114 134Q114 76 131 49.50Q148 23 187 23Q225 23 257 46L266 23Q228-4 179-4Q130-4 107.50 24.50Q85 53 85 113M236 852L247 829L80 740L71 758L236 852Z"  horiz-adv-x="276" vert-adv-y="1000"  />

      
      <glyph glyph-name="uni013B" unicode="&#x013B;" d="M288-76L308-64Q326-66 337-79.50Q348-93 348-114Q348-179 278-201L270-186Q320-166 320-120Q320-84 288-76M535 0L116 0L116 700L146 700L146 28L535 28L535 0Z"  horiz-adv-x="554" vert-adv-y="1000"  />

      
      <glyph glyph-name="uni013C" unicode="&#x013C;" d="M85 113L85 700L114 700L114 134Q114 76 131 49.50Q148 23 187 23Q225 23 257 46L266 23Q228-4 179-4Q130-4 107.50 24.50Q85 53 85 113M133-76L153-64Q171-66 182-79.50Q193-93 193-114Q193-179 123-201L115-186Q165-166 165-120Q165-84 133-76Z"  horiz-adv-x="276" vert-adv-y="1000"  />

      
      <glyph glyph-name="uni013D" unicode="&#x013D;" d="M357 700L385 700Q394 682 394 658Q394 615 376 582.50Q358 550 329 535L317 550Q367 582 367 655Q367 683 357 700M535 0L116 0L116 700L146 700L146 28L535 28L535 0Z"  horiz-adv-x="554" vert-adv-y="1000"  />

      
      <glyph glyph-name="uni013E" unicode="&#x013E;" d="M85 113L85 700L114 700L114 134Q114 76 131 49.50Q148 23 187 23Q225 23 257 46L266 23Q228-4 179-4Q130-4 107.50 24.50Q85 53 85 113M232 700L260 700Q269 682 269 658Q269 615 251 582.50Q233 550 204 535L192 550Q242 582 242 655Q242 683 232 700Z"  horiz-adv-x="276" vert-adv-y="1000"  />

      
      <glyph glyph-name="uni013F" unicode="&#x013F;" d="M385 374Q385 382 392.50 389Q400 396 410 396Q419 396 426 389Q433 382 433 374Q433 364 426 356.50Q419 349 410 349Q400 349 392.50 356.50Q385 364 385 374M535 0L116 0L116 700L146 700L146 28L535 28L535 0Z"  horiz-adv-x="554" vert-adv-y="1000"  />

      
      <glyph glyph-name="uni0140" unicode="&#x0140;" d="M85 113L85 700L114 700L114 134Q114 76 131 49.50Q148 23 187 23Q225 23 257 46L266 23Q228-4 179-4Q130-4 107.50 24.50Q85 53 85 113M223 308Q223 317 230 323.50Q237 330 246 330Q254 330 260.50 323.50Q267 317 267 308Q267 298 260.50 291.50Q254 285 246 285Q237 285 230 291.50Q223 298 223 308Z"  horiz-adv-x="285" vert-adv-y="1000"  />

      
      <glyph glyph-name="uni0141" unicode="&#x0141;" d="M126 292L29 241L29 272L126 322L126 700L156 700L156 338L352 440L352 411L156 308L156 28L545 28L545 0L126 0L126 292Z"  horiz-adv-x="564" vert-adv-y="1000"  />

      
      <glyph glyph-name="uni0142" unicode="&#x0142;" d="M105 297L19 252L19 282L105 327L105 700L134 700L134 342L253 404L253 375L134 312L134 134Q134 76 151 49.50Q168 23 207 23Q245 23 277 46L286 23Q248-4 199-4Q150-4 127.50 24.50Q105 53 105 113L105 297Z"  horiz-adv-x="306" vert-adv-y="1000"  />

      
      <glyph glyph-name="uni0143" unicode="&#x0143;" d="M683 700L683 0L659 0L144 646L144 0L116 0L116 700L140 700L654 52L654 700L683 700M527 852L538 829L371 740L362 758L527 852Z"  horiz-adv-x="799" vert-adv-y="1000"  />

      
      <glyph glyph-name="uni0144" unicode="&#x0144;" d="M114 0L85 0L85 450L114 450L114 382Q142 415 191 436.50Q240 458 287 458Q383 458 430 408.50Q477 359 477 254L477 0L449 0L449 248Q449 341 408 386Q367 431 282 431Q233 431 185 408Q138 385 114 354L114 0M352 710L373 693L261 552L243 564L352 710Z"  horiz-adv-x="553" vert-adv-y="1000"  />

      
      <glyph glyph-name="uni0145" unicode="&#x0145;" d="M683 700L683 0L659 0L144 646L144 0L116 0L116 700L140 700L654 52L654 700L683 700M369-76L389-64Q407-66 418-79.50Q429-93 429-114Q429-179 359-201L351-186Q401-166 401-120Q401-84 369-76Z"  horiz-adv-x="799" vert-adv-y="1000"  />

      
      <glyph glyph-name="uni0146" unicode="&#x0146;" d="M114 0L85 0L85 450L114 450L114 382Q142 415 191 436.50Q240 458 287 458Q383 458 430 408.50Q477 359 477 254L477 0L449 0L449 248Q449 341 408 386Q367 431 282 431Q233 431 185 408Q138 385 114 354L114 0M253-76L273-64Q291-66 302-79.50Q313-93 313-114Q313-179 243-201L235-186Q285-166 285-120Q285-84 253-76Z"  horiz-adv-x="553" vert-adv-y="1000"  />

      
      <glyph glyph-name="uni0147" unicode="&#x0147;" d="M401 742L397 742L230 835L243 852L399 767L553 852L567 835L401 742M683 700L683 0L659 0L144 646L144 0L116 0L116 700L140 700L654 52L654 700L683 700Z"  horiz-adv-x="799" vert-adv-y="1000"  />

      
      <glyph glyph-name="uni0148" unicode="&#x0148;" d="M278 560L274 560L152 691L168 709L276 590L383 708L399 691L278 560M114 0L85 0L85 450L114 450L114 382Q142 415 191 436.50Q240 458 287 458Q383 458 430 408.50Q477 359 477 254L477 0L449 0L449 248Q449 341 408 386Q367 431 282 431Q233 431 185 408Q138 385 114 354L114 0Z"  horiz-adv-x="553" vert-adv-y="1000"  />

      
      <glyph glyph-name="uni014C" unicode="&#x014C;" d="M57 350Q57 502 156 605Q255 709 403 709Q550 709 649 606Q749 505 749 350Q749 197 649 94Q550-9 403-9Q256-9 156 93Q57 196 57 350M403 20Q538 20 628 114Q718 208 718 350Q718 491 627 585Q537 680 403 680Q270 680 178 585Q88 490 88 350Q88 208 178 114Q269 20 403 20M553 785L256 785L256 809L553 809L553 785Z"  horiz-adv-x="807" vert-adv-y="1000"  />

      
      <glyph glyph-name="uni014D" unicode="&#x014D;" d="M117 57Q52 124 52 225Q52 326 117 393Q182 459 284 459Q386 459 451 393Q517 327 517 225Q517 123 451 57Q386-9 284-9Q182-9 117 57M284 432Q284 432 239.50 432Q195 432 138 374Q81 316 81 225Q81 134 138 76Q195 18 284 18Q373 18 430 76Q487 134 487 225Q487 316 430 374Q373 432 284 432M406 624L164 624L164 649L406 649L406 624Z"  horiz-adv-x="569" vert-adv-y="1000"  />

      
      <glyph glyph-name="uni0150" unicode="&#x0150;" d="M620 852L637 833L477 740L464 754L620 852M440 852L461 837L305 740L292 754L440 852M57 350Q57 502 156 605Q255 709 403 709Q550 709 649 606Q749 505 749 350Q749 197 649 94Q550-9 403-9Q256-9 156 93Q57 196 57 350M403 20Q538 20 628 114Q718 208 718 350Q718 491 627 585Q537 680 403 680Q270 680 178 585Q88 490 88 350Q88 208 178 114Q269 20 403 20Z"  horiz-adv-x="807" vert-adv-y="1000"  />

      
      <glyph glyph-name="uni0151" unicode="&#x0151;" d="M444 709L464 692L351 552L333 564L444 709M297 710L317 695L207 552L189 564L297 710M117 57Q52 124 52 225Q52 326 117 393Q182 459 284 459Q386 459 451 393Q517 327 517 225Q517 123 451 57Q386-9 284-9Q182-9 117 57M284 432Q284 432 239.50 432Q195 432 138 374Q81 316 81 225Q81 134 138 76Q195 18 284 18Q373 18 430 76Q487 134 487 225Q487 316 430 374Q373 432 284 432Z"  horiz-adv-x="569" vert-adv-y="1000"  />

      
      <glyph glyph-name="uni0152" unicode="&#x0152;" d="M979 0L589 0L589 43Q513-9 404-9Q249-9 153 89Q57 188 57 350Q57 505 151 606Q245 709 395 709Q515 709 589 657L589 700L969 700L969 672L619 672L619 370L939 370L939 342L619 342L619 28L979 28L979 0M406 20Q516 20 589 77L589 624Q515 680 396 680Q258 680 173 586Q88 492 88 350Q88 202 176 111Q264 20 406 20Z"  horiz-adv-x="1048" vert-adv-y="1000"  />

      
      <glyph glyph-name="uni0153" unicode="&#x0153;" d="M761 80L772 59Q745 27 700.50 9Q656-9 608-9Q509-9 444 49Q382-9 285-9Q183-9 117 57Q52 124 52 225Q52 326 117 393Q183 459 285 459Q377 459 439 403Q498 459 595 459Q683 459 739 403Q796 348 796 257Q796 250 794 226L403 226Q404 130 460 74Q516 18 609 18Q704 18 761 80M285 18Q369 18 424 69Q372 131 372 225Q372 321 422 383Q367 432 285 432Q196 432 139 374Q82 316 82 225Q82 134 139 76Q196 18 285 18M591 432Q508 432 457.50 382Q407 332 401 250L768 250Q768 334 720 383Q672 432 591 432Z"  horiz-adv-x="847" vert-adv-y="1000"  />

      
      <glyph glyph-name="uni0154" unicode="&#x0154;" d="M146 306L146 0L116 0L116 700Q158 700 198 701Q239 702 267 702Q509 702 509 506Q509 434 460 381Q410 327 332 312L586 0L549 0L300 306L146 306M265 674Q234 674 146 672L146 334L282 334Q358 334 417 383Q478 432 478 506Q478 674 265 674M375 852L386 829L219 740L210 758L375 852Z"  horiz-adv-x="621" vert-adv-y="1000"  />

      
      <glyph glyph-name="uni0155" unicode="&#x0155;" d="M114 0L85 0L85 450L114 450L114 385Q160 458 241 458Q288 458 311 441L302 414Q273 431 237 431Q163 431 114 352L114 0M269 710L290 693L178 552L160 564L269 710Z"  horiz-adv-x="320" vert-adv-y="1000"  />

      
      <glyph glyph-name="uni0156" unicode="&#x0156;" d="M146 306L146 0L116 0L116 700Q158 700 198 701Q239 702 267 702Q509 702 509 506Q509 434 460 381Q410 327 332 312L586 0L549 0L300 306L146 306M265 674Q234 674 146 672L146 334L282 334Q358 334 417 383Q478 432 478 506Q478 674 265 674M274-76L294-64Q312-66 323-79.50Q334-93 334-114Q334-179 264-201L256-186Q306-166 306-120Q306-84 274-76Z"  horiz-adv-x="621" vert-adv-y="1000"  />

      
      <glyph glyph-name="uni0157" unicode="&#x0157;" d="M114 0L85 0L85 450L114 450L114 385Q160 458 241 458Q288 458 311 441L302 414Q273 431 237 431Q163 431 114 352L114 0M120-76L140-64Q158-66 169-79.50Q180-93 180-114Q180-179 110-201L102-186Q152-166 152-120Q152-84 120-76Z"  horiz-adv-x="320" vert-adv-y="1000"  />

      
      <glyph glyph-name="uni0158" unicode="&#x0158;" d="M146 306L146 0L116 0L116 700Q158 700 198 701Q239 702 267 702Q509 702 509 506Q509 434 460 381Q410 327 332 312L586 0L549 0L300 306L146 306M265 674Q234 674 146 672L146 334L282 334Q358 334 417 383Q478 432 478 506Q478 674 265 674M276 742L272 742L105 835L118 852L274 767L428 852L442 835L276 742Z"  horiz-adv-x="621" vert-adv-y="1000"  />

      
      <glyph glyph-name="uni0159" unicode="&#x0159;" d="M191 560L187 560L65 691L81 709L189 590L296 708L312 691L191 560M114 0L85 0L85 450L114 450L114 385Q160 458 241 458Q288 458 311 441L302 414Q273 431 237 431Q163 431 114 352L114 0Z"  horiz-adv-x="320" vert-adv-y="1000"  />

      
      <glyph glyph-name="uni015A" unicode="&#x015A;" d="M455 170Q455 214 434 247Q413 280 379.50 299Q346 318 306 333.50Q266 349 225.50 365Q185 381 151.50 401.50Q118 422 97 457Q76 492 76 540Q76 615 130 662Q184 709 276 709Q332 709 381 690Q430 671 460 638L443 617Q382 680 275 680Q198 680 152.50 641.50Q107 603 107 540Q107 489 135 455Q148 438 169 424Q190 410 202.50 404Q215 398 251 384Q287 370 296 366Q363 340 388 328Q432 308 459 267Q486 226 486 171Q486 90 423 40Q362-9 267-9Q206-9 144 18Q82 46 57 90L76 110Q106 70 159 44Q213 20 265 20Q344 20 399 59Q455 100 455 170M392 852L403 829L236 740L227 758L392 852Z"  horiz-adv-x="543" vert-adv-y="1000"  />

      
      <glyph glyph-name="uni015B" unicode="&#x015B;" d="M323 114Q323 145 304 165.50Q285 186 257 196Q229 206 196 218Q163 230 135 242Q107 254 88 280.50Q69 307 69 346Q69 397 106.50 428Q144 459 206 459Q245 459 280.50 445.50Q316 432 335 411L321 390Q281 433 205 433Q158 433 128 408.50Q98 384 98 347Q98 309 124 285Q150 261 187.50 249.50Q225 238 262.50 225.50Q300 213 326 186Q352 159 352 116Q352 57 310 24Q268-9 201-9Q157-9 115 10Q72 29 56 53L74 71Q91 48 128.50 32.50Q166 17 202 17Q254 17 288.50 42.50Q323 68 323 114M285 710L306 693L194 552L176 564L285 710Z"  horiz-adv-x="409" vert-adv-y="1000"  />

      
      <glyph glyph-name="uni015C" unicode="&#x015C;" d="M455 170Q455 214 434 247Q413 280 379.50 299Q346 318 306 333.50Q266 349 225.50 365Q185 381 151.50 401.50Q118 422 97 457Q76 492 76 540Q76 615 130 662Q184 709 276 709Q332 709 381 690Q430 671 460 638L443 617Q382 680 275 680Q198 680 152.50 641.50Q107 603 107 540Q107 489 135 455Q148 438 169 424Q190 410 202.50 404Q215 398 251 384Q287 370 296 366Q363 340 388 328Q432 308 459 267Q486 226 486 171Q486 90 423 40Q362-9 267-9Q206-9 144 18Q82 46 57 90L76 110Q106 70 159 44Q213 20 265 20Q344 20 399 59Q455 100 455 170M116 740L103 757L269 851L273 851L440 758L425 740L271 825L116 740Z"  horiz-adv-x="543" vert-adv-y="1000"  />

      
      <glyph glyph-name="uni015D" unicode="&#x015D;" d="M323 114Q323 145 304 165.50Q285 186 257 196Q229 206 196 218Q163 230 135 242Q107 254 88 280.50Q69 307 69 346Q69 397 106.50 428Q144 459 206 459Q245 459 280.50 445.50Q316 432 335 411L321 390Q281 433 205 433Q158 433 128 408.50Q98 384 98 347Q98 309 124 285Q150 261 187.50 249.50Q225 238 262.50 225.50Q300 213 326 186Q352 159 352 116Q352 57 310 24Q268-9 201-9Q157-9 115 10Q72 29 56 53L74 71Q91 48 128.50 32.50Q166 17 202 17Q254 17 288.50 42.50Q323 68 323 114M206 708L210 708L330 577L315 559L208 673L100 560L84 577L206 708Z"  horiz-adv-x="409" vert-adv-y="1000"  />

      
      </font>
</defs>
</svg>
